SplineFontDB: 3.0
FontName: CMUTypewriter-Oblique
FullName: CMU Typewriter Text Oblique
FamilyName: CMU Typewriter Text
Weight: Medium
Copyright: Converted by Andrey V. Panov from TeX fonts. Some glyphs are copied from Blue Sky fonts released by AMS.
UComments: "2009-6-18: Created." 
Version: 0.7.0
ItalicAngle: -9.46
UnderlinePosition: -100
UnderlineWidth: 50
Ascent: 775
Descent: 225
LayerCount: 2
Layer: 0 0 "+BBcEMAQ0BD0EOAQ5 +BD8EOwQwBD0A"  1
Layer: 1 0 "+BB8ENQRABDUENAQ9BDgEOQAA +BD8EOwQwBD0A"  0
NeedsXUIDChange: 1
XUID: [1067 12183867]
FSType: 0
OS2Version: 0
OS2_WeightWidthSlopeOnly: 0
OS2_UseTypoMetrics: 1
CreationTime: 1245312779
ModificationTime: 1245313501
PfmFamily: 17
TTFWeight: 500
TTFWidth: 5
LineGap: 200
VLineGap: 90
Panose: 2 0 6 9 0 0 0 0 0 0
OS2TypoAscent: 0
OS2TypoAOffset: 1
OS2TypoDescent: 0
OS2TypoDOffset: 1
OS2TypoLinegap: 200
OS2WinAscent: 827
OS2WinAOffset: 0
OS2WinDescent: 233
OS2WinDOffset: 0
HheadAscent: 827
HheadAOffset: 0
HheadDescent: -233
HheadDOffset: 0
Lookup: 1 0 0 "Case substitutions"  {"Case substitutions subtable"  } ['case' ('cyrl' <'dflt' > 'grek' <'dflt' > 'latn' <'dflt' > ) ]
Lookup: 3 0 0 "Greek alternatives"  {"Greek alternatives subtable"  } ['salt' ('grek' <'dflt' > ) ]
Lookup: 1 0 0 "Greek substitutions"  {"Greek substitutions subtable"  } ['locl' ('grek' <'dflt' > ) ]
Lookup: 4 0 0 "Latin Dutch ligatures"  {"Latin Dutch ligatures subtable"  } ['dlig' ('latn' <'NLD ' > ) ]
Lookup: 4 0 0 "Latin ligatures excepting Turkic"  {"Latin ligatures excepting Turkic subtable"  } ['dlig' ('latn' <'dflt' 'NLD ' 'VIT ' > ) ]
Lookup: 4 0 0 "Latin ligatures"  {"Latin ligatures subtable"  } ['dlig' ('latn' <'dflt' 'NLD ' 'VIT ' 'TRK ' 'AZE ' > ) ]
Lookup: 4 0 0 "Cyrillic ligatures"  {"Cyrillic ligatures subtable"  } ['dlig' ('cyrl' <'dflt' 'MKD ' 'SRB ' > ) ]
Lookup: 3 0 0 "Latin alternatives"  {"Latin alternatives subtable"  } ['salt' ('latn' <'dflt' > ) ]

StartChar: .notdef
Encoding: 0 0 0
Width: 525
Flags: HW
HStem: 10 60<105 420> 705 60<105 420>
VStem: 10 60<112 663> 455 60<112 663>
DStem2: 105 705 70 663 0.508289 -0.861187<18.3797 309.738 396.718 688.585> 70 112 105 70 0.508289 0.861187<0 291.358 378.338 670.205>
LayerCount: 2
Fore
SplineSet
10 10 m 1
 10 765 l 1
 515 765 l 1
 515 10 l 1
 10 10 l 1
70 112 m 1
 232 388 l 1
 70 663 l 1
 70 112 l 1
105 70 m 1
 420 70 l 1
 262 337 l 1
 105 70 l 1
105 705 m 1
 262 438 l 1
 420 705 l 1
 105 705 l 1
292 388 m 1
 455 112 l 1
 455 663 l 1
 292 388 l 1
EndSplineSet
EndChar

StartChar: SF100000
Encoding: 9472 9472 1
Width: 525
Flags: HW
HStem: 240 70<0 525>
LayerCount: 2
Fore
SplineSet
-0 240 m 1
 -0 310 l 1
 525 310 l 1
 525 240 l 1
 -0 240 l 1
EndSplineSet
EndChar

StartChar: SF110000
Encoding: 9474 9474 2
Width: 525
Flags: HW
VStem: 227 70<-355 837>
LayerCount: 2
Fore
SplineSet
227 -355 m 1
 227 837 l 1
 297 837 l 1
 297 -355 l 1
 227 -355 l 1
EndSplineSet
EndChar

StartChar: SF010000
Encoding: 9484 9484 3
Width: 525
Flags: HW
HStem: 240 70<297 525>
VStem: 227 70<-355 240>
LayerCount: 2
Fore
SplineSet
227 310 m 1
 525 310 l 1
 525 240 l 1
 297 240 l 1
 297 -355 l 1
 227 -355 l 1
 227 310 l 1
EndSplineSet
EndChar

StartChar: SF030000
Encoding: 9488 9488 4
Width: 525
Flags: HW
HStem: 240 70<0 227>
VStem: 227 70<-355 240>
LayerCount: 2
Fore
SplineSet
0 240 m 1
 0 310 l 1
 297 310 l 1
 297 -355 l 1
 227 -355 l 1
 227 240 l 1
 0 240 l 1
EndSplineSet
EndChar

StartChar: SF020000
Encoding: 9492 9492 5
Width: 525
Flags: HW
HStem: 240 70<297 525>
VStem: 227 70<310 837>
LayerCount: 2
Fore
SplineSet
227 240 m 1
 227 837 l 1
 297 837 l 1
 297 310 l 1
 525 310 l 1
 525 240 l 1
 227 240 l 1
EndSplineSet
EndChar

StartChar: SF040000
Encoding: 9496 9496 6
Width: 525
Flags: HW
HStem: 240 70<0 227>
VStem: 227 70<310 837>
LayerCount: 2
Fore
SplineSet
0 240 m 1
 0 310 l 1
 227 310 l 1
 227 837 l 1
 297 837 l 1
 297 240 l 1
 0 240 l 1
EndSplineSet
EndChar

StartChar: SF080000
Encoding: 9500 9500 7
Width: 525
Flags: HW
HStem: 240 70<297 525>
VStem: 227 70<-355 240 310 837>
LayerCount: 2
Fore
SplineSet
227 -355 m 1
 227 837 l 1
 297 837 l 1
 297 310 l 1
 525 310 l 1
 525 240 l 1
 297 240 l 1
 297 -355 l 1
 227 -355 l 1
EndSplineSet
EndChar

StartChar: SF090000
Encoding: 9508 9508 8
Width: 525
Flags: HW
HStem: 240 70<0 227>
VStem: 227 70<-355 240 310 837>
LayerCount: 2
Fore
SplineSet
0 240 m 1
 0 310 l 1
 227 310 l 1
 227 837 l 1
 297 837 l 1
 297 -355 l 1
 227 -355 l 1
 227 240 l 1
 0 240 l 1
EndSplineSet
EndChar

StartChar: SF060000
Encoding: 9516 9516 9
Width: 525
Flags: HW
HStem: 240 70<0 227 297 525>
VStem: 227 70<-355 240>
LayerCount: 2
Fore
SplineSet
0 240 m 1
 0 310 l 1
 525 310 l 1
 525 240 l 1
 297 240 l 1
 297 -355 l 1
 227 -355 l 1
 227 240 l 1
 0 240 l 1
EndSplineSet
EndChar

StartChar: SF070000
Encoding: 9524 9524 10
Width: 525
Flags: HW
HStem: 240 70<0 227 297 525>
VStem: 227 70<310 837>
LayerCount: 2
Fore
SplineSet
0 240 m 1
 0 310 l 1
 227 310 l 1
 227 837 l 1
 297 837 l 1
 297 310 l 1
 525 310 l 1
 525 240 l 1
 0 240 l 1
EndSplineSet
EndChar

StartChar: SF050000
Encoding: 9532 9532 11
Width: 525
Flags: HW
HStem: 240 70<0 227 297 525>
VStem: 227 70<-355 240 310 837>
LayerCount: 2
Fore
SplineSet
-0 240 m 1
 -0 310 l 1
 227 310 l 1
 227 837 l 1
 297 837 l 1
 297 310 l 1
 525 310 l 1
 525 240 l 1
 297 240 l 1
 297 -355 l 1
 227 -355 l 1
 227 240 l 1
 -0 240 l 1
EndSplineSet
EndChar

StartChar: SF510000
Encoding: 9554 9554 14
Width: 525
Flags: HW
HStem: 160 70<297 525> 320 70<297 525>
VStem: 227 70<-355 160 230 320>
LayerCount: 2
Fore
SplineSet
227 -355 m 1
 227 390 l 1
 525 390 l 1
 525 320 l 1
 297 320 l 1
 297 230 l 1
 525 230 l 1
 525 160 l 1
 297 160 l 1
 297 -355 l 1
 227 -355 l 1
EndSplineSet
EndChar

StartChar: SF520000
Encoding: 9555 9555 15
Width: 525
Flags: HW
HStem: 240 70<217 307 377 525>
VStem: 147 70<-355 240> 307 70<-355 240>
LayerCount: 2
Fore
SplineSet
147 310 m 1
 525 310 l 1
 525 240 l 1
 377 240 l 1
 377 -355 l 1
 307 -355 l 1
 307 240 l 1
 217 240 l 1
 217 -355 l 1
 147 -355 l 1
 147 310 l 1
EndSplineSet
EndChar

StartChar: SF390000
Encoding: 9556 9556 16
Width: 525
Flags: HW
HStem: 160 70<377 525> 320 70<217 525>
VStem: 147 70<-355 320> 307 70<-355 160>
LayerCount: 2
Fore
SplineSet
147 -355 m 1
 147 390 l 1
 525 390 l 1
 525 320 l 1
 217 320 l 1
 217 -355 l 1
 147 -355 l 1
307 230 m 1
 525 230 l 1
 525 160 l 1
 377 160 l 1
 377 -355 l 1
 307 -355 l 1
 307 230 l 1
EndSplineSet
EndChar

StartChar: SF220000
Encoding: 9557 9557 17
Width: 525
Flags: HW
HStem: 160 70<0 227> 320 70<0 227>
VStem: 227 70<-355 160 230 320>
LayerCount: 2
Fore
SplineSet
0 160 m 1
 0 230 l 1
 227 230 l 1
 227 320 l 1
 0 320 l 1
 0 390 l 1
 297 390 l 1
 297 -355 l 1
 227 -355 l 1
 227 160 l 1
 0 160 l 1
EndSplineSet
EndChar

StartChar: SF210000
Encoding: 9558 9558 18
Width: 525
Flags: HW
HStem: 240 70<0 147 217 307>
VStem: 147 70<-355 240> 307 70<-355 240>
LayerCount: 2
Fore
SplineSet
0 240 m 1
 0 310 l 1
 377 310 l 1
 377 -355 l 1
 307 -355 l 1
 307 240 l 1
 217 240 l 1
 217 -355 l 1
 147 -355 l 1
 147 240 l 1
 0 240 l 1
EndSplineSet
EndChar

StartChar: SF250000
Encoding: 9559 9559 19
Width: 525
Flags: HW
HStem: 160 70<0 147> 320 70<0 307>
VStem: 147 70<-355 160> 307 70<-355 320>
LayerCount: 2
Fore
SplineSet
0 160 m 1
 0 230 l 1
 217 230 l 1
 217 -355 l 1
 147 -355 l 1
 147 160 l 1
 0 160 l 1
0 320 m 1
 0 390 l 1
 377 390 l 1
 377 -355 l 1
 307 -355 l 1
 307 320 l 1
 0 320 l 1
EndSplineSet
EndChar

StartChar: SF500000
Encoding: 9560 9560 20
Width: 525
Flags: HW
HStem: 160 70<297 525> 320 70<297 525>
VStem: 227 70<230 320 390 837>
LayerCount: 2
Fore
SplineSet
227 160 m 1
 227 837 l 1
 297 837 l 1
 297 390 l 1
 525 390 l 1
 525 320 l 1
 297 320 l 1
 297 230 l 1
 525 230 l 1
 525 160 l 1
 227 160 l 1
EndSplineSet
EndChar

StartChar: SF490000
Encoding: 9561 9561 21
Width: 525
Flags: HW
HStem: 240 70<217 307 377 525>
VStem: 147 70<310 837> 307 70<310 837>
LayerCount: 2
Fore
SplineSet
147 240 m 1
 147 837 l 1
 217 837 l 1
 217 310 l 1
 307 310 l 1
 307 837 l 1
 377 837 l 1
 377 310 l 1
 525 310 l 1
 525 240 l 1
 147 240 l 1
EndSplineSet
EndChar

StartChar: SF380000
Encoding: 9562 9562 22
Width: 525
Flags: HW
HStem: 160 70<217 525> 320 70<377 525>
VStem: 147 70<230 837> 307 70<390 837>
LayerCount: 2
Fore
SplineSet
147 160 m 1
 147 837 l 1
 217 837 l 1
 217 230 l 1
 525 230 l 1
 525 160 l 1
 147 160 l 1
307 320 m 1
 307 837 l 1
 377 837 l 1
 377 390 l 1
 525 390 l 1
 525 320 l 1
 307 320 l 1
EndSplineSet
EndChar

StartChar: SF280000
Encoding: 9563 9563 23
Width: 525
Flags: HW
HStem: 160 70<0 227> 320 70<0 227>
VStem: 227 70<230 320 390 837>
LayerCount: 2
Fore
SplineSet
0 160 m 1
 0 230 l 1
 227 230 l 1
 227 320 l 1
 0 320 l 1
 0 390 l 1
 227 390 l 1
 227 837 l 1
 297 837 l 1
 297 160 l 1
 0 160 l 1
EndSplineSet
EndChar

StartChar: SF270000
Encoding: 9564 9564 24
Width: 525
Flags: HW
HStem: 240 70<0 147 217 307>
VStem: 147 70<310 837> 307 70<310 837>
LayerCount: 2
Fore
SplineSet
0 240 m 1
 0 310 l 1
 147 310 l 1
 147 837 l 1
 217 837 l 1
 217 310 l 1
 307 310 l 1
 307 837 l 1
 377 837 l 1
 377 240 l 1
 0 240 l 1
EndSplineSet
EndChar

StartChar: SF260000
Encoding: 9565 9565 25
Width: 525
Flags: HW
HStem: 160 70<0 307> 320 70<0 147>
VStem: 147 70<390 837> 307 70<230 837>
LayerCount: 2
Fore
SplineSet
0 160 m 1
 0 230 l 1
 307 230 l 1
 307 837 l 1
 377 837 l 1
 377 160 l 1
 0 160 l 1
0 320 m 1
 0 390 l 1
 147 390 l 1
 147 837 l 1
 217 837 l 1
 217 320 l 1
 0 320 l 1
EndSplineSet
EndChar

StartChar: SF360000
Encoding: 9566 9566 26
Width: 525
Flags: HW
HStem: 160 70<297 525> 320 70<297 525>
VStem: 227 70<-355 160 230 320 390 837>
LayerCount: 2
Fore
SplineSet
227 -355 m 1
 227 837 l 1
 297 837 l 1
 297 390 l 1
 525 390 l 1
 525 320 l 1
 297 320 l 1
 297 230 l 1
 525 230 l 1
 525 160 l 1
 297 160 l 1
 297 -355 l 1
 227 -355 l 1
EndSplineSet
EndChar

StartChar: SF370000
Encoding: 9567 9567 27
Width: 525
Flags: HW
HStem: 240 70<377 525>
VStem: 147 70<-355 837> 307 70<-355 240 310 837>
LayerCount: 2
Fore
SplineSet
307 -355 m 1
 307 837 l 1
 377 837 l 1
 377 310 l 1
 525 310 l 1
 525 240 l 1
 377 240 l 1
 377 -355 l 1
 307 -355 l 1
EndSplineSet
Refer: 2 9474 S 1 0 0 1 -80 0 2
EndChar

StartChar: SF420000
Encoding: 9568 9568 28
Width: 525
Flags: HW
HStem: 160 70<377 525> 320 70<377 525>
VStem: 147 70<-355 837> 307 218<160 230 320 390> 307 70<-355 160 390 837>
LayerCount: 2
Fore
SplineSet
307 230 m 1xf0
 525 230 l 1
 525 160 l 1xf0
 377 160 l 1
 377 -355 l 1
 307 -355 l 1xe8
 307 230 l 1xf0
307 320 m 1xf0
 307 837 l 1
 377 837 l 1
 377 390 l 1xe8
 525 390 l 1
 525 320 l 1
 307 320 l 1xf0
EndSplineSet
Refer: 2 9474 S 1 0 0 1 -80 0 2
EndChar

StartChar: SF190000
Encoding: 9569 9569 29
Width: 525
Flags: HW
HStem: 160 70<0 227> 320 70<0 227>
VStem: 227 70<-355 160 230 320 390 837>
LayerCount: 2
Fore
SplineSet
0 160 m 1
 0 230 l 1
 227 230 l 1
 227 320 l 1
 0 320 l 1
 0 390 l 1
 227 390 l 1
 227 837 l 1
 297 837 l 1
 297 -355 l 1
 227 -355 l 1
 227 160 l 1
 0 160 l 1
EndSplineSet
EndChar

StartChar: SF200000
Encoding: 9570 9570 30
Width: 525
Flags: HW
HStem: 240 70<0 147>
VStem: 147 70<-355 240 310 837> 307 70<-355 837>
LayerCount: 2
Fore
SplineSet
0 240 m 1
 0 310 l 1
 147 310 l 1
 147 837 l 1
 217 837 l 1
 217 -355 l 1
 147 -355 l 1
 147 240 l 1
 0 240 l 1
EndSplineSet
Refer: 2 9474 S 1 0 0 1 80 0 2
EndChar

StartChar: SF230000
Encoding: 9571 9571 31
Width: 525
Flags: HW
HStem: 160 70<0 147> 320 70<0 147>
VStem: 0 217<160 230 320 390> 147 70<-355 160 390 837> 307 70<-355 837>
LayerCount: 2
Fore
SplineSet
0 160 m 1
 0 230 l 1
 217 230 l 1xe8
 217 -355 l 1
 147 -355 l 1
 147 160 l 1xd8
 0 160 l 1
0 320 m 1xe8
 0 390 l 1xe8
 147 390 l 1
 147 837 l 1
 217 837 l 1xd8
 217 320 l 1
 0 320 l 1xe8
EndSplineSet
Refer: 2 9474 S 1 0 0 1 80 0 2
EndChar

StartChar: SF470000
Encoding: 9572 9572 32
Width: 525
Flags: HW
HStem: 160 70<0 227 297 525> 320 70<0 525>
VStem: 227 70<-355 160>
LayerCount: 2
Fore
SplineSet
0 160 m 1
 0 230 l 1
 525 230 l 1
 525 160 l 1
 297 160 l 1
 297 -355 l 1
 227 -355 l 1
 227 160 l 1
 0 160 l 1
EndSplineSet
Refer: 1 9472 S 1 0 0 1 0 80 2
EndChar

StartChar: SF480000
Encoding: 9573 9573 33
Width: 525
Flags: HW
HStem: 240 70<0 147 217 307 377 525>
VStem: 147 70<-355 240> 307 70<-355 240>
LayerCount: 2
Fore
SplineSet
0 240 m 1
 0 310 l 1
 525 310 l 1
 525 240 l 1
 377 240 l 1
 377 -355 l 1
 307 -355 l 1
 307 240 l 1
 217 240 l 1
 217 -355 l 1
 147 -355 l 1
 147 240 l 1
 0 240 l 1
EndSplineSet
EndChar

StartChar: SF410000
Encoding: 9574 9574 34
Width: 525
Flags: HW
HStem: 160 70<0 147 377 525> 320 70<0 525>
VStem: 147 70<-355 160> 307 70<-355 160>
LayerCount: 2
Fore
SplineSet
0 160 m 1
 0 230 l 1
 217 230 l 1
 217 -355 l 1
 147 -355 l 1
 147 160 l 1
 0 160 l 1
307 230 m 1
 525 230 l 1
 525 160 l 1
 377 160 l 1
 377 -355 l 1
 307 -355 l 1
 307 230 l 1
EndSplineSet
Refer: 1 9472 S 1 0 0 1 0 80 2
EndChar

StartChar: SF450000
Encoding: 9575 9575 35
Width: 525
Flags: HW
HStem: 160 70<0 525> 320 70<0 227 297 525>
VStem: 227 70<390 837>
LayerCount: 2
Fore
SplineSet
0 320 m 1
 0 390 l 1
 227 390 l 1
 227 837 l 1
 297 837 l 1
 297 390 l 1
 525 390 l 1
 525 320 l 1
 0 320 l 1
EndSplineSet
Refer: 1 9472 S 1 0 0 1 0 -80 2
EndChar

StartChar: SF460000
Encoding: 9576 9576 36
Width: 525
Flags: HW
HStem: 240 70<0 147 217 307 377 525>
VStem: 147 70<310 837> 307 70<310 837>
LayerCount: 2
Fore
SplineSet
0 240 m 1
 0 310 l 1
 147 310 l 1
 147 837 l 1
 217 837 l 1
 217 310 l 1
 307 310 l 1
 307 837 l 1
 377 837 l 1
 377 310 l 1
 525 310 l 1
 525 240 l 1
 0 240 l 1
EndSplineSet
EndChar

StartChar: SF400000
Encoding: 9577 9577 37
Width: 525
Flags: HW
HStem: 160 70<0 525> 320 70<0 147 377 525>
VStem: 147 70<390 837> 307 70<390 837>
LayerCount: 2
Fore
SplineSet
0 320 m 1
 0 390 l 1
 147 390 l 1
 147 837 l 1
 217 837 l 1
 217 320 l 1
 0 320 l 1
307 320 m 1
 307 837 l 1
 377 837 l 1
 377 390 l 1
 525 390 l 1
 525 320 l 1
 307 320 l 1
EndSplineSet
Refer: 1 9472 S 1 0 0 1 0 -80 2
EndChar

StartChar: SF540000
Encoding: 9578 9578 38
Width: 525
Flags: HW
HStem: 160 70<0 227 297 525> 320 70<0 227 297 525>
VStem: 227 70<-355 160 230 320 390 837>
LayerCount: 2
Fore
SplineSet
0 160 m 1
 0 230 l 1
 227 230 l 1
 227 320 l 1
 0 320 l 1
 0 390 l 1
 227 390 l 1
 227 837 l 1
 297 837 l 1
 297 390 l 1
 525 390 l 1
 525 320 l 1
 297 320 l 1
 297 230 l 1
 525 230 l 1
 525 160 l 1
 297 160 l 1
 297 -355 l 1
 227 -355 l 1
 227 160 l 1
 0 160 l 1
EndSplineSet
EndChar

StartChar: SF530000
Encoding: 9579 9579 39
Width: 525
Flags: HW
HStem: 240 70<0 147 217 307 377 525>
VStem: 147 70<-355 240 310 837> 307 70<-355 240 310 837>
LayerCount: 2
Fore
SplineSet
-0 240 m 1
 -0 310 l 1
 147 310 l 1
 147 837 l 1
 217 837 l 1
 217 310 l 1
 307 310 l 1
 307 837 l 1
 377 837 l 1
 377 310 l 1
 525 310 l 1
 525 240 l 1
 377 240 l 1
 377 -355 l 1
 307 -355 l 1
 307 240 l 1
 217 240 l 1
 217 -355 l 1
 147 -355 l 1
 147 240 l 1
 -0 240 l 1
EndSplineSet
EndChar

StartChar: uni262D
Encoding: 9773 9773 40
Width: 525
Flags: HW
TeX: 117 0
HStem: 0 20G<30.5 60.5 462.5 467> 39 76<244.267 355.503> 102 51<98.531 128.337>
VStem: 89 43<98.6716 137.734> 431 65<186.303 382.211>
DStem2: 84 357 128 301 0.626941 0.779067<0 63.6069 102.652 165.701>
LayerCount: 2
Fore
SplineSet
18 18 m 0
 18 64 89 102 89 128 c 0
 89 148 93 153 104 153 c 0xb8
 115 153 118 159 132 180 c 1
 175 152 232 115 298 115 c 0
 336 115 356 128 356 129 c 0
 356 135 311 186 178 363 c 1
 128 301 l 1
 84 357 l 1
 188 486 l 1
 264 470 l 1
 203 393 l 1
 373 190 l 1
 396 165 l 1
 401 165 431 218 431 295 c 0
 431 473 263 587 263 593 c 1
 301 593 496 478 496 267 c 0
 496 167 458 114 450 100 c 1
 493 46 496 44 496 38 c 0
 496 17 470 -1 464 -1 c 0xd8
 461 -1 462 -3 409 62 c 1
 387 51 366 39 328 39 c 0xd8
 225 39 147 138 136 138 c 0
 132 138 132 134 132 130 c 2
 132 118 l 2
 132 108 128 102 120 102 c 0
 91 102 84 0 37 0 c 0
 24 0 18 7 18 18 c 0
EndSplineSet
EndChar

StartChar: uni03F5
Encoding: 1013 1013 41
Width: 525
Flags: HW
TeX: 117 0
HStem: -5 66<263.732 471.258> 186 67<182 460.899> 370 66<336.283 564.113>
VStem: 92 68<128.467 182.864>
LayerCount: 2
Fore
SplineSet
92 178 m 0
 92 281 174 434 534 436 c 0
 564 436 567 416 567 408 c 0
 567 400 563 375 545 370 c 0
 514 361 274 387 182 253 c 1
 429 253 l 2
 442 253 463 251 463 222 c 0
 463 188 437 186 425 186 c 2
 160 186 l 1
 154 50 433 66 453 61 c 0
 468 57 474 45 474 32 c 0
 474 23 471 -5 437 -5 c 0
 285 -5 92 32 92 178 c 0
EndSplineSet
EndChar

StartChar: longs
Encoding: 383 383 42
Width: 525
Flags: HW
TeX: 108 0
HStem: 0 61<48.1875 194 264 398.854> 370 61<110.493 245> 556 61<367.296 449.154>
DStem2: 183.836 0 253.836 0 0.164359 0.986401<73.3461 375.021 436.835 554.72>
AnchorPoint: "above" 438 611 basechar 0
AnchorPoint: "below" 218 0 basechar 0
LayerCount: 2
Fore
SplineSet
47 29 m 0
 47 61 74 61 88 61 c 2
 194 61 l 1
 245 370 l 1
 150 370 l 2
 137 370 109 370 109 398 c 0
 109 431 136 431 151 431 c 2
 255 431 l 1
 271 523 273 534 305 565 c 0
 316 577 360 617 439 617 c 0
 456 617 530 617 530 561 c 0
 530 525 500 513 485 513 c 0
 481 513 447 513 444 556 c 1
 368 556 341 517 335 482 c 0
 308 346 280 142 264 61 c 1
 360 61 l 2
 374 61 400 61 400 32 c 0
 400 0 374 0 359 0 c 2
 87 0 l 2
 73 0 47 0 47 29 c 0
EndSplineSet
EndChar

StartChar: florin
Encoding: 402 402 43
Width: 525
Flags: HW
TeX: 102 0
HStem: -227 61<130.992 190.171> 369 61<209.531 306 388 504.153> 555 61<411.707 483.168>
VStem: 45 90<-161.625 -109.136> 480 90<498.136 550.625>
DStem2: 204.682 -227 277.691 -227 0.164359 0.986401<378.56 604.547 678.195 802.536>
LayerCount: 2
Fore
SplineSet
45 -155 m 0
 45 -121 68 -100 95 -100 c 0
 117 -100 135 -115 135 -139 c 0
 135 -146 134 -154 130 -162 c 1
 140 -165 148 -166 154 -166 c 0
 221 -166 245 22 265 135 c 2
 306 369 l 1
 241 369 l 2
 218 369 208 382 208 397 c 0
 208 412 215 430 243 430 c 2
 317 430 l 1
 334 544 342 616 454 616 c 0
 546 616 570 577 570 544 c 0
 570 510 547 489 521 489 c 0
 498 489 480 504 480 528 c 0
 480 535 482 543 485 551 c 1
 475 553 464 555 453 555 c 0
 408 554 405 536 388 430 c 1
 471 430 l 2
 496 430 506 417 506 402 c 0
 506 390 500 369 469 369 c 2
 377 369 l 1
 303 -65 291 -119 256 -167 c 0
 228 -205 195 -227 155 -227 c 0
 113 -227 45 -214 45 -155 c 0
EndSplineSet
EndChar

StartChar: circumflex.cap
Encoding: 65536 -1 44
Width: 525
Flags: HW
HStem: 751 73<362.277 413.859>
VStem: 216 326<684 713>
AnchorPoint: "above" 366 622 mark 0
LayerCount: 2
Fore
SplineSet
216 698 m 0
 216 714 230 722 237 727 c 0
 382 824 389 824 395 824 c 2
 398 824 l 2
 408 824 411 820 523 727 c 0
 529 721 542 713 542 698 c 0
 542 680 521 659 504 659 c 0
 485 659 464 686 392 751 c 1
 391 751 l 1
 377 740 285 677 282 674 c 1
 273 669 263 659 250 659 c 0
 229 659 216 684 216 698 c 0
EndSplineSet
EndChar

StartChar: dieresis.cap
Encoding: 65537 -1 45
Width: 525
Flags: HW
HStem: 719 100<249.042 327.971 453.042 531.971>
VStem: 238 101<730.544 807.216> 442 101<730.628 807.456>
AnchorPoint: "above" 366 622 mark 0
LayerCount: 2
Fore
SplineSet
238 765 m 0
 238 797 266 819 292 819 c 0
 320 819 339 797 339 772 c 0
 339 741 311 719 285 719 c 0
 260 719 238 738 238 765 c 0
442 766 m 0
 442 797 470 819 496 819 c 0
 519 819 543 800 543 773 c 0
 543 741 515 719 489 719 c 0
 464 719 442 738 442 766 c 0
EndSplineSet
EndChar

StartChar: caron.cap
Encoding: 65539 -1 47
Width: 525
Flags: HW
HStem: 636 75<357.403 405.1>
VStem: 247 290<761 790>
AnchorPoint: "above" 367 622 mark 0
LayerCount: 2
Fore
SplineSet
247 775 m 0
 247 790 261 804 277 804 c 0
 295 804 301 791 377 711 c 1
 379 711 l 1
 389 720 463 778 484 794 c 0
 490 798 498 804 508 804 c 0
 523 804 537 791 537 775 c 0
 537 754 520 750 415 660 c 0
 389 638 382 636 373 636 c 0
 362 636 354 643 346 651 c 0
 249 761 247 761 247 775 c 0
EndSplineSet
EndChar

StartChar: ring.cap
Encoding: 65540 -1 48
Width: 525
Flags: HW
HStem: 590 62<330.923 421.369> 766 61<341.791 432.573>
VStem: 263 60<660 746.11> 440 59<671.588 758.056>
AnchorPoint: "above" 367 622 mark 0
LayerCount: 2
Back
SplineSet
101 578 m 0xde
 101 609 127 611 136 611 c 2
 276 611 l 2
 307 611 312 593 312 582 c 0
 312 552 286 549 276 549 c 2
 236 549 l 1
 234 534 231 519 229 504 c 2
 180 209 l 2
 178 195 175 182 175 166 c 0
 175 100 212 51 266 51 c 0
 324 51 388 107 410 188 c 0
 419 223 452 441 471 549 c 1
 446 549 l 2xde
 431 549 417 549 408 567 c 0
 407 569 406 573 406 578 c 0
 406 584 408 592 414 602 c 1
 399 595 381 590 361 590 c 0xbe
 304 590 262 631 262 689 c 0
 262 765 332 827 400 827 c 0
 454 827 498 788 498 729 c 0
 498 704 491 652 430 610 c 1
 437 611 445 611 452 611 c 2
 579 611 l 2
 590 611 600 611 607 604 c 0
 613 599 617 592 617 582 c 0
 617 552 592 549 582 549 c 2
 542 549 l 1
 540 536 538 524 536 512 c 2
 487 221 l 2
 478 165 466 121 426 72 c 0
 391 30 333 -11 265 -11 c 0
 170 -11 105 70 105 167 c 0
 105 208 166 549 166 549 c 1
 138 549 l 2
 126 549 101 550 101 578 c 0xde
322 700 m 0
 322 670 344 652 372 652 c 0xbe
 402 652 439 679 439 718 c 0
 439 745 419 766 390 766 c 0
 359 766 322 739 322 700 c 0
EndSplineSet
Fore
SplineSet
263 689 m 0
 263 765 333 827 401 827 c 0
 455 827 499 788 499 729 c 0
 499 652 431 590 362 590 c 0
 305 590 263 631 263 689 c 0
323 700 m 0
 323 670 345 652 373 652 c 0
 403 652 440 679 440 718 c 0
 440 745 420 766 391 766 c 0
 360 766 323 739 323 700 c 0
EndSplineSet
EndChar

StartChar: breve.cap
Encoding: 65541 -1 49
Width: 525
Flags: HW
HStem: 652 64<299.358 460.312>
VStem: 216 62<738.027 817.852> 508 62<756.271 817.53>
AnchorPoint: "above" 366 622 mark 0
LayerCount: 2
Fore
SplineSet
216 775 m 0
 216 799 222 819 247 819 c 0
 280 819 278 793 278 777 c 0
 278 740 321 716 377 716 c 0
 430 716 494 740 508 790 c 0
 509 797 514 819 540 819 c 0
 556 819 570 807 570 790 c 0
 570 741 503 652 377 652 c 2
 376 652 l 2
 279 652 216 706 216 775 c 0
EndSplineSet
EndChar

StartChar: grave
Encoding: 96 96 50
Width: 525
Flags: HW
TeX: 610 0
ItalicCorrection: 115
HStem: 506 71<340.601 407.463> 568 71<212.125 280.598>
VStem: 209 204<546 603>
LayerCount: 2
Fore
SplineSet
209 603 m 0
 209 623 227 639 245 639 c 2
 246 639 l 2x60
 255 639 258 637 386 577 c 0
 399 571 413 564 413 546 c 0xa0
 413 533 399 506 378 506 c 2
 376 506 l 2xa0
 367 506 367 507 238 568 c 0
 228 573 209 582 209 603 c 0
EndSplineSet
EndChar

StartChar: acute
Encoding: 180 180 51
Width: 525
Flags: HW
TeX: 610 0
ItalicCorrection: 115
HStem: 506 133
VStem: 294 222<546 605>
LayerCount: 2
Fore
SplineSet
294 546 m 0
 294 566 309 572 326 579 c 0
 472 638 471 639 482 639 c 0
 502 639 516 623 516 605 c 0
 516 576 504 576 346 512 c 0
 339 509 333 506 325 506 c 0
 300 506 294 535 294 546 c 0
EndSplineSet
EndChar

StartChar: circumflex
Encoding: 710 710 52
Width: 525
Flags: HW
TeX: 638 0
HStem: 488 156
VStem: 187 326<512 542>
LayerCount: 2
Fore
SplineSet
187 527 m 0
 187 542 199 549 212 557 c 0
 348 638 353 644 365 644 c 2
 367 644 l 2
 377 644 378 642 492 557 c 0
 499 551 513 543 513 527 c 0
 513 511 494 488 475 488 c 0
 464 488 458 494 449 501 c 0
 379 558 370 565 362 572 c 1
 232 490 235 488 221 488 c 0
 200 488 187 512 187 527 c 0
EndSplineSet
EndChar

StartChar: tilde
Encoding: 732 732 53
Width: 525
Flags: HW
TeX: 638 0
ItalicCorrection: 115
HStem: 491 66<373.222 448.511> 544 67<257.63 333.996>
LayerCount: 2
Fore
SplineSet
175 523 m 0
 175 534 180 541 192 551 c 0
 203 560 263 611 311 611 c 0x40
 366 611 377 558 401 557 c 1
 435 558 481 610 501 610 c 0
 516 610 532 596 532 578 c 0
 532 567 527 561 516 552 c 0
 455 502 420 491 396 491 c 0x80
 341 491 329 544 305 544 c 0x40
 274 544 225 491 204 491 c 0x80
 192 491 175 504 175 523 c 0
EndSplineSet
EndChar

StartChar: dieresis
Encoding: 168 168 54
Width: 525
Flags: HW
TeX: 610 0
ItalicCorrection: 115
HStem: 511 100<214.852 292.958 418.951 496.635>
VStem: 203 101<522.544 599.049> 407 101<522.544 599.148>
LayerCount: 2
Fore
SplineSet
203 557 m 0
 203 588 231 611 257 611 c 0
 282 611 304 592 304 564 c 0
 304 533 276 511 250 511 c 0
 227 511 203 529 203 557 c 0
407 557 m 0
 407 583 430 611 461 611 c 0
 485 611 508 592 508 564 c 0
 508 533 480 511 454 511 c 0
 428 511 407 531 407 557 c 0
EndSplineSet
EndChar

StartChar: ring
Encoding: 730 730 56
Width: 525
Flags: HW
TeX: 638 0
ItalicCorrection: 115
HStem: 473 37<328.167 370.222> 611 36<340.517 381.386>
VStem: 268 58<510.011 602.904> 384 58<517.187 610.816>
LayerCount: 2
Fore
SplineSet
268 546 m 0
 268 596 314 647 369 647 c 0
 413 647 442 615 442 574 c 0
 442 519 392 473 341 473 c 0
 301 473 268 503 268 546 c 0
326 545 m 0
 326 521 336 510 347 510 c 0
 369 510 384 549 384 575 c 0
 384 599 375 611 364 611 c 0
 342 611 326 573 326 545 c 0
EndSplineSet
EndChar

StartChar: caron
Encoding: 711 711 57
Width: 525
Flags: HW
TeX: 638 0
HStem: 484 155
VStem: 219 289<599 624>
LayerCount: 2
Fore
SplineSet
219 609 m 0
 219 624 232 639 248 639 c 0
 262 639 265 634 351 559 c 1
 466 639 470 639 479 639 c 0
 494 639 508 625 508 609 c 0
 508 598 502 591 489 581 c 0
 357 484 360 484 347 484 c 0
 332 484 327 492 232 584 c 0
 224 592 219 599 219 609 c 0
EndSplineSet
EndChar

StartChar: breve
Encoding: 728 728 58
Width: 525
Flags: HW
TeX: 638 0
ItalicCorrection: 115
HStem: 498 65<256.499 455.104> 619 20G<211.5 232.5 481.5 518>
VStem: 186 62<578.024 637.531>
LayerCount: 2
Fore
SplineSet
186 599 m 0
 186 633 205 639 218 639 c 0
 247 639 248 614 248 603 c 0
 248 565 322 563 351 563 c 0
 518 563 454 639 509 639 c 0
 527 639 539 626 539 610 c 0
 539 565 488 498 349 498 c 0
 279 498 186 519 186 599 c 0
EndSplineSet
EndChar

StartChar: macron
Encoding: 175 175 59
Width: 525
Flags: HW
TeX: 610 0
ItalicCorrection: 115
HStem: 559 63<172.005 547.722>
LayerCount: 2
Fore
SplineSet
170 588 m 0
 170 599 175 622 207 622 c 2
 514 622 l 2
 545 622 549 602 549 592 c 0
 549 578 544 559 513 559 c 2
 204 559 l 1
 176 560 170 577 170 588 c 0
EndSplineSet
EndChar

StartChar: dotaccent
Encoding: 729 729 60
Width: 525
Flags: HW
TeX: 610 0
ItalicCorrection: 115
HStem: 511 100<342.852 420.537>
VStem: 331 101<522.76 599.049>
LayerCount: 2
Fore
SplineSet
331 557 m 0
 331 588 359 611 385 611 c 0
 409 611 432 593 432 565 c 0
 432 538 408 511 378 511 c 0
 354 511 331 529 331 557 c 0
EndSplineSet
EndChar

StartChar: cedilla
Encoding: 184 184 61
Width: 525
Flags: HW
TeX: 0 194
ItalicCorrection: 115
HStem: -208 60<100.179 288.78> -68 125<233.031 295.422>
VStem: 220 80<-9.43678 49.8821> 229 71<-18.4518 54.9434> 307 71<-127.968 -74.6954>
LayerCount: 2
Fore
SplineSet
99 -179 m 0
 99 -163 109 -151 122 -148 c 0
 138 -145 307 -157 307 -99 c 0
 307 -85 293 -72 262 -68 c 0
 252 -67 220 -69 220 -37 c 0xe8
 220 -28 224 -15 229 18 c 0xd8
 232 36 235 57 264 57 c 2
 267 57 l 2
 293 57 300 43 300 26 c 0
 300 15 298 2 296 -10 c 1
 297 -11 378 -26 378 -97 c 0
 378 -136 354 -177 289 -195 c 0
 242 -208 180 -208 139 -208 c 2xe8
 135 -208 l 2
 125 -208 99 -208 99 -179 c 0
EndSplineSet
EndChar

StartChar: ogonek
Encoding: 731 731 62
Width: 525
Flags: HW
TeX: 0 222
ItalicCorrection: 115
HStem: -193 66<237.345 322.175>
VStem: 165 72<-125.63 -77.409>
LayerCount: 2
Fore
SplineSet
165 -112 m 0
 165 -23 296 9 343 42 c 0
 352 48 359 56 371 56 c 0
 388 56 399 42 399 28 c 0
 399 -17 237 -60 237 -108 c 0
 237 -117 249 -127 268 -127 c 0
 327 -127 352 -59 380 -59 c 0
 394 -59 411 -73 411 -90 c 0
 411 -112 343 -193 261 -193 c 0
 210 -193 165 -160 165 -112 c 0
EndSplineSet
EndChar

StartChar: guilsinglleft
Encoding: 8249 8249 64
Width: 525
Flags: HW
TeX: 438 0
ItalicCorrection: 115
HStem: 0 21G<360 377> 419 20G<426 438.5>
DStem2: 184 217 121 191 0.775102 -0.631836<0 278.445> 124 249 184 217 0.841082 0.540908<33.1559 360.592>
LayerCount: 2
Fore
SplineSet
102 220 m 0
 102 238 121 247 124 249 c 2
 407 431 l 2
 416 436 421 439 431 439 c 0
 446 439 461 428 461 411 c 0
 461 396 451 388 442 382 c 2
 184 217 l 1
 374 61 l 2
 382 54 398 45 398 28 c 0
 398 15 387 0 367 0 c 0
 353 0 348 7 332 19 c 2
 121 191 l 2
 115 196 102 205 102 220 c 0
EndSplineSet
EndChar

StartChar: guilsinglright
Encoding: 8250 8250 65
Width: 525
Flags: HW
TeX: 438 0
ItalicCorrection: 115
HStem: 0 21G<155.5 171> 419 20G<220 238.5>
DStem2: 155 57 473 190 0.841082 0.540908<-21.1868 306.249> 265 420 223 378 0.776562 -0.630041<-38.5291 239.679>
LayerCount: 2
Fore
SplineSet
136 28 m 0
 136 43 146 51 155 57 c 2
 368 193 l 2
 383 203 398 213 413 222 c 1
 223 378 l 2
 215 385 199 394 199 411 c 0
 199 424 210 439 230 439 c 0
 247 439 258 426 265 420 c 2
 477 248 l 2
 489 238 494 230 494 219 c 0
 494 201 476 192 473 190 c 2
 190 8 l 2
 182 3 176 0 166 0 c 0
 145 0 136 17 136 28 c 0
EndSplineSet
EndChar

StartChar: quotedblleft
Encoding: 8220 8220 66
Width: 525
Flags: HW
TeX: 610 0
ItalicCorrection: 115
HStem: 347 125<154 204.719 490 541.719> 590 20G<210.5 240 547.5 577>
VStem: 82 142<369.981 458.754> 419 142<369.981 458.754>
LayerCount: 2
Fore
SplineSet
82 431 m 0
 82 532 190 610 231 610 c 0
 249 610 262 593 262 579 c 0
 262 538 200 564 154 471 c 1
 158 471 161 472 165 472 c 2
 167 472 l 2
 202 472 224 447 224 416 c 0
 224 382 197 347 155 347 c 0
 111 347 82 384 82 431 c 0
419 431 m 0
 419 532 527 610 568 610 c 0
 586 610 598 593 598 579 c 0
 598 539 535 562 490 471 c 1
 494 471 498 472 502 472 c 2
 504 472 l 2
 539 472 561 447 561 416 c 0
 561 382 534 347 492 347 c 0
 448 347 419 384 419 431 c 0
EndSplineSet
EndChar

StartChar: quotedblright
Encoding: 8221 8221 67
Width: 525
Flags: HW
TeX: 610 0
ItalicCorrection: 115
HStem: 486 125<141.281 193 478.281 529>
VStem: 122 142<498.657 587.99> 459 142<499.452 587.99>
LayerCount: 2
Fore
SplineSet
85 378 m 0
 85 418 151 398 193 487 c 1
 189 487 185 486 181 486 c 2
 179 486 l 2
 144 486 122 511 122 542 c 0
 122 576 149 611 191 611 c 0
 238 611 264 570 264 527 c 0
 264 478 228 389 134 352 c 0
 128 350 121 347 115 347 c 0
 97 347 85 365 85 378 c 0
421 379 m 0
 421 420 487 397 529 487 c 1
 525 487 522 486 518 486 c 2
 516 486 l 2
 481 486 459 511 459 542 c 0
 459 576 486 611 528 611 c 0
 575 611 601 570 601 527 c 0
 601 427 494 347 452 347 c 0
 435 347 421 363 421 379 c 0
EndSplineSet
EndChar

StartChar: quotedblbase
Encoding: 8222 8222 68
Width: 525
Flags: HW
TeX: 124 138
ItalicCorrection: 115
HStem: -138 21G<25 37 363 374> 0 125<59.75 112 396.866 448>
VStem: 41 142<12.8467 102.139> 378 142<12.8467 102.139>
LayerCount: 2
Fore
SplineSet
4 -107 m 0
 4 -67 67 -89 112 1 c 1
 108 1 105 0 101 0 c 2
 99 0 l 2
 63 0 41 26 41 57 c 0
 41 91 68 125 110 125 c 0
 154 125 183 88 183 42 c 0
 183 -2 152 -94 53 -134 c 0
 47 -136 40 -138 34 -138 c 0
 16 -138 4 -120 4 -107 c 0
340 -107 m 0
 340 -68 403 -89 448 1 c 1
 444 1 442 0 438 0 c 2
 435 0 l 2
 399 0 378 26 378 57 c 0
 378 91 405 125 447 125 c 0
 491 125 520 88 520 42 c 0
 520 -2 489 -94 390 -134 c 0
 384 -136 377 -138 371 -138 c 0
 355 -138 340 -123 340 -107 c 0
EndSplineSet
EndChar

StartChar: dotlessi
Encoding: 305 305 74
Width: 525
Flags: HW
TeX: 430 0
ItalicCorrection: 115
HStem: 0 61<116 250 124 250 320 419> 370 61<186 336 194 301>
AnchorPoint: "below" 274 0 basechar 0
AnchorPoint: "above" 347 440 basechar 0
LayerCount: 2
Fore
SplineSet
83 29 m 0
 83 61 109 61 124 61 c 2
 250 61 l 1
 301 370 l 1
 193 370 l 2
 179 370 153 370 153 399 c 0
 153 431 178 431 194 431 c 2
 336 431 l 2
 350 431 376 431 376 402 c 0
 376 398 376 397 373 381 c 2
 320 61 l 1
 420 61 l 2
 434 61 460 61 460 32 c 0
 460 0 434 0 419 0 c 2
 123 0 l 2
 109 0 83 0 83 29 c 0
EndSplineSet
EndChar

StartChar: dotlessj
Encoding: 567 567 75
Width: 525
Flags: HW
TeX: 430 222
ItalicCorrection: 115
HStem: -228 61<154 171 154 232> 370 61<229.5 395 237 360>
VStem: 22 89<-164 -159.5 -164 -139>
AnchorPoint: "below" 207 -222 basechar 0
AnchorPoint: "above" 406 440 basechar 0
LayerCount: 2
Fore
SplineSet
22 -159 m 0
 22 -119 53 -106 70 -106 c 0
 88 -106 112 -119 112 -148 c 0
 112 -158 111 -158 111 -161 c 0
 111 -167 149 -167 159 -167 c 0
 183 -167 216 -167 252 -127 c 1
 274 -101 287 -68 292 -40 c 2
 360 370 l 1
 236 370 l 2
 223 370 195 370 195 398 c 0
 195 431 222 431 237 431 c 2
 395 431 l 2
 409 431 435 431 435 402 c 0
 435 399 435 397 432 381 c 2
 361 -48 l 2
 354 -89 310 -228 154 -228 c 0
 114 -228 22 -228 22 -159 c 0
EndSplineSet
EndChar

StartChar: ff
Encoding: 64256 64256 76
Width: 525
Flags: HW
TeX: 610 0
ItalicCorrection: 115
HStem: -0 62<15.3265 99 170 239.577 268.266 349 420 513.786> 369 61<92.3719 150 231 322.741 481 572.45> 555 61<284.858 413.642 518.027 583.196>
DStem2: 88.6693 -0 159.669 -0 0.164359 0.986401<74.5243 374.062 447.546 545.038> 338.669 -0 409.669 -0 0.164359 0.986401<74.5243 385.567 447.546 522.35>
LayerCount: 2
Fore
SplineSet
14 29 m 0
 14 60 38 62 51 62 c 0
 67 62 83 62 99 62 c 1
 150 369 l 1
 127 369 l 2
 111 369 91 373 91 398 c 0
 91 428 116 430 126 430 c 2
 160 430 l 1
 161 431 l 1
 172 514 178 522 191 539 c 0
 213 568 274 616 387 616 c 0
 455 616 473 602 486 589 c 1
 514 606 542 616 580 616 c 0
 649 616 665 582 665 559 c 0
 665 531 644 513 620 513 c 0
 607 513 582 519 579 555 c 1
 488 554 488 469 481 430 c 1
 530 430 l 2
 539 430 550 431 558 427 c 0
 567 422 574 414 574 401 c 0
 574 390 569 370 539 369 c 1
 470 369 l 1
 420 62 l 1
 471 62 l 2
 480 62 491 63 500 58 c 0
 509 53 515 44 515 32 c 0
 515 16 508 0 479 -0 c 2
 303 -0 l 2
 272 0 267 17 267 29 c 0
 267 60 289 62 309 62 c 2
 349 62 l 1
 422 501 l 1
 426 515 l 1
 420 522 414 528 414 543 c 0
 414 546 415 549 415 553 c 1
 403 554 391 555 379 555 c 0
 299 555 258 519 246 499 c 0
 239 487 240 478 231 430 c 1
 280 430 l 2
 289 430 300 431 308 427 c 0
 317 422 324 414 324 401 c 0
 324 390 320 370 290 369 c 1
 221 369 l 1
 170 62 l 1
 202 62 l 2
 218 62 241 60 241 32 c 0
 241 2 215 0 206 -0 c 2
 50 -0 l 2
 37 0 14 1 14 29 c 0
EndSplineSet
Ligature2: "Latin ligatures subtable" f f
EndChar

StartChar: fi
Encoding: 64257 64257 77
Width: 525
Flags: HW
TeX: 610 0
ItalicCorrection: 115
HStem: 0 62<17.3321 105 176 251.808 281.452 368 438 516.56> 369 61<93.4257 157 238 419> 555 61<294.43 429.312>
VStem: 427 90<498.334 549.719>
DStem2: 94.6693 0 165.669 0 0.164359 0.986401<74.5243 374.226 447.71 543.664> 357.669 0 427.669 0 0.164359 0.986401<74.3599 374.062>
LayerCount: 2
Fore
SplineSet
16 29 m 0
 16 60 40 62 55 62 c 2
 105 62 l 1
 157 369 l 1
 127 369 l 2
 118 369 92 370 92 398 c 0
 92 428 118 430 128 430 c 2
 167 430 l 1
 167 431 l 1
 178 510 185 518 187 523 c 0
 221 587 319 616 397 616 c 0
 467 616 517 594 517 542 c 0
 517 513 497 490 469 490 c 0
 444 490 427 509 427 531 c 0
 427 538 429 544 431 550 c 1
 418 553 404 555 389 555 c 0
 327 555 260 527 248 490 c 0
 244 479 246 471 238 430 c 1
 455 430 l 2
 485 430 494 420 494 401 c 0
 494 396 493 391 492 385 c 2
 438 62 l 1
 477 62 l 2
 492 62 518 61 518 32 c 0
 518 16 510 0 480 0 c 2
 316 0 l 2
 285 0 280 17 280 29 c 0
 280 59 305 62 318 62 c 2
 368 62 l 1
 419 369 l 1
 227 369 l 1
 176 62 l 1
 217 62 l 2
 229 62 253 60 253 32 c 0
 253 6 236 0 216 0 c 2
 51 0 l 2
 20 0 16 17 16 29 c 0
EndSplineSet
Ligature2: "Latin ligatures excepting Turkic subtable" f i
EndChar

StartChar: fl
Encoding: 64258 64258 78
Width: 525
Flags: HW
TeX: 610 0
ItalicCorrection: 115
HStem: 0 62<17.3321 105 176 251.808 281.452 368 438 516.56> 369 61<93.3747 157 238 419> 555 60<293.733 374 376 435 437 438.682>
VStem: 443 81<482.096 590>
DStem2: 94.6693 0 165.669 0 0.164359 0.986401<74.5243 374.226 447.71 543.483> 357.669 0 427.669 0 0.164359 0.986401<74.3599 374.062 435.876 525.812>
LayerCount: 2
Fore
SplineSet
16 29 m 0
 16 60 40 62 55 62 c 2
 105 62 l 1
 157 369 l 1
 127 369 l 2
 118 369 92 370 92 398 c 0
 92 428 117 430 128 430 c 2
 167 430 l 1
 167 433 l 1
 180 509 180 510 189 526 c 0
 205 554 255 602 357 614 c 1
 359 614 l 1
 365 615 l 1
 374 615 l 1
 376 616 l 1
 435 616 l 1
 437 615 l 1
 441 615 l 1
 467 611 478 610 483 610 c 0
 486 610 487 611 487 611 c 2
 488 611 488 610 488 610 c 1
 494 610 l 2
 513 610 524 598 524 582 c 0
 524 578 524 573 523 569 c 2
 438 62 l 1
 477 62 l 2
 492 62 518 61 518 32 c 0
 518 16 510 0 480 0 c 2
 316 0 l 2
 285 0 280 17 280 29 c 0
 280 59 305 62 318 62 c 2
 368 62 l 1
 419 369 l 1
 227 369 l 1
 176 62 l 1
 217 62 l 2
 229 62 253 60 253 32 c 0
 253 6 236 0 216 0 c 2
 51 0 l 2
 20 0 16 17 16 29 c 0
238 430 m 1
 429 430 l 1
 429 430 443 517 443 519 c 0
 443 526 436 535 434 553 c 1
 421 554 408 555 395 555 c 2
 393 555 l 2
 309 555 265 520 252 499 c 0
 245 488 245 472 238 430 c 1
EndSplineSet
Ligature2: "Latin ligatures subtable" f l
EndChar

StartChar: ffi
Encoding: 64259 64259 79
Width: 525
Flags: HW
TeX: 610 0
ItalicCorrection: 115
HStem: 0 62<2.46091 62 133 168.631 190.752 237 308 343.553 364.659 412 482 531.653> 369 61<84.1406 113 194 288 369 463> 554 62<233.785 301.51 409.179 475.335>
VStem: 1 169<1.61506 60.1112> 189 156<1.5942 60.3646> 363 170<1.81934 59.8972> 472 89<498.402 552.248>
DStem2: 51.6693 0 122.669 0 0.164359 0.986401<74.5243 374.062 447.546 554.339> 226.669 0 297.669 0 0.164359 0.986401<74.5243 374.062 447.546 533.845>
LayerCount: 2
Fore
SplineSet
1 29 m 0
 1 59 26 62 36 62 c 2
 62 62 l 1
 113 369 l 1
 93 370 83 384 83 399 c 0
 83 429 109 430 121 430 c 2
 123 430 l 1
 124 431 l 1
 134 502 139 536 180 572 c 0
 208 597 250 616 298 616 c 0
 336 616 356 602 372 585 c 1
 397 602 433 616 473 616 c 0
 523 616 561 587 561 542 c 0
 561 506 534 490 514 490 c 0
 490 490 472 509 472 532 c 0xfa
 472 541 475 548 477 554 c 1
 468 554 l 2
 420 554 391 519 383 499 c 0
 378 486 376 471 369 430 c 1
 503 430 l 2
 530 430 538 419 538 401 c 0
 538 396 537 390 536 385 c 2
 489 99 l 2
 487 87 484 74 482 62 c 1
 497 62 l 2
 528 62 533 44 533 32 c 0
 533 17 526 0 497 0 c 2
 398 0 l 2
 367 0 363 19 363 29 c 0xfc
 363 40 368 62 399 62 c 2
 412 62 l 1
 463 369 l 1
 359 369 l 1
 308 62 l 1
 311 62 l 2
 342 62 345 44 345 33 c 0
 345 19 339 0 310 0 c 2
 227 0 l 2
 215 0 189 1 189 29 c 0
 189 42 196 62 222 62 c 2
 237 62 l 1
 288 369 l 1
 184 369 l 1
 133 62 l 1
 136 62 l 2
 145 62 170 60 170 32 c 0
 170 18 164 0 135 0 c 2
 36 0 l 2
 5 0 1 20 1 29 c 0
194 430 m 1
 298 430 l 1
 310 500 l 1
 301 510 297 519 297 530 c 0xf8
 297 536 298 544 302 554 c 1
 293 554 l 2
 249 554 218 524 208 500 c 0
 203 487 201 472 194 430 c 1
EndSplineSet
Ligature2: "Latin ligatures excepting Turkic subtable" ff i
Ligature2: "Latin ligatures excepting Turkic subtable" f f i
EndChar

StartChar: ffl
Encoding: 64260 64260 80
Width: 525
Flags: HW
TeX: 610 0
ItalicCorrection: 115
HStem: 0 62<2.46091 62 133 168.631 190.752 237 308 343.553 364.659 412 482 531.703> 369 61<84.1406 113 194 288 369 463> 554 62<234.72 304 408.214 483.75>
VStem: 1 169<1.61506 60.1112> 189 156<1.5942 60.3646> 363 170<1.9248 59.8745> 488 80<482.096 590>
DStem2: 51.6693 0 122.669 0 0.164359 0.986401<74.5243 374.062 447.546 555.167> 226.669 0 297.669 0 0.164359 0.986401<74.5243 374.062 447.546 548.551> 401.669 0 471.669 0 0.164359 0.986401<74.3599 374.062 435.876 525.976>
LayerCount: 2
Fore
SplineSet
1 29 m 0
 1 59 26 62 36 62 c 2
 62 62 l 1
 113 369 l 1
 93 370 83 384 83 399 c 0
 83 429 109 430 121 430 c 2
 123 430 l 1
 124 431 l 1
 135 510 141 523 153 541 c 0
 184 589 245 616 299 616 c 0
 340 616 359 605 376 588 c 1
 381 593 417 612 460 616 c 1
 492 616 l 1
 494 615 l 1
 497 615 l 1
 520 612 516 611 525 611 c 2
 531 611 l 2
 532 611 532 610 532 610 c 1
 538 610 l 2
 558 610 568 598 568 582 c 0xfa
 568 578 568 573 567 569 c 2
 482 62 l 1
 497 62 l 2
 529 62 533 43 533 32 c 0
 533 20 528 0 497 0 c 2
 398 0 l 2
 367 0 363 19 363 29 c 0xfc
 363 40 368 62 399 62 c 2
 412 62 l 1
 463 369 l 1
 359 369 l 1
 308 62 l 1
 311 62 l 2
 342 62 345 44 345 33 c 0
 345 19 339 0 310 0 c 2
 227 0 l 2
 215 0 189 1 189 29 c 0
 189 42 196 62 222 62 c 2
 237 62 l 1
 288 369 l 1
 184 369 l 1
 133 62 l 1
 136 62 l 2
 145 62 170 60 170 32 c 0
 170 18 164 0 135 0 c 2
 36 0 l 2
 5 0 1 20 1 29 c 0
194 430 m 1
 298 430 l 1
 314 515 l 1
 308 523 303 531 303 544 c 0
 303 547 303 550 304 554 c 1
 293 554 l 2
 245 554 217 521 208 500 c 0
 202 487 201 472 194 430 c 1
369 430 m 1
 473 430 l 1
 473 430 488 517 488 519 c 0xfa
 488 530 480 532 478 554 c 1
 471 554 l 2
 375 554 375 463 369 430 c 1
EndSplineSet
Ligature2: "Latin ligatures subtable" ff l
Ligature2: "Latin ligatures subtable" f f l
EndChar

StartChar: uni2423
Encoding: 9251 9251 81
Width: 525
Flags: HW
TeX: 430 111
ItalicCorrection: 115
HStem: -133 43<72 422>
DStem2: 414.835 -133 459.168 -133 0.164359 0.986401<43.5928 366.871>
LayerCount: 2
Fore
SplineSet
26 -114 m 0
 26 -104 28 -96 29 -87 c 2
 80 215 l 1
 85 238 100 240 105 240 c 0
 115 240 124 233 124 222 c 0
 124 215 73 -87 72 -90 c 1
 422 -90 l 1
 473 215 l 1
 478 238 494 240 499 240 c 0
 505 240 517 237 517 222 c 0
 517 220 517 218 516 211 c 2
 465 -98 l 2
 462 -118 458 -133 430 -133 c 2
 51 -133 l 2
 45 -133 26 -133 26 -114 c 0
EndSplineSet
EndChar

StartChar: exclam
Encoding: 33 33 82
Width: 525
Flags: HW
TeX: 610 0
ItalicCorrection: 115
HStem: 0 125<229.057 314.888> 602 20G<354 376>
VStem: 209 126<20.125 104.875> 250 103<204.153 276.051> 291 127<500.436 601.45>
LayerCount: 2
Fore
SplineSet
250 232 m 0xd0
 250 238 251 245 252 251 c 2
 291 555 l 2
 299 614 347 622 361 622 c 0
 391 622 418 599 418 566 c 0xc8
 418 553 414 540 412 529 c 2
 353 242 l 2
 347 214 344 202 314 202 c 2
 285 202 l 2xd0
 258 202 250 216 250 232 c 0xd0
EndSplineSet
Refer: 95 46 S 1 0 0 1 -0 -0 3
EndChar

StartChar: quotedbl
Encoding: 34 34 83
Width: 525
Flags: HW
TeX: 610 0
ItalicCorrection: 115
HStem: 328 293<232.714 262.514 409.007 438.254>
VStem: 202 112<480.525 570.979> 202 64<329.792 455.32> 378 112<481.386 569.188>
LayerCount: 2
Fore
SplineSet
202 357 m 0xb0
 202 365 217 500 224 571 c 0
 228 614 258 621 272 621 c 0
 295 621 314 605 314 580 c 0xd0
 314 570 315 578 266 363 c 0xb0
 263 350 259 328 233 328 c 0
 216 328 202 339 202 357 c 0xb0
378 356 m 0
 378 370 383 409 399 558 c 0
 400 570 400 619 447 621 c 1
 448 621 l 2
 471 621 490 605 490 580 c 0
 490 570 491 579 442 364 c 0
 439 351 435 328 409 328 c 2
 408 328 l 2x90
 391 328 378 339 378 356 c 0
EndSplineSet
EndChar

StartChar: numbersign
Encoding: 35 35 84
Width: 525
Flags: HW
TeX: 610 0
ItalicCorrection: 115
HStem: 0 21G<132.5 145.5 311.5 324.5> 167 62<68.5176 149 232 327 411 519.515> 382 62<104.621 214 297 392 476 539.625> 590 20G<292 314 471 493>
VStem: 110 57<1.31836 85.0763> 288 58<1.57214 85.0763>
DStem2: 149 167 213 167 0.287781 0.957696<-138.16 0 83.263 224.61 307.873 449.081> 327 167 392 167 0.289942 0.957044<-137.733 0 83.6919 224.611 308.303 449.506>
LayerCount: 2
Fore
SplineSet
67 198 m 1
 68 227 92 229 107 229 c 2
 168 229 l 1
 214 382 l 1
 140 382 l 2
 114 382 103 397 103 412 c 0
 103 421 107 444 141 444 c 2
 233 444 l 1
 236 457 240 470 271 573 c 0
 273 578 278 610 306 610 c 0
 322 610 336 598 336 580 c 0
 336 574 338 578 297 444 c 1
 412 444 l 1
 415 457 419 470 450 573 c 0
 452 578 457 610 485 610 c 0
 501 610 515 598 515 580 c 0
 515 574 517 578 476 444 c 1
 515 444 l 2
 524 444 532 444 540 440 c 0
 550 435 557 424 557 414 c 0
 557 400 549 391 541 386 c 0
 532 381 520 382 510 382 c 2
 457 382 l 1
 411 229 l 1
 485 229 l 2
 509 229 521 214 521 198 c 0
 521 190 518 167 484 167 c 2
 392 167 l 1
 347 17 350 23 346 17 c 0
 340 7 330 0 319 0 c 0
 304 0 288 13 288 31 c 0
 288 44 312 111 327 167 c 1
 213 167 l 1
 168 17 171 23 167 17 c 0
 161 7 151 0 140 0 c 0
 125 0 110 13 110 31 c 0
 110 44 134 111 149 167 c 1
 109 167 l 2
 95 167 68 168 67 198 c 1
232 229 m 1
 347 229 l 1
 392 382 l 1
 278 382 l 1
 232 229 l 1
EndSplineSet
EndChar

StartChar: dollar
Encoding: 36 36 85
Width: 525
Flags: HW
TeX: 694 83
ItalicCorrection: 115
HStem: -4 64<303 359.106> 551 64<263.577 323>
VStem: 84 91<135.516 206.667> 132 65<392.394 493.426> 430 66<126.103 240.461> 471 72<432.774 529.18>
DStem2: 216.67 -83 278.837 -83 0.164359 0.986401<30.2048 81.103 155.244 374.224 448.206 642.854 718.255 767.987>
LayerCount: 2
Fore
SplineSet
84 143 m 0
 84 173 88 194 107 208 c 0
 115 213 125 216 134 216 c 0
 155 216 175 200 175 174 c 0xe8
 175 157 168 146 154 135 c 1
 158 82 199 64 240 58 c 1
 241 58 l 1
 279 289 l 1
 269 291 132 314 132 434 c 0
 132 507 196 598 333 615 c 1
 342 669 342 694 373 694 c 0
 390 694 403 682 403 665 c 0
 403 655 400 641 396 615 c 1
 397 614 543 607 543 477 c 0
 543 417 514 407 494 407 c 0
 471 407 452 425 452 449 c 0
 452 475 471 482 471 494 c 0xd4
 471 506 461 541 385 553 c 1
 351 346 l 1
 487 317 496 222 496 193 c 0xc8
 496 102 409 7 292 -4 c 1
 285 -53 284 -83 253 -83 c 0
 237 -83 223 -73 223 -54 c 0
 223 -42 226 -25 230 -3 c 1
 146 7 84 55 84 143 c 0
197 439 m 0xd0
 197 391 244 370 291 359 c 1
 323 551 l 1
 244 537 197 484 197 439 c 0xd0
303 60 m 1
 384 78 430 136 430 187 c 0xc8
 430 207 423 257 339 276 c 1
 303 60 l 1
EndSplineSet
EndChar

StartChar: percent
Encoding: 37 37 86
Width: 525
Flags: HW
TeX: 694 83
ItalicCorrection: 115
HStem: -83 62<390 403 390 422.5> 121 62<418 433> 427 62<194.5 208 194.5 227.5> 632 62<223.5 237.5>
VStem: 126 56<520.5 561.5 520.5 571.5> 249 56<561.5 595.5> 321 56<10 50 10 63> 444 56<51 83.5>
LayerCount: 2
Fore
SplineSet
79 -48 m 0
 79 -45 79 -38 87 -24 c 2
 476 667 l 2
 483 679 491 694 512 694 c 0
 531 694 547 678 547 659 c 0
 547 656 547 649 539 635 c 2
 148 -60 l 2
 141 -72 130 -83 114 -83 c 0
 94 -83 79 -66 79 -48 c 0
126 530 m 0
 126 613 175 694 233 694 c 0
 275 694 305 653 305 591 c 0
 305 509 257 427 198 427 c 0
 160 427 126 461 126 530 c 0
182 533 m 0
 182 508 190 489 199 489 c 0
 217 489 249 535 249 588 c 0
 249 603 244 632 231 632 c 0
 216 632 182 590 182 533 c 0
321 20 m 0
 321 106 373 183 427 183 c 0
 470 183 500 141 500 80 c 0
 500 0 452 -83 393 -83 c 0
 356 -83 321 -50 321 20 c 0
377 23 m 0
 377 -3 386 -21 394 -21 c 0
 412 -21 444 24 444 78 c 0
 444 89 440 121 426 121 c 0
 410 121 377 77 377 23 c 0
EndSplineSet
EndChar

StartChar: ampersand
Encoding: 38 38 87
Width: 525
Flags: HW
TeX: 610 0
ItalicCorrection: 115
HStem: -11 61<139.5 173.5 139.5 180.5 385 409> 370 61<401.5 517 482 516 482 482> 561 61<299.5 313.5>
VStem: 49 69<97.5 143.5 97.5 156> 177 56<402.5 478 402.5 504> 326 57<500 529.5>
LayerCount: 2
Fore
SplineSet
49 112 m 0
 49 200 94 239 184 318 c 1
 177 357 177 387 177 403 c 0
 177 605 280 622 306 622 c 0
 354 622 383 586 383 521 c 0
 383 446 356 393 246 294 c 1
 254 262 274 205 297 160 c 1
 340 222 401 336 418 370 c 1
 385 370 384 394 384 398 c 0
 384 431 410 431 425 431 c 2
 517 431 l 2
 531 431 557 431 557 402 c 0
 557 370 531 370 516 370 c 2
 482 370 l 1
 422 256 376 172 326 103 c 1
 343 78 367 50 395 50 c 0
 423 50 442 82 449 109 c 0
 451 118 455 138 477 138 c 0
 485 138 505 132 505 109 c 0
 505 82 472 -11 395 -11 c 0
 375 -11 331 -6 288 59 c 1
 256 25 208 -11 153 -11 c 0
 97 -11 49 32 49 112 c 0
118 110 m 0
 118 85 123 50 156 50 c 0
 191 50 233 81 257 111 c 1
 241 144 213 209 200 251 c 1
 146 202 118 177 118 110 c 0
233 404 m 0
 233 401 233 368 235 368 c 0
 240 368 278 410 292 428 c 0
 321 464 326 484 326 516 c 0
 326 543 322 561 305 561 c 0
 294 561 233 552 233 404 c 0
EndSplineSet
EndChar

StartChar: quoteright
Encoding: 8217 8217 88
Width: 525
Flags: HW
TeX: 610 0
ItalicCorrection: 115
HStem: 486 125<308.865 373.67>
VStem: 290 148<500.272 582.862>
LayerCount: 2
Fore
SplineSet
231 309 m 0
 231 329 250 336 262 342 c 0
 314 370 359 420 374 490 c 1
 367 487 357 486 347 486 c 0
 316 486 290 508 290 542 c 0
 290 576 317 611 359 611 c 0
 406 611 438 571 438 513 c 0
 438 376 297 278 262 278 c 0
 246 278 231 293 231 309 c 0
EndSplineSet
EndChar

StartChar: parenleft
Encoding: 40 40 89
Width: 525
Flags: HW
TeX: 694 83
ItalicCorrection: 115
HStem: -82 21<383 409.5> 674 20<498 529>
VStem: 218 69<215 273.5 197.5 379.5>
LayerCount: 2
Fore
SplineSet
218 236 m 0
 218 523 478 694 518 694 c 0
 540 694 548 678 548 666 c 0
 548 652 539 645 533 641 c 0
 316 511 287 314 287 233 c 0
 287 162 306 52 408 -25 c 0
 420 -34 428 -40 428 -54 c 0
 428 -62 422 -82 397 -82 c 0
 369 -82 310 -22 282 18 c 0
 223 106 218 194 218 236 c 0
EndSplineSet
EndChar

StartChar: parenright
Encoding: 41 41 90
Width: 525
Flags: HW
TeX: 694 83
ItalicCorrection: 115
HStem: -82 21<97 128.5> 674 20<217.5 244>
VStem: 340 69<339 397.5 231.5 414.5>
LayerCount: 2
Fore
SplineSet
79 -54 m 0
 79 -40 88 -33 94 -29 c 0
 312 102 340 299 340 379 c 0
 340 450 321 560 219 637 c 0
 207 646 199 652 199 666 c 0
 199 674 205 694 230 694 c 0
 258 694 318 633 345 594 c 1
 403 506 409 419 409 376 c 0
 409 87 147 -82 110 -82 c 0
 84 -82 79 -62 79 -54 c 0
EndSplineSet
EndChar

StartChar: asterisk
Encoding: 42 42 91
Width: 525
Flags: HW
TeX: 520 0
ItalicCorrection: 115
HStem: 90 21<269.5 282.5> 501 20<344 358>
VStem: 104 421
LayerCount: 2
Fore
SplineSet
104 209 m 0
 104 230 121 241 133 247 c 2
 252 305 l 1
 153 364 l 2
 140 371 134 378 134 392 c 0
 134 410 151 430 173 430 c 0
 178 430 183 430 196 421 c 2
 291 357 l 1
 309 481 l 2
 314 516 339 521 349 521 c 0
 367 521 377 507 377 494 c 0
 377 489 377 487 375 479 c 2
 352 357 l 1
 471 422 l 2
 482 428 485 430 494 430 c 0
 508 430 522 422 522 402 c 0
 522 379 504 370 492 364 c 2
 374 306 l 1
 474 246 l 2
 483 241 492 235 492 219 c 0
 492 201 475 181 453 181 c 0
 448 181 443 181 430 190 c 2
 334 254 l 1
 325 188 l 2
 324 179 317 130 316 125 c 0
 311 97 288 90 277 90 c 0
 262 90 249 100 249 117 c 0
 249 122 249 124 252 138 c 2
 274 254 l 1
 151 186 l 2
 149 185 142 181 132 181 c 0
 109 181 104 200 104 209 c 0
EndSplineSet
EndChar

StartChar: plus
Encoding: 43 43 92
Width: 525
Flags: HW
TeX: 530 -80
ItalicCorrection: 115
HStem: 275 62<90.5625 277 350 535.56>
VStem: 313 63<365.788 528.11>
DStem2: 244.675 81 306.675 81 0.164359 0.986401<32.7998 196.675 269.83 435.445>
LayerCount: 2
Fore
SplineSet
89 306 m 0
 89 319 98 330 108 334 c 0
 118 338 128 337 138 337 c 2
 287 337 l 1
 289 353 292 367 313 492 c 0
 313 495 315 530 345 530 c 0
 363 530 376 514 376 501 c 0
 376 492 372 468 350 337 c 1
 496 337 l 2
 511 337 537 334 537 305 c 0
 537 297 534 275 500 275 c 2
 339 275 l 1
 311 91 311 81 280 81 c 0
 264 81 250 94 250 113 c 0
 250 121 250 114 277 275 c 1
 127 275 l 2
 93 275 89 296 89 306 c 0
EndSplineSet
EndChar

StartChar: comma
Encoding: 44 44 93
Width: 525
Flags: HW
TeX: 124 138
ItalicCorrection: 115
HStem: -139 21<183.5 217> 0 125<257.5 271>
VStem: 210 142<39 63.5 -10 73>
LayerCount: 2
Fore
SplineSet
162 -107 m 0
 162 -87 181 -81 187 -80 c 1
 204 -74 252 -60 280 1 c 1
 277 0 275 0 267 0 c 0
 236 0 210 21 210 57 c 0
 210 89 236 125 279 125 c 0
 324 125 352 86 352 41 c 0
 352 -61 240 -139 194 -139 c 0
 173 -139 162 -119 162 -107 c 0
EndSplineSet
EndChar

StartChar: hyphen
Encoding: 45 45 94
Width: 525
Flags: HW
TeX: 430 0
ItalicCorrection: 115
HStem: 185 61<123.654 470.641>
LayerCount: 2
Fore
SplineSet
122 213 m 0
 122 224 127 246 158 246 c 2
 439 246 l 2
 466 246 472 229 472 217 c 0
 472 206 468 185 436 185 c 2
 155 185 l 1
 126 186 122 204 122 213 c 0
EndSplineSet
EndChar

StartChar: period
Encoding: 46 46 95
Width: 525
Flags: HW
TeX: 124 0
ItalicCorrection: 115
HStem: 0 125<229.057 314.888>
VStem: 209 126<20.125 104.875>
LayerCount: 2
Fore
SplineSet
209 57 m 0
 209 94 242 125 278 125 c 0
 311 125 335 100 335 68 c 0
 335 31 301 0 267 0 c 0
 235 0 209 23 209 57 c 0
EndSplineSet
EndChar

StartChar: slash
Encoding: 47 47 96
Width: 525
Flags: HW
TeX: 694 83
ItalicCorrection: 115
DStem2: 63 -22 114 -57 0.545456 0.83814<-33.1068 854.31>
LayerCount: 2
Fore
SplineSet
49 -53 m 0
 49 -40 58 -31 63 -22 c 2
 513 670 l 2
 520 681 528 694 545 694 c 0
 561 694 576 682 576 664 c 0
 576 652 569 642 565 636 c 2
 114 -57 l 2
 108 -66 98 -83 79 -83 c 0
 63 -83 49 -69 49 -53 c 0
EndSplineSet
EndChar

StartChar: zero
Encoding: 48 48 97
Width: 525
Flags: HW
TeX: 610 0
ItalicCorrection: 115
HStem: -11 61<237 320.5 237 328.5> 561 61<311.5 391>
VStem: 94 71<185.5 329 185.5 329.5> 464 68<310 430>
LayerCount: 2
Fore
SplineSet
94 227 m 0
 94 432 230 622 366 622 c 0
 468 622 532 513 532 384 c 0
 532 181 397 -11 260 -11 c 0
 160 -11 94 95 94 227 c 0
165 237 m 0
 165 134 204 50 270 50 c 0
 371 50 464 235 464 385 c 0
 464 475 427 561 355 561 c 0
 268 561 165 421 165 237 c 0
EndSplineSet
Substitution2: "LGC old numerals subtable" zerooldstyle
EndChar

StartChar: one
Encoding: 49 49 98
Width: 525
Flags: HW
TeX: 610 0
ItalicCorrection: 115
HStem: 0 61<149.5 252 157 252 322 406> 439 61 602 20<371.5 390.5>
LayerCount: 2
Fore
SplineSet
115 28 m 0
 115 61 142 61 157 61 c 2
 252 61 l 1
 321 479 l 1
 291 457 252 439 215 439 c 0
 189 439 183 456 183 467 c 0
 183 497 204 499 219 500 c 0
 291 506 337 580 352 605 c 0
 356 611 363 622 380 622 c 0
 401 622 410 607 410 593 c 0
 410 591 409 586 408 580 c 2
 322 61 l 1
 407 61 l 2
 420 61 448 61 448 33 c 0
 448 0 422 0 406 0 c 2
 156 0 l 2
 143 0 115 0 115 28 c 0
EndSplineSet
Substitution2: "LGC old numerals subtable" oneoldstyle
EndChar

StartChar: two
Encoding: 50 50 99
Width: 525
Flags: HW
TeX: 610 0
ItalicCorrection: 115
HStem: 0 61<178 413 178 436> 561 61<310.5 375.5>
VStem: 127 90<442.5 460 442.5 479.5> 476 70<412.5 491.5>
LayerCount: 2
Fore
SplineSet
57 29 m 0
 57 43 62 51 77 62 c 2
 342 256 l 2
 359 269 476 354 476 454 c 0
 476 529 409 561 342 561 c 0
 279 561 230 523 207 482 c 1
 211 477 217 465 217 455 c 0
 217 430 196 407 169 407 c 0
 147 407 127 424 127 449 c 0
 127 510 206 622 348 622 c 0
 470 622 546 550 546 455 c 0
 546 370 491 287 375 203 c 2
 178 61 l 1
 413 61 l 1
 415 108 437 108 451 108 c 0
 466 108 485 103 485 79 c 0
 485 71 479 34 477 24 c 0
 471 0 453 0 436 0 c 2
 97 0 l 2
 83 0 57 0 57 29 c 0
EndSplineSet
Substitution2: "LGC old numerals subtable" twooldstyle
EndChar

StartChar: three
Encoding: 51 51 100
Width: 525
Flags: HW
TeX: 610 0
ItalicCorrection: 115
HStem: -11 61<259.5 318 259.5 337> 299 60 561 61<354.5 392>
VStem: 66 90<74 155> 442 69<161.5 219>
LayerCount: 2
Fore
SplineSet
66 122 m 0
 66 132 66 183 114 183 c 0
 136 183 156 168 156 142 c 0
 156 119 142 107 138 104 c 1
 163 52 251 50 268 50 c 0
 368 50 442 127 442 196 c 0
 442 242 409 299 316 299 c 2
 270 299 l 2
 256 299 230 299 230 328 c 0
 230 358 244 359 303 363 c 0
 337 365 367 367 404 394 c 0
 442 423 463 466 463 495 c 0
 463 534 422 561 362 561 c 0
 347 561 277 560 241 526 c 0
 241 525 246 518 246 506 c 0
 246 477 222 458 199 458 c 0
 188 458 157 465 157 500 c 0
 157 551 211 622 362 622 c 0
 479 622 533 554 533 495 c 0
 533 469 516 384 423 332 c 1
 483 300 511 246 511 195 c 0
 511 95 407 -11 267 -11 c 0
 172 -11 66 26 66 122 c 0
EndSplineSet
Substitution2: "LGC old numerals subtable" threeoldstyle
EndChar

StartChar: four
Encoding: 52 52 101
Width: 525
Flags: HW
TeX: 610 0
ItalicCorrection: 115
HStem: 0 61<257 331 265 331 388 443> 169 61<95 359 137 349 415 487 137 406> 603 20<412 440 440 448.5>
LayerCount: 2
Fore
SplineSet
62 198 m 0
 62 214 67 228 77 241 c 2
 369 605 l 2
 383 623 390 623 412 623 c 2
 440 623 l 2
 457 623 475 623 477 599 c 1
 415 230 l 1
 488 230 l 2
 501 230 529 230 529 202 c 0
 529 169 502 169 487 169 c 2
 406 169 l 1
 388 61 l 1
 444 61 l 2
 457 61 485 61 485 33 c 0
 485 0 458 0 443 0 c 2
 264 0 l 2
 250 0 224 0 224 29 c 0
 224 61 249 61 265 61 c 2
 331 61 l 1
 349 169 l 1
 102 169 l 2
 88 169 62 169 62 198 c 0
137 230 m 1
 359 230 l 1
 417 577 l 1
 416 577 l 1
 137 230 l 1
EndSplineSet
Substitution2: "LGC old numerals subtable" fouroldstyle
EndChar

StartChar: five
Encoding: 53 53 102
Width: 525
Flags: HW
TeX: 610 0
ItalicCorrection: 115
HStem: -11 61<231 297.5 231 316> 328 61<323.5 371> 550 61<249 249 249 493>
VStem: 75 91<84 158> 437 69<171 246.5>
LayerCount: 2
Fore
SplineSet
75 128 m 0
 75 138 75 190 123 190 c 0
 152 190 166 167 166 149 c 0
 166 133 156 117 146 110 c 1
 160 66 210 50 252 50 c 0
 343 50 437 123 437 219 c 0
 437 274 406 328 336 328 c 0
 306 328 244 323 197 275 c 0
 188 266 185 263 169 263 c 0
 146 263 137 277 137 292 c 0
 137 296 137 298 140 315 c 2
 183 575 l 2
 189 610 201 611 226 611 c 2
 494 611 l 2
 508 611 534 611 534 582 c 0
 534 550 508 550 493 550 c 2
 249 550 l 1
 218 363 l 1
 266 385 310 389 337 389 c 0
 441 389 506 312 506 218 c 0
 506 90 381 -11 251 -11 c 0
 158 -11 75 40 75 128 c 0
EndSplineSet
Substitution2: "LGC old numerals subtable" fiveoldstyle
EndChar

StartChar: six
Encoding: 54 54 103
Width: 525
Flags: HW
TeX: 610 0
ItalicCorrection: 115
HStem: -11 61<254 307.5 254 324.5> 334 62<304 371> 561 61<370.5 424>
VStem: 94 74<193 206 193 341> 437 69<174 244.5>
LayerCount: 2
Fore
SplineSet
94 205 m 0
 94 477 275 622 420 622 c 0
 491 622 541 590 541 530 c 0
 541 485 515 472 493 472 c 0
 466 472 451 490 451 513 c 0
 451 536 460 543 466 548 c 1
 451 560 430 561 418 561 c 0
 323 561 218 469 182 342 c 1
 220 372 274 396 334 396 c 0
 450 396 506 302 506 227 c 0
 506 85 382 -11 267 -11 c 0
 171 -11 94 56 94 205 c 0
164 175 m 0
 164 149 175 110 190 88 c 0
 211 59 240 50 268 50 c 0
 347 50 437 122 437 226 c 0
 437 263 414 334 328 334 c 0
 260 334 217 295 212 290 c 0
 168 250 168 219 168 193 c 1
 164 181 164 179 164 175 c 0
EndSplineSet
Substitution2: "LGC old numerals subtable" sixoldstyle
EndChar

StartChar: seven
Encoding: 55 55 104
Width: 525
Flags: HW
TeX: 610 0
ItalicCorrection: 115
HStem: -11 21<199 222> 550 61<210 465 205 537>
LayerCount: 2
Fore
SplineSet
133 532 m 0
 133 541 140 581 142 593 c 0
 145 611 148 627 178 627 c 0
 185 627 203 627 210 611 c 1
 537 611 l 2
 551 611 577 611 577 582 c 0
 577 572 573 564 571 561 c 1
 567 558 550 543 540 534 c 0
 387 404 283 226 244 29 c 0
 241 13 237 -11 207 -11 c 0
 191 -11 174 1 174 23 c 0
 174 28 191 166 282 324 c 1
 361 458 461 547 465 550 c 1
 205 550 l 1
 203 503 181 503 167 503 c 0
 152 503 133 508 133 532 c 0
EndSplineSet
Substitution2: "LGC old numerals subtable" sevenoldstyle
EndChar

StartChar: eight
Encoding: 56 56 105
Width: 525
Flags: HW
TeX: 610 0
ItalicCorrection: 115
HStem: -11 61<234 316.5 234 332> 299 61<291 356> 561 61<314 393.5>
VStem: 71 70<126 194.5 126 196> 442 69<155.5 216.5>
LayerCount: 2
Fore
SplineSet
71 149 m 0
 71 243 159 308 238 329 c 1
 231 331 133 364 133 445 c 0
 133 525 231 622 365 622 c 0
 475 622 545 556 545 481 c 0
 545 406 472 352 396 330 c 1
 475 304 511 249 511 195 c 0
 511 101 404 -11 260 -11 c 0
 150 -11 71 58 71 149 c 0
141 158 m 0
 141 94 197 50 271 50 c 0
 362 50 442 119 442 192 c 0
 442 241 401 299 311 299 c 0
 219 299 141 231 141 158 c 0
203 449 m 0
 203 393 260 360 322 360 c 0
 403 360 475 414 475 473 c 0
 475 517 432 561 355 561 c 0
 273 561 203 507 203 449 c 0
EndSplineSet
Substitution2: "LGC old numerals subtable" eightoldstyle
EndChar

StartChar: nine
Encoding: 57 57 106
Width: 525
Flags: HW
TeX: 610 0
ItalicCorrection: 115
HStem: -11 61<216.5 263.5 216.5 292.5> 215 62<254.5 317> 561 61<324 412.5>
VStem: 120 69<366.5 439 366.5 457> 462 70<435 437.5>
LayerCount: 2
Fore
SplineSet
85 81 m 0
 85 128 111 139 133 139 c 0
 161 139 175 119 175 98 c 0
 175 85 170 73 161 64 c 1
 180 50 213 50 220 50 c 0
 307 50 405 133 444 269 c 1
 395 232 342 215 292 215 c 0
 176 215 120 307 120 384 c 0
 120 530 249 622 364 622 c 0
 462 622 532 551 532 408 c 0
 532 146 366 -11 219 -11 c 0
 153 -11 85 10 85 81 c 0
189 384 m 0
 189 349 211 277 298 277 c 0
 374 277 444 328 457 392 c 0
 458 397 458 411 459 417 c 0
 460 421 462 433 462 437 c 0
 462 438 462 561 363 561 c 0
 285 561 189 494 189 384 c 0
EndSplineSet
Substitution2: "LGC old numerals subtable" nineoldstyle
EndChar

StartChar: colon
Encoding: 58 58 107
Width: 525
Flags: HW
TeX: 430 0
ItalicCorrection: 115
HStem: 0 125<261 285> 306 125<312 336>
LayerCount: 2
Fore
SplineSet
210 57 m 0
 210 95 244 125 278 125 c 0
 313 125 336 98 336 68 c 0
 336 30 302 0 268 0 c 0
 232 0 210 27 210 57 c 0
261 363 m 0
 261 401 295 431 329 431 c 0
 364 431 387 404 387 374 c 0
 387 336 353 306 319 306 c 0
 283 306 261 333 261 363 c 0
EndSplineSet
EndChar

StartChar: semicolon
Encoding: 59 59 108
Width: 525
Flags: HW
TeX: 430 138
ItalicCorrection: 115
HStem: -138 21<184 216.5> 0 125<228.673 279.812> 305 125<280.486 366.389>
VStem: 210 141<13.9898 102.139> 261 125<325.14 410.304>
LayerCount: 2
Fore
SplineSet
261 362 m 0
 261 399 293 430 329 430 c 0
 359 430 386 407 386 373 c 0
 386 333 350 305 318 305 c 0xe8
 286 305 261 328 261 362 c 0
EndSplineSet
Refer: 93 44 S 1 0 0 1 -0 0 3
EndChar

StartChar: less
Encoding: 60 60 109
Width: 525
Flags: HW
TeX: 554 -55
ItalicCorrection: 115
DStem2: 197 303 129 274 0.824363 -0.566062<0 347.378> 135 339 197 303 0.873033 0.487661<36.5722 442.626>
LayerCount: 2
Fore
SplineSet
108 306 m 0
 108 326 125 333 135 339 c 2
 502 544 l 2
 508 547 515 551 524 551 c 0
 540 551 555 539 555 521 c 0
 555 503 543 495 531 489 c 2
 220 316 l 2
 212 312 205 307 197 303 c 1
 212 292 227 282 242 272 c 2
 464 120 l 2
 478 110 483 99 483 89 c 0
 483 73 468 60 452 60 c 0
 442 60 434 65 429 68 c 2
 129 274 l 2
 126 276 108 287 108 306 c 0
EndSplineSet
EndChar

StartChar: equal
Encoding: 61 61 110
Width: 525
Flags: HW
TeX: 415 -195
ItalicCorrection: 115
HStem: 199 62<76.5002 522.728> 350 62<102.483 547.84>
LayerCount: 2
Fore
SplineSet
75 230 m 0
 75 246 88 258 101 260 c 0
 108 261 114 261 121 261 c 2
 485 261 l 2
 518 261 524 242 524 230 c 0
 524 218 518 199 484 199 c 2
 113 199 l 1
 80 200 75 221 75 230 c 0
101 381 m 0
 101 394 107 412 141 412 c 2
 509 412 l 2
 544 412 549 393 549 381 c 0
 549 372 546 350 512 350 c 2
 137 350 l 2
 105 350 101 373 101 381 c 0
EndSplineSet
EndChar

StartChar: greater
Encoding: 62 62 111
Width: 525
Flags: HW
TeX: 554 -55
ItalicCorrection: 115
DStem2: 210 534 163 491 0.824883 -0.565304<-38.7613 307.843> 404 294 124 67 0.873033 0.487661<-377.401 28.6531>
LayerCount: 2
Fore
SplineSet
71 90 m 0
 71 109 90 119 96 122 c 2
 404 294 l 2
 412 299 420 304 429 308 c 1
 429 309 l 1
 414 319 399 329 384 339 c 2
 163 491 l 2
 149 501 143 512 143 522 c 0
 143 538 159 551 174 551 c 0
 188 551 200 540 210 534 c 2
 496 338 l 2
 499 336 519 325 519 306 c 0
 519 287 501 277 491 272 c 2
 124 67 l 2
 117 63 111 60 102 60 c 0
 84 60 71 75 71 90 c 0
EndSplineSet
EndChar

StartChar: question
Encoding: 63 63 112
Width: 525
Flags: HW
TeX: 610 0
ItalicCorrection: 115
HStem: 0 100<244 267> 184 21<275.5 298> 556 61<315 374.5>
VStem: 144 89<479.5 503.5 479.5 511> 476 69<487.5 525>
LayerCount: 2
Fore
SplineSet
144 490 m 0
 144 532 189 617 350 617 c 0
 428 617 545 599 545 503 c 0
 545 465 520 423 471 399 c 0
 343 334 333 273 325 225 c 0
 319 188 314 184 282 184 c 0
 269 184 242 184 242 212 c 0
 242 217 244 293 303 358 c 0
 342 401 388 428 422 444 c 0
 441 454 476 472 476 503 c 0
 476 547 400 556 349 556 c 0
 281 556 244 535 228 518 c 1
 231 514 233 511 233 496 c 0
 233 463 205 448 186 448 c 0
 167 448 144 462 144 490 c 0
205 47 m 0
 205 73 229 100 259 100 c 0
 285 100 306 79 306 53 c 0
 306 27 282 0 252 0 c 0
 225 0 205 20 205 47 c 0
EndSplineSet
EndChar

StartChar: at
Encoding: 64 64 113
Width: 525
Flags: HW
TeX: 610 0
ItalicCorrection: 115
HStem: -6 61<261.5 314.5> 106 61<343 385 343 391.5> 444 61<387.5 431 368 431.5> 556 61<339 433.5>
VStem: 90 56<195 332 195 346.5> 238 57<233 316 233 324.5>
LayerCount: 2
Fore
SplineSet
90 249 m 0
 90 444 245 617 402 617 c 0
 511 617 545 525 545 432 c 0
 545 420 541 299 509 227 c 0
 482 167 425 106 358 106 c 0
 287 106 238 174 238 264 c 0
 238 385 321 505 415 505 c 0
 447 505 472 490 484 479 c 1
 479 504 466 556 401 556 c 0
 277 556 146 413 146 251 c 0
 146 139 213 55 310 55 c 0
 363 55 405 82 423 97 c 0
 436 108 439 108 456 108 c 0
 465 108 493 108 493 80 c 0
 493 53 436 26 421 19 c 0
 367 -6 319 -6 310 -6 c 0
 183 -6 90 101 90 249 c 0
295 267 m 0
 295 199 327 167 359 167 c 0
 411 167 478 246 478 345 c 0
 478 407 449 444 414 444 c 0
 361 444 295 365 295 267 c 0
EndSplineSet
EndChar

StartChar: A
Encoding: 65 65 114
Width: 525
Flags: HW
TeX: 610 0
ItalicCorrection: 115
HStem: 0 61<66.5 97 73 97 168 179 356 377 447 461> 165 61<233 366 233 370 209 366> 603 20<361 370 370 389>
AnchorPoint: "ogonek" 422 0 basechar 0
AnchorPoint: "below" 262 0 basechar 0
AnchorPoint: "above" 365 622 basechar 0
LayerCount: 2
Fore
SplineSet
32 28 m 0
 32 61 58 61 73 61 c 2
 97 61 l 1
 307 590 l 2
 320 623 344 623 361 623 c 2
 370 623 l 2
 408 623 411 611 413 585 c 2
 447 61 l 1
 478 61 502 61 502 33 c 0
 502 0 476 0 461 0 c 2
 355 0 l 2
 341 0 314 0 314 29 c 0
 314 61 341 61 356 61 c 2
 377 61 l 1
 370 165 l 1
 209 165 l 1
 168 61 l 1
 196 61 220 61 220 32 c 0
 220 0 193 0 179 0 c 2
 73 0 l 2
 60 0 32 0 32 28 c 0
233 226 m 1
 366 226 l 1
 353 462 l 2
 352 474 352 492 352 505 c 2
 352 537 l 1
 351 537 l 1
 343 510 327 468 313 432 c 2
 233 226 l 1
EndSplineSet
EndChar

StartChar: B
Encoding: 66 66 115
Width: 525
Flags: HW
TeX: 610 0
ItalicCorrection: 115
HStem: 0 61<61 101 69 101 171 297 297 309> 287 61<219 321 321 345 208 321> 550 61<153.5 391 161 182 252 377 252 252>
VStem: 443 69<157.5 196.5>
AnchorPoint: "below" 217 0 basechar 0
AnchorPoint: "above" 321 622 basechar 0
LayerCount: 2
Fore
SplineSet
28 29 m 0
 28 61 54 61 69 61 c 2
 101 61 l 1
 182 550 l 1
 160 550 l 2
 147 550 119 550 119 578 c 0
 119 611 146 611 161 611 c 2
 391 611 l 2
 490 611 539 545 539 478 c 0
 539 427 506 355 407 320 c 1
 472 305 512 253 512 192 c 0
 512 107 433 0 309 0 c 2
 68 0 l 2
 54 0 28 0 28 29 c 0
171 61 m 1
 297 61 l 2
 388 61 443 126 443 189 c 0
 443 204 438 287 345 287 c 2
 208 287 l 1
 171 61 l 1
219 348 m 1
 321 348 l 2
 422 348 469 420 469 470 c 0
 469 490 460 550 377 550 c 2
 252 550 l 1
 219 348 l 1
EndSplineSet
EndChar

StartChar: C
Encoding: 67 67 116
Width: 525
Flags: HW
TeX: 610 0
ItalicCorrection: 115
HStem: -11 61<247.5 305.5 247.5 356> 561 61<328 402.5>
VStem: 85 69<190 325 190 338.5>
AnchorPoint: "below" 287 0 basechar 0
AnchorPoint: "above" 380 622 basechar 0
LayerCount: 2
Fore
SplineSet
85 241 m 0
 85 436 226 622 380 622 c 0
 427 622 470 605 504 573 c 1
 508 580 519 597 524 603 c 0
 531 614 536 622 553 622 c 0
 573 622 583 608 583 593 c 0
 583 591 582 584 581 580 c 2
 557 433 l 2
 553 407 542 401 521 401 c 0
 488 401 487 423 487 435 c 0
 485 539 422 561 383 561 c 0
 273 561 154 409 154 241 c 0
 154 139 205 50 290 50 c 0
 321 50 417 67 444 178 c 0
 450 201 469 201 478 201 c 0
 507 201 513 185 513 173 c 0
 513 112 427 -11 285 -11 c 0
 162 -11 85 103 85 241 c 0
EndSplineSet
EndChar

StartChar: D
Encoding: 68 68 117
Width: 525
Flags: HW
TeX: 610 0
ItalicCorrection: 115
HStem: 0 61<57 92 65 92 162 257 257 266> 550 61<149.5 368 157 173 243 338 243 243>
VStem: 472 70<293 378>
AnchorPoint: "below" 217 0 basechar 0
AnchorPoint: "above" 320 622 basechar 0
LayerCount: 2
Fore
SplineSet
24 29 m 0
 24 61 50 61 65 61 c 2
 92 61 l 1
 173 550 l 1
 156 550 l 2
 143 550 115 550 115 578 c 0
 115 611 142 611 157 611 c 2
 368 611 l 2
 493 611 542 482 542 375 c 0
 542 185 416 0 266 0 c 2
 64 0 l 2
 50 0 24 0 24 29 c 0
162 61 m 1
 257 61 l 2
 384 61 472 222 472 364 c 0
 472 392 465 550 338 550 c 2
 243 550 l 1
 162 61 l 1
EndSplineSet
EndChar

StartChar: E
Encoding: 69 69 118
Width: 525
Flags: HW
TeX: 610 0
ItalicCorrection: 115
HStem: 0 61<64 107 72 107 177 443> 286 61<214 354 224 344> 550 61<156 537 164 188 258 258 258 502>
AnchorPoint: "ogonek" 264 0 basechar 0
AnchorPoint: "below" 264 0 basechar 0
AnchorPoint: "above" 368 622 basechar 0
LayerCount: 2
Fore
SplineSet
31 29 m 0
 31 61 57 61 72 61 c 2
 107 61 l 1
 188 550 l 1
 163 550 l 2
 149 550 123 550 123 579 c 0
 123 611 148 611 164 611 c 2
 537 611 l 2
 551 611 577 611 577 582 c 0
 577 580 577 577 574 561 c 2
 562 492 l 2
 558 469 556 456 526 456 c 0
 511 456 492 461 492 485 c 0
 492 489 499 528 502 550 c 1
 258 550 l 1
 224 347 l 1
 354 347 l 1
 361 390 363 404 394 404 c 0
 426 404 429 385 429 376 c 0
 429 374 429 373 427 363 c 2
 410 261 l 2
 407 242 402 229 374 229 c 0
 361 229 340 233 340 258 c 0
 340 263 343 281 344 286 c 1
 214 286 l 1
 177 61 l 1
 443 61 l 1
 454 131 l 1
 459 156 461 171 491 171 c 0
 520 171 526 155 526 143 c 0
 526 137 514 67 512 54 c 0
 503 5 502 0 466 0 c 2
 71 0 l 2
 57 0 31 0 31 29 c 0
EndSplineSet
EndChar

StartChar: F
Encoding: 70 70 119
Width: 525
Flags: HW
TeX: 610 0
ItalicCorrection: 115
HStem: 0 61<66 112 74 112 182 228> 275 61<217 363 228 352> 550 61<158.5 547 166 193 263 263 263 512>
AnchorPoint: "below" 259 0 basechar 0
AnchorPoint: "above" 362 622 basechar 0
LayerCount: 2
Fore
SplineSet
33 29 m 0
 33 61 59 61 74 61 c 2
 112 61 l 1
 193 550 l 1
 165 550 l 2
 152 550 124 550 124 578 c 0
 124 611 151 611 166 611 c 2
 547 611 l 2
 561 611 587 611 587 582 c 0
 587 580 587 577 584 561 c 2
 572 492 l 2
 568 469 566 456 536 456 c 0
 521 456 502 461 502 485 c 0
 502 489 509 528 512 550 c 1
 263 550 l 1
 228 336 l 1
 363 336 l 1
 368 376 370 393 402 393 c 0
 431 393 437 377 437 365 c 0
 437 363 437 362 435 351 c 2
 418 250 l 2
 415 234 413 218 383 218 c 0
 376 218 348 218 348 247 c 0
 348 253 348 255 352 275 c 1
 217 275 l 1
 182 61 l 1
 228 61 l 2
 241 61 269 61 269 33 c 0
 269 0 243 0 228 0 c 2
 73 0 l 2
 59 0 33 0 33 29 c 0
EndSplineSet
EndChar

StartChar: G
Encoding: 71 71 120
Width: 525
Flags: HW
TeX: 610 0
ItalicCorrection: 115
HStem: -11 61<234 287> 209 61<378 412 359 494 484 494 494 498> 561 61<314.5 382 289.5 389.5>
VStem: 83 69<180 322 180 336.5>
AnchorPoint: "below" 266 0 basechar 0
AnchorPoint: "above" 360 622 basechar 0
LayerCount: 2
Fore
SplineSet
83 235 m 0
 83 438 219 622 360 622 c 0
 404 622 441 606 472 576 c 1
 475 580 489 604 490 605 c 0
 495 613 501 622 518 622 c 0
 538 622 548 608 548 593 c 0
 548 587 520 425 519 422 c 0
 514 401 493 401 486 401 c 0
 452 401 452 421 452 443 c 0
 451 516 416 561 363 561 c 0
 266 561 152 410 152 234 c 0
 152 126 200 50 268 50 c 0
 345 50 395 142 412 209 c 1
 359 209 l 1
 344 212 335 225 335 237 c 0
 335 270 360 270 378 270 c 2
 494 270 l 2
 510 270 536 270 536 241 c 0
 536 209 512 209 484 209 c 1
 476 155 454 25 453 20 c 0
 447 0 428 0 419 0 c 0
 384 0 384 27 386 30 c 0
 387 31 386 34 386 35 c 2
 386 38 l 1
 351 8 310 -11 264 -11 c 0
 160 -11 83 88 83 235 c 0
EndSplineSet
EndChar

StartChar: H
Encoding: 72 72 121
Width: 525
Flags: HW
TeX: 610 0
ItalicCorrection: 115
HStem: 0 61<60.5 97 68 97 167 186 349 378 448 467> 287 61<215 415 204 426> 550 61<151 278 159 178 248 248 248 277 440 459 529 558 529 529>
AnchorPoint: "below" 262 0 basechar 0
AnchorPoint: "above" 365 622 basechar 0
LayerCount: 2
Fore
SplineSet
26 28 m 0
 26 61 52 61 68 61 c 2
 97 61 l 1
 178 550 l 1
 158 550 l 2
 144 550 118 550 118 579 c 0
 118 611 145 611 159 611 c 2
 278 611 l 2
 291 611 319 611 319 583 c 0
 319 550 292 550 277 550 c 2
 248 550 l 1
 215 348 l 1
 426 348 l 1
 459 550 l 1
 439 550 l 2
 425 550 399 550 399 579 c 0
 399 611 426 611 440 611 c 2
 559 611 l 2
 572 611 600 611 600 583 c 0
 600 550 573 550 558 550 c 2
 529 550 l 1
 448 61 l 1
 467 61 l 2
 480 61 508 61 508 33 c 0
 508 0 482 0 467 0 c 2
 348 0 l 2
 335 0 307 0 307 28 c 0
 307 61 333 61 349 61 c 2
 378 61 l 1
 415 287 l 1
 204 287 l 1
 167 61 l 1
 186 61 l 2
 199 61 227 61 227 33 c 0
 227 0 201 0 186 0 c 2
 67 0 l 2
 54 0 26 0 26 28 c 0
EndSplineSet
EndChar

StartChar: I
Encoding: 73 73 122
Width: 525
Flags: HW
TeX: 610 0
ItalicCorrection: 115
HStem: 0 61<117 238 125 238 308 410> 550 61<209 502 217 319 389 502 389 389>
AnchorPoint: "ogonek" 263 0 basechar 0
AnchorPoint: "below" 262 0 basechar 0
AnchorPoint: "above" 366 622 basechar 0
LayerCount: 2
Fore
SplineSet
84 29 m 0
 84 61 110 61 125 61 c 2
 238 61 l 1
 319 550 l 1
 216 550 l 2
 202 550 176 550 176 579 c 0
 176 611 201 611 217 611 c 2
 502 611 l 2
 516 611 543 611 543 582 c 0
 543 550 516 550 502 550 c 2
 389 550 l 1
 308 61 l 1
 411 61 l 2
 425 61 451 61 451 32 c 0
 451 0 425 0 410 0 c 2
 124 0 l 2
 110 0 84 0 84 29 c 0
EndSplineSet
EndChar

StartChar: J
Encoding: 74 74 123
Width: 525
Flags: HW
TeX: 610 0
ItalicCorrection: 115
HStem: -11 61<236.5 264.5 236.5 289> 550 61<345 535 353 429 499 534 499 499>
VStem: 87 90<94 112>
AnchorPoint: "below" 275 0 basechar 0
AnchorPoint: "above" 476 622 basechar 0
LayerCount: 2
Fore
SplineSet
87 90 m 0
 87 134 115 146 135 146 c 0
 158 146 177 130 177 105 c 0
 177 83 169 76 165 72 c 1
 190 50 232 50 241 50 c 0
 288 50 350 76 361 140 c 2
 429 550 l 1
 352 550 l 2
 338 550 312 550 312 579 c 0
 312 611 337 611 353 611 c 2
 535 611 l 2
 549 611 575 611 575 582 c 0
 575 550 548 550 534 550 c 2
 499 550 l 1
 429 127 l 2
 416 51 338 -11 240 -11 c 0
 155 -11 87 24 87 90 c 0
EndSplineSet
EndChar

StartChar: K
Encoding: 75 75 124
Width: 525
Flags: HW
TeX: 610 0
ItalicCorrection: 115
HStem: 0 61<64 99 72 99 156 172 378 383 383 388 453 459> 550 61<156.5 265 164 180 237 237 237 264 520 520 520 541>
AnchorPoint: "below" 260 0 basechar 0
AnchorPoint: "above" 364 622 basechar 0
LayerCount: 2
Fore
SplineSet
31 29 m 0
 31 61 57 61 72 61 c 2
 99 61 l 1
 180 550 l 1
 163 550 l 2
 150 550 122 550 122 578 c 0
 122 611 149 611 164 611 c 2
 265 611 l 2
 279 611 305 611 305 582 c 0
 305 550 279 550 264 550 c 2
 237 550 l 1
 193 284 l 1
 448 550 l 1
 439 550 412 550 412 579 c 0
 412 611 438 611 453 611 c 2
 541 611 l 2
 555 611 582 611 582 582 c 0
 582 550 555 550 541 550 c 2
 520 550 l 1
 335 358 l 1
 453 61 l 1
 476 61 500 61 500 32 c 0
 500 0 474 0 459 0 c 2
 383 0 l 2
 369 0 343 0 343 29 c 0
 343 61 368 61 388 61 c 1
 290 311 l 1
 178 194 l 1
 156 61 l 1
 173 61 l 2
 187 61 213 61 213 32 c 0
 213 0 188 0 172 0 c 2
 71 0 l 2
 57 0 31 0 31 29 c 0
EndSplineSet
EndChar

StartChar: L
Encoding: 76 76 125
Width: 525
Flags: HW
TeX: 610 0
ItalicCorrection: 115
HStem: 0 61<70 119 78 119 189 429> 550 61<162 331 169 200 270 330 270 270>
AnchorPoint: "below" 260 0 basechar 0
AnchorPoint: "above" 363 622 basechar 0
LayerCount: 2
Fore
SplineSet
36 29 m 0
 36 61 64 61 78 61 c 2
 119 61 l 1
 200 550 l 1
 169 550 l 2
 155 550 128 550 128 579 c 0
 128 611 155 611 169 611 c 2
 331 611 l 2
 345 611 372 611 372 582 c 0
 372 550 345 550 330 550 c 2
 270 550 l 1
 189 61 l 1
 429 61 l 1
 440 131 l 2
 445 157 447 171 477 171 c 0
 483 171 512 171 512 143 c 0
 512 137 500 67 498 54 c 0
 489 5 488 0 452 0 c 2
 77 0 l 2
 63 0 36 0 36 29 c 0
EndSplineSet
EndChar

StartChar: M
Encoding: 77 77 126
Width: 525
Flags: HW
TeX: 610 0
ItalicCorrection: 115
HStem: 0 61<55 80 63 80 137 143 391 408 465 471> 550 61<155 161 546 546 546 563>
AnchorPoint: "below" 262 0 basechar 0
AnchorPoint: "above" 365 622 basechar 0
LayerCount: 2
Fore
SplineSet
22 29 m 0
 22 61 47 61 63 61 c 2
 80 61 l 1
 161 550 l 1
 139 550 113 550 113 579 c 0
 113 611 140 611 155 611 c 2
 215 611 l 2
 231 611 248 611 257 592 c 0
 261 585 304 330 307 275 c 1
 308 275 l 1
 322 310 351 368 374 415 c 2
 458 583 l 2
 472 611 496 611 513 611 c 2
 564 611 l 2
 578 611 604 611 604 582 c 0
 604 550 578 550 563 550 c 2
 546 550 l 1
 465 61 l 1
 486 61 513 61 513 33 c 0
 513 0 486 0 471 0 c 2
 390 0 l 2
 376 0 350 0 350 29 c 0
 350 61 375 61 391 61 c 2
 408 61 l 1
 486 535 l 1
 485 535 l 1
 480 522 474 509 465 491 c 2
 339 235 l 2
 324 204 299 204 296 204 c 0
 268 204 265 225 259 258 c 0
 255 284 249 318 237 394 c 0
 229 442 219 505 216 536 c 1
 215 536 l 1
 137 61 l 1
 158 61 185 61 185 33 c 0
 185 0 158 0 143 0 c 2
 62 0 l 2
 48 0 22 0 22 29 c 0
EndSplineSet
EndChar

StartChar: N
Encoding: 78 78 127
Width: 525
Flags: HW
TeX: 610 0
ItalicCorrection: 115
HStem: 0 61<66.5 103 74 103 160 179> 550 61<157 237 165 184 447 466 523 552 523 523>
AnchorPoint: "below" 262 0 basechar 0
AnchorPoint: "above" 365 622 basechar 0
LayerCount: 2
Fore
SplineSet
32 28 m 0
 32 61 58 61 74 61 c 2
 103 61 l 1
 184 550 l 1
 164 550 l 2
 150 550 124 550 124 579 c 0
 124 611 151 611 165 611 c 2
 237 611 l 2
 264 611 279 608 286 575 c 2
 386 76 l 1
 387 76 l 1
 466 550 l 1
 446 550 l 2
 432 550 406 550 406 579 c 0
 406 611 433 611 447 611 c 2
 553 611 l 2
 566 611 594 611 594 583 c 0
 594 550 567 550 552 550 c 2
 523 550 l 1
 437 32 l 2
 432 0 417 0 395 0 c 2
 388 0 l 2
 350 0 345 12 340 37 c 2
 240 535 l 1
 239 535 l 1
 160 61 l 1
 179 61 l 2
 192 61 220 61 220 33 c 0
 220 0 194 0 179 0 c 2
 73 0 l 2
 60 0 32 0 32 28 c 0
EndSplineSet
EndChar

StartChar: O
Encoding: 79 79 128
Width: 525
Flags: HW
TeX: 610 0
ItalicCorrection: 115
HStem: -11 61<218.5 325> 561 61<309 398>
VStem: 84 73<110.5 144.5> 471 71<464.5 512>
AnchorPoint: "ogonek" 262 0 basechar 0
AnchorPoint: "below" 262 0 basechar 0
AnchorPoint: "above" 365 622 basechar 0
LayerCount: 2
Fore
SplineSet
84 111 m 0
 84 178 118 416 156 520 c 0
 190 613 253 622 365 622 c 0
 501 622 542 606 542 500 c 0
 542 429 506 197 475 105 c 0
 440 3 390 -11 260 -11 c 0
 122 -11 84 7 84 111 c 0
157 141 m 0
 157 80 166 50 271 50 c 0
 382 50 401 81 428 189 c 0
 438 232 471 410 471 475 c 0
 471 549 441 561 355 561 c 0
 258 561 230 544 205 451 c 0
 190 396 157 216 157 141 c 0
EndSplineSet
EndChar

StartChar: P
Encoding: 80 80 129
Width: 525
Flags: HW
TeX: 610 0
ItalicCorrection: 115
HStem: 0 61<64 107 72 107 177 201> 245 61<207 323 218 323 323 331> 550 61<156 392 164 188 258 363 258 258>
VStem: 484 70<414.5 466>
AnchorPoint: "below" 218 0 basechar 0
AnchorPoint: "above" 321 622 basechar 0
LayerCount: 2
Fore
SplineSet
31 29 m 0
 31 61 57 61 72 61 c 2
 107 61 l 1
 188 550 l 1
 163 550 l 2
 149 550 123 550 123 579 c 0
 123 611 148 611 164 611 c 2
 392 611 l 2
 502 611 554 533 554 457 c 0
 554 357 462 245 331 245 c 2
 207 245 l 1
 177 61 l 1
 202 61 l 2
 216 61 242 61 242 32 c 0
 242 0 217 0 201 0 c 2
 71 0 l 2
 57 0 31 0 31 29 c 0
218 306 m 1
 323 306 l 2
 424 306 484 383 484 446 c 0
 484 486 457 550 363 550 c 2
 258 550 l 1
 218 306 l 1
EndSplineSet
EndChar

StartChar: Q
Encoding: 81 81 130
Width: 525
Flags: HW
TeX: 610 138
ItalicCorrection: 115
HStem: -139 21<383 391 391 400> -11 61<262 266.5> 561 61<309 402>
VStem: 84 72<110.5 144.5> 470 72<462 507>
AnchorPoint: "below" 225 -222 basechar 0
AnchorPoint: "above" 365 622 basechar 0
LayerCount: 2
Fore
SplineSet
84 111 m 0
 84 178 118 416 156 520 c 0
 190 613 253 622 365 622 c 0
 501 622 542 606 542 500 c 0
 542 424 519 297 504 218 c 0
 472 56 440 23 392 5 c 1
 407 -39 420 -72 425 -86 c 0
 435 -110 435 -112 435 -117 c 0
 435 -139 413 -139 400 -139 c 2
 391 -139 l 2
 375 -139 364 -139 358 -128 c 1
 353 -116 324 -33 316 -10 c 1
 305 -11 273 -11 260 -11 c 0
 122 -11 84 7 84 111 c 0
156 139 m 0
 156 82 166 50 262 50 c 2
 294 50 l 1
 281 90 l 1
 276 101 261 143 261 149 c 0
 261 171 284 171 297 171 c 2
 307 171 l 2
 328 171 329 170 335 155 c 2
 368 68 l 1
 387 79 413 94 443 263 c 0
 455 333 470 423 470 473 c 0
 470 541 449 561 355 561 c 0
 254 561 229 538 205 452 c 0
 189 393 156 207 156 139 c 0
EndSplineSet
EndChar

StartChar: R
Encoding: 82 82 131
Width: 525
Flags: HW
TeX: 610 0
ItalicCorrection: 115
HStem: -11 61<433.5 448.5 433.5 473.5> 0 61<60.5 97 68 97 167 186> 275 61<213 284 284 285 202 284> 550 61<151 340 159 178 248 248 248 320>
VStem: 354 68<67.5 87 67.5 93.5> 439 70<439.5 478>
AnchorPoint: "below" 218 0 basechar 0
AnchorPoint: "above" 321 622 basechar 0
LayerCount: 2
Fore
SplineSet
26 28 m 0
 26 61 52 61 68 61 c 2
 97 61 l 1
 178 550 l 1
 158 550 l 2
 144 550 118 550 118 579 c 0
 118 611 145 611 159 611 c 2
 340 611 l 2
 453 611 509 538 509 467 c 0
 509 412 475 344 397 302 c 1x7c
 434 269 440 233 440 211 c 0
 440 198 435 171 431 147 c 0
 427 122 422 93 422 81 c 0
 422 54 429 50 438 50 c 0
 459 50 468 95 469 96 c 0
 474 125 489 125 504 125 c 0
 511 125 538 125 538 97 c 0
 538 73 509 -11 438 -11 c 0
 400 -11 354 11 354 87 c 0
 354 100 354 109 365 171 c 0
 366 179 371 204 371 210 c 0
 371 228 361 275 285 275 c 2xbc
 202 275 l 1
 167 61 l 1
 186 61 l 2
 199 61 227 61 227 33 c 0
 227 0 201 0 186 0 c 2
 67 0 l 2
 54 0 26 0 26 28 c 0
213 336 m 1
 284 336 l 2
 382 336 439 403 439 457 c 0
 439 499 405 550 320 550 c 2
 248 550 l 1
 213 336 l 1
EndSplineSet
EndChar

StartChar: S
Encoding: 83 83 132
Width: 525
Flags: HW
TeX: 610 0
ItalicCorrection: 115
HStem: -11 61<278 332 278 351.5> 561 61<296.5 356.5 279.5 391.5>
VStem: 127 66<425.5 473.5 425.5 486.5> 436 66<152.5 202>
AnchorPoint: "below" 289 0 basechar 0
AnchorPoint: "above" 337 622 basechar 0
LayerCount: 2
Fore
SplineSet
55 18 m 0
 55 21 80 179 84 188 c 0
 92 203 107 203 116 203 c 0
 131 203 150 198 150 174 c 0
 150 167 148 162 148 147 c 0
 148 50 268 50 288 50 c 0
 376 50 436 122 436 183 c 0
 436 221 414 257 367 269 c 2
 303 285 l 2
 225 304 199 310 171 337 c 1
 151 358 127 386 127 438 c 0
 127 535 222 622 337 622 c 0
 376 622 431 613 472 574 c 1
 486 602 486 604 486 605 c 0
 489 610 495 622 514 622 c 0
 534 622 544 608 544 593 c 0
 544 591 543 584 542 580 c 2
 519 440 l 2
 515 418 508 408 483 408 c 0
 449 408 449 429 449 445 c 0
 449 474 448 561 335 561 c 0
 258 561 193 503 193 444 c 0
 193 407 217 382 248 370 c 0
 254 368 285 361 304 356 c 0
 408 331 427 327 454 300 c 0
 467 287 502 252 502 188 c 0
 502 97 416 -11 287 -11 c 0
 236 -11 170 0 128 36 c 1
 109 -2 105 -11 85 -11 c 0
 67 -11 55 1 55 18 c 0
EndSplineSet
EndChar

StartChar: T
Encoding: 84 84 133
Width: 525
Flags: HW
TeX: 610 0
ItalicCorrection: 115
HStem: 0 61<174 238 182 238 308 354> 550 61<187 319 187 187 389 520 389 389>
AnchorPoint: "below" 262 0 basechar 0
AnchorPoint: "above" 366 622 basechar 0
LayerCount: 2
Fore
SplineSet
107 485 m 0
 107 488 107 490 110 507 c 2
 121 575 l 2
 127 611 140 611 164 611 c 2
 555 611 l 2
 569 611 595 611 595 582 c 0
 595 580 595 577 592 561 c 2
 580 492 l 2
 576 469 574 456 544 456 c 0
 529 456 510 461 510 485 c 0
 510 489 517 528 520 550 c 1
 389 550 l 1
 308 61 l 1
 354 61 l 2
 368 61 395 61 395 32 c 0
 395 0 368 0 354 0 c 2
 181 0 l 2
 167 0 140 0 140 29 c 0
 140 61 167 61 182 61 c 2
 238 61 l 1
 319 550 l 1
 187 550 l 1
 185 535 179 502 177 490 c 0
 174 471 171 456 141 456 c 0
 126 456 107 461 107 485 c 0
EndSplineSet
EndChar

StartChar: U
Encoding: 85 85 134
Width: 525
Flags: HW
TeX: 610 0
ItalicCorrection: 115
HStem: -11 61<241 298.5 241 320.5> 550 61<134 272 142 166 236 236 236 271 447 471 541 576 541 541>
VStem: 106 69<130 172.5 130 175.5>
AnchorPoint: "ogonek" 267 0 basechar 0
AnchorPoint: "below" 267 0 basechar 0
AnchorPoint: "above" 365 622 basechar 0
LayerCount: 2
Fore
SplineSet
101 579 m 0
 101 611 126 611 142 611 c 2
 272 611 l 2
 286 611 312 611 312 582 c 0
 312 550 285 550 271 550 c 2
 236 550 l 1
 177 197 l 2
 175 185 175 178 175 167 c 0
 175 93 216 50 266 50 c 0
 331 50 400 122 414 206 c 2
 471 550 l 1
 446 550 l 2
 432 550 406 550 406 579 c 0
 406 611 431 611 447 611 c 2
 577 611 l 2
 591 611 617 611 617 582 c 0
 617 550 590 550 576 550 c 2
 541 550 l 1
 482 194 l 2
 466 97 376 -11 265 -11 c 0
 179 -11 106 58 106 168 c 0
 106 183 106 188 109 206 c 2
 166 550 l 1
 141 550 l 2
 127 550 101 550 101 579 c 0
EndSplineSet
EndChar

StartChar: V
Encoding: 86 86 135
Width: 525
Flags: HW
TeX: 610 0
ItalicCorrection: 115
HStem: -8 21<246.5 272> 550 61<156 166 238 238 238 258 460 470 541 562 541 541>
AnchorPoint: "below" 262 0 basechar 0
AnchorPoint: "above" 365 622 basechar 0
LayerCount: 2
Fore
SplineSet
114 578 m 0
 114 611 141 611 156 611 c 2
 259 611 l 2
 273 611 299 611 299 582 c 0
 299 550 273 550 258 550 c 2
 238 550 l 1
 266 208 l 2
 273 123 273 96 273 72 c 1
 274 72 l 1
 281 93 328 210 339 237 c 2
 470 550 l 1
 444 550 418 550 418 578 c 0
 418 611 445 611 460 611 c 2
 563 611 l 2
 577 611 603 611 603 582 c 0
 603 550 576 550 562 550 c 2
 541 550 l 1
 320 24 l 2
 307 -8 283 -8 261 -8 c 0
 232 -8 215 -8 212 29 c 2
 166 550 l 1
 140 550 114 550 114 578 c 0
EndSplineSet
EndChar

StartChar: W
Encoding: 87 87 136
Width: 525
Flags: HW
TeX: 610 0
ItalicCorrection: 115
HStem: -8 21<143.5 165.5 344 379> 550 61<140 228 197 197 197 227 490 510 567 569 569 575.5>
AnchorPoint: "below" 262 0 basechar 0
AnchorPoint: "above" 365 622 basechar 0
LayerCount: 2
Fore
SplineSet
108 579 m 0
 108 611 134 611 149 611 c 2
 228 611 l 2
 241 611 269 611 269 583 c 0
 269 550 242 550 227 550 c 2
 197 550 l 1
 196 538 196 530 196 519 c 0
 195 440 191 360 189 281 c 0
 186 191 180 87 179 79 c 1
 180 79 l 1
 193 130 274 338 282 349 c 0
 295 367 314 367 323 367 c 0
 359 367 360 356 363 296 c 0
 368 219 371 158 371 120 c 0
 371 110 370 81 370 77 c 1
 371 77 l 1
 411 220 l 1
 510 550 l 1
 489 550 l 2
 475 550 449 550 449 579 c 0
 449 611 476 611 490 611 c 2
 569 611 l 2
 582 611 610 611 610 583 c 0
 610 550 584 550 567 550 c 1
 407 28 l 2
 402 12 396 -8 362 -8 c 0
 326 -8 325 5 322 56 c 0
 320 93 317 129 315 166 c 0
 314 202 311 257 311 273 c 0
 311 280 311 291 311 291 c 1
 310 291 l 1
 299 254 208 22 203 13 c 0
 190 -8 170 -8 161 -8 c 0
 126 -8 126 10 126 29 c 0
 126 73 129 119 130 164 c 0
 131 209 132 254 134 299 c 0
 136 338 136 379 137 418 c 0
 138 456 140 494 140 532 c 2
 140 550 l 1
 125 551 108 557 108 579 c 0
178 71 m 1
 179 72 l 1
 178 72 l 1
 178 71 l 1
EndSplineSet
EndChar

StartChar: X
Encoding: 88 88 137
Width: 525
Flags: HW
TeX: 610 0
ItalicCorrection: 115
HStem: 0 61<65 100 73 100 175 176 353 356 356 366 442 460> 550 61<168 280 176 194 271 280 280 283.5 496 523 496 496>
AnchorPoint: "below" 261 0 basechar 0
AnchorPoint: "above" 365 622 basechar 0
LayerCount: 2
Fore
SplineSet
32 29 m 0
 32 61 57 61 73 61 c 2
 100 61 l 1
 276 325 l 1
 194 550 l 1
 175 550 l 2
 161 550 135 550 135 579 c 0
 135 611 160 611 176 611 c 2
 280 611 l 2
 293 611 321 611 321 583 c 0
 321 550 296 550 271 550 c 1
 324 404 l 1
 419 550 l 1
 405 550 378 550 378 579 c 0
 378 611 405 611 420 611 c 2
 523 611 l 2
 537 611 564 611 564 582 c 0
 564 550 537 550 523 550 c 2
 496 550 l 1
 345 326 l 1
 442 61 l 1
 461 61 l 2
 475 61 501 61 501 32 c 0
 501 0 475 0 460 0 c 2
 356 0 l 2
 343 0 315 0 315 28 c 0
 315 61 340 61 366 61 c 1
 299 255 l 1
 175 61 l 1
 192 61 217 61 217 32 c 0
 217 0 192 0 176 0 c 2
 72 0 l 2
 58 0 32 0 32 29 c 0
EndSplineSet
EndChar

StartChar: Y
Encoding: 89 89 138
Width: 525
Flags: HW
TeX: 610 0
ItalicCorrection: 115
HStem: 0 61<201.5 238 209 238 307 327> 550 61<148 260 156 172 249 260 260 263 535 561 535 535>
AnchorPoint: "below" 262 0 basechar 0
AnchorPoint: "above" 366 622 basechar 0
LayerCount: 2
Fore
SplineSet
115 579 m 0
 115 611 142 611 156 611 c 2
 260 611 l 2
 273 611 301 611 301 583 c 0
 301 550 277 550 249 550 c 1
 263 503 264 502 284 437 c 0
 311 346 312 337 314 316 c 1
 315 316 l 1
 323 335 349 377 387 439 c 0
 409 474 420 488 458 550 c 1
 443 550 417 550 417 579 c 0
 417 611 443 611 458 611 c 2
 562 611 l 2
 575 611 603 611 603 583 c 0
 603 550 576 550 561 550 c 2
 535 550 l 1
 338 244 l 1
 307 61 l 1
 327 61 l 2
 340 61 368 61 368 33 c 0
 368 0 342 0 327 0 c 2
 208 0 l 2
 195 0 167 0 167 28 c 0
 167 61 193 61 209 61 c 2
 238 61 l 1
 269 244 l 1
 172 550 l 1
 155 550 l 2
 141 550 115 550 115 579 c 0
EndSplineSet
EndChar

StartChar: Z
Encoding: 90 90 139
Width: 525
Flags: HW
TeX: 610 0
ItalicCorrection: 115
HStem: 0 61<81.5 422 148 422 148 445> 550 61<221 478 221 221>
AnchorPoint: "below" 265 0 basechar 0
AnchorPoint: "above" 368 622 basechar 0
LayerCount: 2
Fore
SplineSet
52 24 m 0
 52 33 55 49 67 63 c 2
 478 550 l 1
 221 550 l 1
 219 535 213 502 211 490 c 0
 208 471 205 456 175 456 c 0
 160 456 141 461 141 485 c 0
 141 488 141 490 144 507 c 2
 155 575 l 2
 161 611 174 611 198 611 c 2
 537 611 l 2
 553 611 573 611 573 587 c 0
 573 566 565 556 558 548 c 2
 148 61 l 1
 422 61 l 1
 425 82 428 100 434 133 c 1
 438 161 441 174 471 174 c 0
 486 174 505 169 505 145 c 0
 505 137 493 68 491 54 c 0
 482 5 481 0 445 0 c 2
 89 0 l 2
 74 0 52 0 52 24 c 0
EndSplineSet
EndChar

StartChar: bracketleft
Encoding: 91 91 140
Width: 525
Flags: HW
TeX: 694 83
ItalicCorrection: 115
HStem: -83 61<288 472.906> 632 62<397 591.484>
DStem2: 206.508 -83 277.836 -83 0.164359 0.986401<74.0117 736.586>
LayerCount: 2
Fore
SplineSet
212 -54 m 0
 212 -46 211 -54 238 106 c 2
 332 665 l 2
 336 693 354 694 369 694 c 2
 559 694 l 2
 586 694 593 677 593 665 c 0
 593 651 586 632 559 632 c 2
 397 632 l 1
 288 -22 l 1
 440 -22 l 2
 470 -22 474 -41 474 -51 c 0
 474 -78 455 -83 437 -83 c 2
 247 -83 l 2
 217 -83 212 -66 212 -54 c 0
EndSplineSet
EndChar

StartChar: backslash
Encoding: 92 92 141
Width: 525
Flags: HW
TeX: 694 83
ItalicCorrection: 115
VStem: 393 63<-80.9607 -29.9182>
DStem2: 234 655 173 642 0.302183 -0.95325<-26.9547 740.631>
LayerCount: 2
Fore
SplineSet
169 663 m 0
 169 681 185 694 199 694 c 0
 225 694 230 668 234 655 c 2
 450 -28 l 2
 452 -36 456 -43 456 -52 c 0
 456 -70 441 -83 426 -83 c 0
 403 -83 396 -62 393 -52 c 2
 173 642 l 2
 171 649 169 656 169 663 c 0
EndSplineSet
EndChar

StartChar: bracketright
Encoding: 93 93 142
Width: 525
Flags: HW
TeX: 694 83
ItalicCorrection: 115
HStem: -83 61<32.5312 228> 633 61<152.234 337>
LayerCount: 2
Fore
SplineSet
31 -54 m 0
 31 -41 38 -22 66 -22 c 2
 228 -22 l 1
 228 -21 l 1
 337 633 l 1
 185 633 l 2
 156 633 151 652 151 662 c 0
 151 678 158 694 188 694 c 2
 377 694 l 2
 408 694 412 675 412 665 c 0
 412 659 411 652 410 646 c 2
 295 -41 l 2
 291 -62 292 -83 256 -83 c 2
 68 -83 l 2
 53 -83 31 -78 31 -54 c 0
EndSplineSet
EndChar

StartChar: asciicircum
Encoding: 94 94 143
Width: 525
Flags: HW
TeX: 610 0
ItalicCorrection: 115
HStem: 422 71<157.203 230.094 457.697 518.67> 494 71<297.708 392.322>
LayerCount: 2
Fore
SplineSet
153 462 m 0
 153 481 168 487 182 493 c 0
 309 549 340 565 351 565 c 0
 361 565 358 566 499 493 c 0
 508 488 525 481 525 462 c 0
 525 450 510 422 489 422 c 0
 466 422 366 494 348 494 c 0
 343 494 334 490 208 430 c 0
 201 427 193 422 185 422 c 0
 160 422 153 452 153 462 c 0
EndSplineSet
EndChar

StartChar: underscore
Encoding: 95 95 144
Width: 525
Flags: HW
TeX: 0 95
ItalicCorrection: 115
HStem: -95 70<48.6365 454.858>
LayerCount: 2
Fore
SplineSet
46 -60 m 0
 46 -51 50 -25 88 -25 c 2
 416 -25 l 2
 452 -25 458 -51 458 -60 c 0
 458 -71 452 -95 415 -95 c 2
 87 -95 l 1
 51 -94 46 -71 46 -60 c 0
EndSplineSet
EndChar

StartChar: quoteleft
Encoding: 8216 8216 145
Width: 525
Flags: HW
TeX: 610 0
ItalicCorrection: 115
HStem: 347 125<309.376 373.107>
VStem: 245 148<375.138 456.643>
LayerCount: 2
Fore
SplineSet
245 444 m 0
 245 580 385 680 421 680 c 0
 437 680 452 664 452 649 c 0
 452 629 434 623 421 616 c 0
 369 588 324 537 309 467 c 1
 317 470 326 472 336 472 c 0
 367 472 393 450 393 416 c 0
 393 382 365 347 324 347 c 0
 277 347 245 388 245 444 c 0
EndSplineSet
EndChar

StartChar: a
Encoding: 97 97 146
Width: 525
Flags: HW
TeX: 430 0
ItalicCorrection: 115
HStem: -6 61<206 248.5> 218 61 379 61<291 347.5>
VStem: 75 69<97 147.5 97 189>
AnchorPoint: "ogonek" 388 0 basechar 0
AnchorPoint: "affricate-below" 488 -222 basechar 0
AnchorPoint: "affricate-above" 627 611 basechar 0
AnchorPoint: "below" 222 0 basechar 0
AnchorPoint: "above" 295 440 basechar 0
LayerCount: 2
Fore
SplineSet
75 114 m 0
 75 264 331 274 401 277 c 1
 402 281 404 301 404 305 c 0
 404 320 400 379 295 379 c 0
 287 379 253 379 231 374 c 1
 231 325 192 321 184 321 c 0
 163 321 142 335 142 362 c 0
 142 440 253 440 295 440 c 0
 459 440 474 331 474 305 c 1
 436 66 l 1
 458 61 477 61 488 61 c 0
 502 61 530 61 530 33 c 0
 530 0 506 0 479 0 c 0
 425 0 392 5 374 32 c 1
 334 6 274 -6 223 -6 c 0
 129 -6 75 50 75 114 c 0
144 115 m 0
 144 79 180 55 232 55 c 0
 267 55 308 63 334 76 c 1
 370 96 373 112 379 146 c 2
 391 218 l 1
 266 215 144 180 144 115 c 0
EndSplineSet
EndChar

StartChar: b
Encoding: 98 98 147
Width: 525
Flags: HW
TeX: 610 0
ItalicCorrection: 115
HStem: -6 61<265 325.5 265 346.5> 376 61<332.5 386> 550 61<142.5 223 150 188>
VStem: 458 69<198 288>
AnchorPoint: "affricate-below" 488 -222 basechar 0
AnchorPoint: "affricate-above" 627 611 basechar 0
AnchorPoint: "below" 292 0 basechar 0
AnchorPoint: "above" 394 611 basechar 0
LayerCount: 2
Fore
SplineSet
102 29 m 0
 102 33 102 35 105 51 c 2
 188 550 l 1
 149 550 l 2
 136 550 108 550 108 578 c 0
 108 611 135 611 150 611 c 2
 223 611 l 2
 237 611 263 611 263 582 c 0
 263 579 263 577 260 561 c 2
 232 392 l 1
 258 411 304 437 361 437 c 0
 452 437 527 364 527 252 c 0
 527 111 407 -6 286 -6 c 0
 227 -6 196 23 174 48 c 1
 172 0 151 0 136 0 c 0
 121 0 102 5 102 29 c 0
195 167 m 0
 195 140 202 113 217 91 c 0
 228 74 247 55 283 55 c 0
 368 55 458 144 458 252 c 0
 458 324 417 376 355 376 c 0
 299 376 242 337 216 284 c 0
 209 270 195 169 195 167 c 0
EndSplineSet
EndChar

StartChar: c
Encoding: 99 99 148
Width: 525
Flags: HW
TeX: 430 0
ItalicCorrection: 115
HStem: -6 61<263.5 326.5 263.5 363.5> 379 61<303 378>
VStem: 106 69<149.5 219 149.5 235.5> 427 88<364.5 373>
AnchorPoint: "affricate-below" 488 -222 basechar 0
AnchorPoint: "affricate-above" 627 611 basechar 0
AnchorPoint: "below" 298 0 basechar 0
AnchorPoint: "above" 374 440 basechar 0
LayerCount: 2
Fore
SplineSet
106 183 m 0
 106 288 193 440 374 440 c 0
 422 440 515 440 515 372 c 0
 515 332 484 321 468 321 c 0
 427 321 427 356 427 373 c 1
 426 373 425 375 424 376 c 0
 414 379 384 379 372 379 c 0
 234 379 175 254 175 184 c 0
 175 115 223 55 304 55 c 0
 349 55 392 77 415 115 c 0
 424 131 428 137 450 137 c 0
 475 137 484 123 484 109 c 0
 484 88 430 -6 297 -6 c 0
 177 -6 106 84 106 183 c 0
EndSplineSet
EndChar

StartChar: d
Encoding: 100 100 149
Width: 525
Flags: HW
TeX: 610 0
ItalicCorrection: 115
HStem: -6 61<212 260> 376 61<271 339 249 349.5> 550 61<403.5 484 411 449>
VStem: 69 69<141 233.5 141 250.5>
AnchorPoint: "affricate-below" 488 -222 basechar 0
AnchorPoint: "affricate-above" 627 611 basechar 0
AnchorPoint: "below" 274 0 basechar 0
AnchorPoint: "above" 333 611 basechar 0
LayerCount: 2
Fore
SplineSet
69 179 m 0
 69 322 189 437 309 437 c 0
 369 437 406 408 422 389 c 1
 449 550 l 1
 410 550 l 2
 397 550 369 550 369 578 c 0
 369 611 396 611 411 611 c 2
 484 611 l 2
 498 611 524 611 524 582 c 0
 524 578 524 577 521 561 c 2
 438 61 l 1
 477 61 l 2
 491 61 517 61 517 32 c 0
 517 0 492 0 476 0 c 2
 403 0 l 2
 389 0 363 0 363 29 c 0
 363 38 364 41 365 46 c 1
 328 15 284 -6 236 -6 c 0
 144 -6 69 67 69 179 c 0
138 179 m 0
 138 103 183 55 241 55 c 0
 308 55 378 123 392 205 c 0
 400 253 405 283 405 287 c 0
 405 308 386 376 313 376 c 0
 229 376 138 288 138 179 c 0
EndSplineSet
EndChar

StartChar: e
Encoding: 101 101 150
Width: 525
Flags: HW
TeX: 430 0
ItalicCorrection: 115
HStem: -6 61<266 318 266 354> 191 60<171 435 171 460 158 435> 379 61<301.5 374.5 273 387>
VStem: 89 69<141.5 191 141.5 252> 436 69<266 284>
AnchorPoint: "ogonek" 290 0 basechar 0
AnchorPoint: "affricate-below" 488 -222 basechar 0
AnchorPoint: "affricate-above" 627 611 basechar 0
AnchorPoint: "below" 290 0 basechar 0
AnchorPoint: "above" 338 440 basechar 0
LayerCount: 2
Fore
SplineSet
89 186 m 0
 89 318 207 440 339 440 c 0
 410 440 505 406 505 270 c 0
 505 191 490 191 460 191 c 2
 158 191 l 1
 158 92 235 55 297 55 c 0
 339 55 387 74 413 115 c 0
 423 132 426 137 448 137 c 0
 473 137 482 123 482 109 c 0
 482 83 419 -6 289 -6 c 0
 176 -6 89 73 89 186 c 0
171 251 m 1
 435 251 l 1
 436 258 436 260 436 272 c 0
 436 296 436 379 338 379 c 0
 265 379 195 321 171 251 c 1
EndSplineSet
EndChar

StartChar: f
Encoding: 102 102 151
Width: 525
Flags: HW
TeX: 610 0
ItalicCorrection: 115
HStem: 0 61<80 194 88 194 264 359> 370 61<143.5 255 151 245 325 441 151 315> 556 61<406 444>
AnchorPoint: "affricate-below" 488 -222 basechar 0
AnchorPoint: "affricate-above" 627 611 basechar 0
AnchorPoint: "above" 438 611 basechar 0
AnchorPoint: "below" 218 0 basechar 0
LayerCount: 2
Fore
SplineSet
47 29 m 0
 47 61 74 61 88 61 c 2
 194 61 l 1
 245 370 l 1
 150 370 l 2
 137 370 109 370 109 398 c 0
 109 431 136 431 151 431 c 2
 255 431 l 1
 271 523 273 534 305 565 c 0
 316 577 360 617 439 617 c 0
 456 617 530 617 530 561 c 0
 530 525 500 513 485 513 c 0
 481 513 447 513 444 556 c 1
 368 556 340 517 334 482 c 0
 330 462 329 452 325 431 c 1
 442 431 l 2
 456 431 482 431 482 402 c 0
 482 370 456 370 441 370 c 2
 315 370 l 1
 264 61 l 1
 360 61 l 2
 374 61 400 61 400 32 c 0
 400 0 374 0 359 0 c 2
 87 0 l 2
 73 0 47 0 47 29 c 0
EndSplineSet
EndChar

StartChar: g
Encoding: 103 103 152
Width: 525
Flags: HW
TeX: 430 222
ItalicCorrection: 115
HStem: -229 60<180.5 275.5 180.5 291.5> 4 57<217 286> 116 60<237 288.5 234.5 307.5> 377 60<269.5 317 250 322.5>
VStem: 14 58<-112 -85 -112 -84> 112 69<238 286 233 302> 424 59<-97.5 -31>
AnchorPoint: "affricate-below" 488 -222 basechar 0
AnchorPoint: "affricate-above" 627 611 basechar 0
AnchorPoint: "below" 230 -222 basechar 0
AnchorPoint: "above" 308 440 basechar 0
LayerCount: 2
Fore
SplineSet
14 -95 m 0
 14 -73 26 0 112 46 c 1
 97 69 97 93 97 99 c 0
 97 129 111 162 130 185 c 1
 128 189 112 220 112 256 c 0
 112 348 199 437 301 437 c 0
 333 437 367 428 393 407 c 1
 440 437 482 442 505 442 c 0
 562 442 574 408 574 391 c 0
 574 364 553 347 532 347 c 0
 520 347 499 355 494 380 c 1
 481 379 459 376 431 361 c 1
 440 343 446 321 446 297 c 0
 446 203 357 116 258 116 c 0
 216 116 186 131 170 142 c 1
 168 139 155 120 155 99 c 0
 155 63 177 63 188 63 c 1
 196 61 209 61 217 61 c 2
 287 61 l 2
 333 61 483 57 483 -66 c 0
 483 -168 354 -229 229 -229 c 0
 95 -229 14 -165 14 -95 c 0
72 -94 m 0
 72 -130 132 -169 229 -169 c 0
 322 -169 424 -129 424 -66 c 0
 424 4 332 4 240 4 c 0
 169 4 157 4 129 -12 c 0
 87 -37 72 -76 72 -94 c 0
181 255 m 0
 181 211 211 176 258 176 c 0
 319 176 377 236 377 298 c 0
 377 344 345 377 300 377 c 0
 239 377 181 317 181 255 c 0
EndSplineSet
EndChar

StartChar: h
Encoding: 104 104 153
Width: 525
Flags: HW
TeX: 610 0
ItalicCorrection: 115
HStem: 0 61<50 107 58 107 177 215 324 368 438 476> 376 61<338 380.5> 550 61<142.5 223 150 188>
VStem: 410 69<324.5 342.5>
AnchorPoint: "affricate-below" 488 -222 basechar 0
AnchorPoint: "affricate-above" 627 611 basechar 0
AnchorPoint: "below" 262 0 basechar 0
AnchorPoint: "above" 363 611 basechar 0
LayerCount: 2
Fore
SplineSet
17 29 m 0
 17 61 43 61 58 61 c 2
 107 61 l 1
 188 550 l 1
 149 550 l 2
 136 550 108 550 108 578 c 0
 108 611 135 611 150 611 c 2
 223 611 l 2
 237 611 263 611 263 582 c 0
 263 578 263 577 260 561 c 2
 231 388 l 1
 268 416 312 437 364 437 c 0
 432 437 479 405 479 328 c 0
 479 309 478 303 471 263 c 0
 457 179 451 142 438 61 c 1
 477 61 l 2
 491 61 517 61 517 32 c 0
 517 0 492 0 476 0 c 2
 323 0 l 2
 309 0 283 0 283 29 c 0
 283 61 309 61 324 61 c 2
 368 61 l 1
 408 302 l 2
 409 308 410 321 410 328 c 0
 410 357 402 376 359 376 c 0
 298 376 244 332 220 284 c 1
 208 257 202 220 177 61 c 1
 216 61 l 2
 230 61 256 61 256 32 c 0
 256 0 231 0 215 0 c 2
 57 0 l 2
 43 0 17 0 17 29 c 0
EndSplineSet
EndChar

StartChar: i
Encoding: 105 105 154
Width: 525
Flags: HW
TeX: 610 0
ItalicCorrection: 115
HStem: 0 61<116 250 124 250 320 419> 370 61<186 336 194 301> 512 21<336 363.5> 592 20<340.5 370>
VStem: 301 102
AnchorPoint: "above" 373 592 basechar 0
AnchorPoint: "ogonek" 266 0 basechar 0
AnchorPoint: "affricate-below" 488 -222 basechar 0
AnchorPoint: "affricate-above" 627 611 basechar 0
AnchorPoint: "below" 274 0 basechar 0
LayerCount: 2
Fore
SplineSet
302 559 m 0
 302 584 325 612 356 612 c 0
 384 612 403 590 403 566 c 0
 403 537 378 512 349 512 c 0
 323 512 302 533 302 559 c 0
EndSplineSet
Refer: 74 305 S 1 0 0 1 0 0 3
EndChar

StartChar: j
Encoding: 106 106 155
Width: 525
Flags: HW
TeX: 610 222
ItalicCorrection: 115
HStem: -228 61<154 171 154 232> 370 61<229.5 395 237 360> 512 21<395 422.5> 592 20<399.5 429>
VStem: 22 89<-164 -159.5 -164 -139> 361 101<551.5 571.5>
AnchorPoint: "affricate-below" 488 -222 basechar 0
AnchorPoint: "affricate-above" 627 611 basechar 0
AnchorPoint: "below" 207 -222 basechar 0
LayerCount: 2
Fore
SplineSet
361 559 m 0
 361 584 384 612 415 612 c 0
 443 612 462 590 462 566 c 0
 462 537 437 512 408 512 c 0
 382 512 361 533 361 559 c 0
EndSplineSet
Refer: 75 567 S 1 0 0 1 0 0 3
EndChar

StartChar: k
Encoding: 107 107 156
Width: 525
Flags: HW
TeX: 610 0
ItalicCorrection: 115
HStem: 0 61<59 120 67 120 177 220 355 376 446 472> 370 61<351 512 358 390 471 471 471 512> 550 61<150 223 158 201>
AnchorPoint: "affricate-below" 488 -222 basechar 0
AnchorPoint: "affricate-above" 627 611 basechar 0
AnchorPoint: "below" 264 0 basechar 0
AnchorPoint: "above" 366 611 basechar 0
LayerCount: 2
Fore
SplineSet
25 29 m 0
 25 61 52 61 67 61 c 2
 120 61 l 1
 201 550 l 1
 157 550 l 2
 143 550 117 550 117 579 c 0
 117 611 143 611 158 611 c 2
 223 611 l 2
 237 611 263 611 263 582 c 0
 263 578 263 577 260 561 c 2
 203 219 l 1
 390 370 l 1
 358 370 l 2
 344 370 317 370 317 399 c 0
 317 431 344 431 358 431 c 2
 512 431 l 2
 525 431 553 431 553 403 c 0
 553 370 527 370 512 370 c 2
 471 370 l 1
 330 255 l 1
 446 61 l 1
 473 61 l 2
 487 61 513 61 513 32 c 0
 513 0 487 0 472 0 c 2
 354 0 l 2
 340 0 313 0 313 29 c 0
 313 61 340 61 355 61 c 2
 376 61 l 1
 282 216 l 1
 190 142 l 1
 182 95 179 73 177 61 c 1
 220 61 l 2
 234 61 261 61 261 32 c 0
 261 0 234 0 220 0 c 2
 66 0 l 2
 52 0 25 0 25 29 c 0
EndSplineSet
EndChar

StartChar: l
Encoding: 108 108 157
Width: 525
Flags: HW
TeX: 610 0
ItalicCorrection: 115
HStem: 0 61<96 238 104 238 308 431> 550 61<188.5 354 196 319>
AnchorPoint: "affricate-below" 488 -222 basechar 0
AnchorPoint: "affricate-above" 627 611 basechar 0
AnchorPoint: "below" 262 0 basechar 0
AnchorPoint: "above" 364 611 basechar 0
LayerCount: 2
Fore
SplineSet
63 29 m 0
 63 61 89 61 104 61 c 2
 238 61 l 1
 319 550 l 1
 195 550 l 2
 182 550 154 550 154 578 c 0
 154 611 181 611 196 611 c 2
 354 611 l 2
 368 611 394 611 394 582 c 0
 394 578 394 577 391 561 c 2
 308 61 l 1
 432 61 l 2
 445 61 473 61 473 33 c 0
 473 0 446 0 431 0 c 2
 103 0 l 2
 89 0 63 0 63 29 c 0
EndSplineSet
EndChar

StartChar: m
Encoding: 109 109 158
Width: 525
Flags: HW
TeX: 430 0
ItalicCorrection: 115
HStem: -0 62<2.43866 62 120 168.653 189.703 246.235 301 350.722 371.703 428.353 483 532.539> 374 62<65.9196 113 208.587 285.467 391.59 467.593>
VStem: 1 169<1.81934 60.0884> 188 164<1.89528 59.7758> 370 164<2.04365 59.7758> 469 57<193.934 372.387>
DStem2: 51.6693 -0 109.669 -0 0.164359 0.986401<72.3876 345.274>
AnchorPoint: "affricate-below" 488 -222 basechar 0
AnchorPoint: "affricate-above" 627 611 basechar 0
AnchorPoint: "below" 262 0 basechar 0
AnchorPoint: "above" 335 440 basechar 0
LayerCount: 2
Fore
SplineSet
1 29 m 0
 1 60 26 62 38 62 c 2
 62 62 l 1
 113 369 l 1
 97 369 l 2
 71 369 62 383 62 398 c 0
 62 411 69 430 95 430 c 2xf4
 137 430 l 2
 151 430 173 430 176 402 c 1
 198 419 229 436 265 436 c 0
 303 436 328 414 338 384 c 1
 359 405 396 436 447 436 c 0
 478 436 526 419 526 342 c 0xf4
 526 302 500 173 483 62 c 1
 499 62 l 2
 530 62 534 42 534 32 c 0
 534 18 527 0 497 -0 c 2
 404 -0 l 1
 374 1 370 19 370 29 c 0xf8
 370 44 378 62 407 62 c 2
 425 62 l 1
 438 145 469 309 469 336 c 0
 469 359 464 374 443 374 c 0
 411 374 347 340 329 229 c 2
 301 62 l 1
 317 62 l 2
 348 62 352 42 352 32 c 0
 352 18 346 0 316 -0 c 2
 222 -0 l 1
 192 1 188 19 188 29 c 0
 188 44 196 62 225 62 c 2
 244 62 l 1
 268 224 287 301 287 339 c 0
 287 361 280 374 261 374 c 0
 218 374 171 327 153 260 c 0
 148 241 123 82 120 62 c 1
 135 62 l 2
 166 62 170 42 170 32 c 0
 170 17 163 0 134 -0 c 2
 35 -0 l 2
 5 0 1 19 1 29 c 0
EndSplineSet
EndChar

StartChar: n
Encoding: 110 110 159
Width: 525
Flags: HW
TeX: 430 0
ItalicCorrection: 115
HStem: 0 61<50 107 58 107 177 215 324 368 438 476> 376 61<338 380.5>
VStem: 410 69<324.5 342.5>
AnchorPoint: "affricate-below" 488 -222 basechar 0
AnchorPoint: "affricate-above" 627 611 basechar 0
AnchorPoint: "below" 262 0 basechar 0
AnchorPoint: "above" 335 440 basechar 0
LayerCount: 2
Fore
SplineSet
17 29 m 0
 17 61 43 61 58 61 c 2
 107 61 l 1
 158 370 l 1
 119 370 l 2
 106 370 78 370 78 398 c 0
 78 431 105 431 120 431 c 2
 193 431 l 2
 207 431 233 431 233 402 c 0
 233 397 231 390 231 388 c 1
 268 416 312 437 364 437 c 0
 432 437 479 405 479 328 c 0
 479 309 478 303 471 263 c 0
 457 179 451 142 438 61 c 1
 477 61 l 2
 491 61 517 61 517 32 c 0
 517 0 492 0 476 0 c 2
 323 0 l 2
 309 0 283 0 283 29 c 0
 283 61 309 61 324 61 c 2
 368 61 l 1
 408 302 l 2
 409 308 410 321 410 328 c 0
 410 357 402 376 359 376 c 0
 298 376 244 332 220 284 c 1
 208 257 202 220 177 61 c 1
 216 61 l 2
 230 61 256 61 256 32 c 0
 256 0 231 0 215 0 c 2
 57 0 l 2
 43 0 17 0 17 29 c 0
EndSplineSet
EndChar

StartChar: o
Encoding: 111 111 160
Width: 525
Flags: HW
TeX: 430 0
ItalicCorrection: 115
HStem: -6 61<237.5 316 237.5 322.5> 379 61<284.5 358.5>
VStem: 90 70<152.5 242.5 152.5 246.5> 438 68<206 288.5>
AnchorPoint: "ogonek" 262 0 basechar 0
AnchorPoint: "affricate-below" 488 -222 basechar 0
AnchorPoint: "affricate-above" 627 611 basechar 0
AnchorPoint: "below" 262 0 basechar 0
AnchorPoint: "above" 335 440 basechar 0
LayerCount: 2
Fore
SplineSet
90 177 m 0
 90 316 210 440 335 440 c 0
 429 440 506 368 506 256 c 0
 506 113 384 -6 261 -6 c 0
 170 -6 90 61 90 177 c 0
160 189 m 0
 160 116 204 55 271 55 c 0
 361 55 438 159 438 253 c 0
 438 324 392 379 325 379 c 0
 244 379 160 296 160 189 c 0
EndSplineSet
EndChar

StartChar: p
Encoding: 112 112 161
Width: 525
Flags: HW
TeX: 430 222
ItalicCorrection: 115
HStem: -222 61<13 70 21 70 140 178> -6 61<265 325.5 265 346.5> 370 61<112.5 193 120 158>
VStem: 458 69<198 288>
AnchorPoint: "affricate-below" 488 -222 basechar 0
AnchorPoint: "affricate-above" 627 611 basechar 0
AnchorPoint: "below" 255 -222 basechar 0
AnchorPoint: "above" 365 440 basechar 0
LayerCount: 2
Fore
SplineSet
-20 -193 m 0
 -20 -161 5 -161 21 -161 c 2
 70 -161 l 1
 158 370 l 1
 119 370 l 2
 106 370 78 370 78 398 c 0
 78 431 105 431 120 431 c 2
 193 431 l 2
 232 431 232 417 232 392 c 1
 258 411 304 437 361 437 c 0
 452 437 527 364 527 252 c 0
 527 111 407 -6 286 -6 c 0
 227 -6 196 23 174 48 c 1
 140 -161 l 1
 179 -161 l 2
 193 -161 219 -161 219 -190 c 0
 219 -222 194 -222 178 -222 c 2
 20 -222 l 2
 6 -222 -20 -222 -20 -193 c 0
195 167 m 0
 195 140 202 113 217 91 c 0
 228 74 247 55 283 55 c 0
 368 55 458 144 458 252 c 0
 458 324 417 376 355 376 c 0
 299 376 242 337 216 284 c 0
 209 270 195 169 195 167 c 0
EndSplineSet
EndChar

StartChar: q
Encoding: 113 113 162
Width: 525
Flags: HW
TeX: 430 222
ItalicCorrection: 115
HStem: -222 61<291 352 299 352 422 465> -6 61<222 284> 376 61<280.5 359 259 364>
VStem: 73 69<142.5 234 142.5 250.5>
AnchorPoint: "affricate-below" 488 -222 basechar 0
AnchorPoint: "affricate-above" 627 611 basechar 0
AnchorPoint: "below" 207 -222 basechar 0
AnchorPoint: "above" 317 440 basechar 0
LayerCount: 2
Fore
SplineSet
73 181 m 0
 73 320 195 437 323 437 c 0
 395 437 429 395 441 379 c 1
 448 423 450 437 482 437 c 0
 497 437 516 432 516 408 c 0
 516 404 516 403 513 387 c 2
 422 -161 l 1
 465 -161 l 2
 479 -161 506 -161 506 -190 c 0
 506 -222 479 -222 465 -222 c 2
 298 -222 l 2
 284 -222 257 -222 257 -193 c 0
 257 -161 284 -161 299 -161 c 2
 352 -161 l 1
 387 50 l 1
 369 35 320 -6 248 -6 c 0
 150 -6 73 70 73 181 c 0
142 181 m 0
 142 104 191 55 253 55 c 0
 320 55 379 110 406 174 c 0
 412 188 421 255 421 260 c 0
 421 301 402 376 326 376 c 0
 235 376 142 287 142 181 c 0
EndSplineSet
EndChar

StartChar: r
Encoding: 114 114 163
Width: 525
Flags: HW
TeX: 430 0
ItalicCorrection: 115
HStem: 0 61<70 163 78 163 233 338> 370 61<131 249 139 214>
AnchorPoint: "affricate-below" 488 -222 basechar 0
AnchorPoint: "affricate-above" 627 611 basechar 0
AnchorPoint: "below" 208 0 basechar 0
AnchorPoint: "above" 316 440 basechar 0
LayerCount: 2
Fore
SplineSet
36 29 m 0
 36 61 63 61 78 61 c 2
 163 61 l 1
 214 370 l 1
 138 370 l 2
 124 370 98 370 98 399 c 0
 98 431 124 431 139 431 c 2
 249 431 l 2
 263 431 289 431 289 402 c 0
 289 397 285 374 283 360 c 1
 297 374 364 437 460 437 c 0
 472 437 550 437 550 379 c 0
 550 353 531 332 505 332 c 0
 495 332 466 336 465 376 c 1
 359 376 279 292 257 202 c 0
 254 190 238 92 233 61 c 1
 339 61 l 2
 353 61 379 61 379 32 c 0
 379 0 353 0 338 0 c 2
 77 0 l 2
 63 0 36 0 36 29 c 0
EndSplineSet
EndChar

StartChar: s
Encoding: 115 115 164
Width: 525
Flags: HW
TeX: 430 0
ItalicCorrection: 115
HStem: -6 61<262.5 347 251 358.5> 379 61<271 337.5 248.5 370>
VStem: 125 61<296 323.5 296 336.5> 420 61<136 157 114.5 158.5>
AnchorPoint: "affricate-below" 488 -222 basechar 0
AnchorPoint: "affricate-above" 627 611 basechar 0
AnchorPoint: "below" 274 0 basechar 0
AnchorPoint: "above" 330 440 basechar 0
LayerCount: 2
Fore
SplineSet
76 23 m 0
 76 30 88 99 90 112 c 0
 99 165 101 173 131 173 c 0
 161 173 163 158 167 137 c 0
 178 66 228 55 274 55 c 0
 420 55 420 135 420 137 c 0
 420 180 355 190 312 197 c 0
 215 213 125 229 125 311 c 0
 125 362 167 440 330 440 c 0
 345 440 398 440 436 418 c 1
 439 425 445 440 468 440 c 0
 491 440 498 422 498 412 c 0
 498 409 490 362 486 337 c 0
 480 301 478 289 447 289 c 0
 404 289 413 328 414 333 c 1
 413 348 412 379 328 379 c 0
 214 379 186 335 186 312 c 0
 186 280 243 271 293 262 c 1
 371 250 399 245 431 223 c 0
 461 203 481 176 481 138 c 0
 481 91 444 -6 273 -6 c 0
 252 -6 193 -6 147 33 c 1
 127 0 124 -6 106 -6 c 0
 88 -6 76 6 76 23 c 0
EndSplineSet
EndChar

StartChar: t
Encoding: 116 116 165
Width: 525
Flags: HW
TeX: 554 0
ItalicCorrection: 115
HStem: -6 61<272.5 310.5 272.5 349.5> 370 61<125.5 224 133 214 294 452 133 284> 534 20<260 291>
VStem: 172 69<95.5 106 95.5 109>
AnchorPoint: "affricate-below" 488 -222 basechar 0
AnchorPoint: "affricate-above" 627 611 basechar 0
AnchorPoint: "below" 264 0 basechar 0
AnchorPoint: "above" 279 554 basechar 0
LayerCount: 2
Fore
SplineSet
91 398 m 0
 91 431 118 431 133 431 c 2
 224 431 l 1
 240 523 l 2
 243 538 245 554 275 554 c 0
 307 554 310 535 310 526 c 0
 310 524 310 523 308 513 c 2
 294 431 l 1
 453 431 l 2
 467 431 493 431 493 402 c 0
 493 370 467 370 452 370 c 2
 284 370 l 1
 244 128 l 2
 241 111 241 109 241 103 c 0
 241 88 241 55 304 55 c 0
 317 55 388 59 402 134 c 0
 406 159 416 165 437 165 c 0
 466 165 472 149 472 137 c 0
 472 68 401 -6 298 -6 c 0
 235 -6 172 22 172 103 c 0
 172 115 172 117 175 134 c 2
 214 370 l 1
 132 370 l 2
 119 370 91 370 91 398 c 0
EndSplineSet
EndChar

StartChar: u
Encoding: 117 117 166
Width: 525
Flags: HW
TeX: 430 0
ItalicCorrection: 115
HStem: -6 61<229 260> 370 61<112.5 193 120 158 381 419>
VStem: 114 69<84.5 96.5 84.5 97.5>
AnchorPoint: "ogonek" 392 0 basechar 0
AnchorPoint: "affricate-below" 488 -222 basechar 0
AnchorPoint: "affricate-above" 627 611 basechar 0
AnchorPoint: "below" 262 0 basechar 0
AnchorPoint: "above" 335 440 basechar 0
LayerCount: 2
Fore
SplineSet
78 398 m 0
 78 431 105 431 120 431 c 2
 193 431 l 2
 207 431 233 431 233 402 c 0
 233 398 225 353 221 328 c 2
 209 256 l 2
 204 228 200 200 195 172 c 0
 191 146 183 100 183 93 c 0
 183 76 185 55 250 55 c 0
 315 55 362 94 377 130 c 0
 383 146 398 241 419 370 c 1
 380 370 l 2
 367 370 339 370 339 398 c 0
 339 431 366 431 381 431 c 2
 454 431 l 2
 468 431 494 431 494 402 c 0
 494 398 494 397 491 381 c 2
 438 61 l 1
 477 61 l 2
 491 61 517 61 517 32 c 0
 517 0 492 0 476 0 c 2
 403 0 l 2
 387 0 365 0 362 29 c 1
 320 0 277 -6 243 -6 c 0
 215 -6 114 -6 114 92 c 0
 114 103 114 105 117 122 c 2
 158 370 l 1
 119 370 l 2
 106 370 78 370 78 398 c 0
EndSplineSet
EndChar

StartChar: v
Encoding: 118 118 167
Width: 525
Flags: HW
TeX: 430 0
ItalicCorrection: 115
HStem: -4 21<250.5 272> 370 61<123 248 131 156 215 215 215 247 410 433 492 526 492 492>
AnchorPoint: "affricate-below" 488 -222 basechar 0
AnchorPoint: "affricate-above" 627 611 basechar 0
AnchorPoint: "below" 263 0 basechar 0
AnchorPoint: "above" 330 440 basechar 0
LayerCount: 2
Fore
SplineSet
90 399 m 0
 90 431 116 431 131 431 c 2
 248 431 l 2
 262 431 288 431 288 402 c 0
 288 370 263 370 247 370 c 2
 215 370 l 1
 270 48 l 1
 433 370 l 1
 410 370 l 2
 397 370 369 370 369 398 c 0
 369 431 395 431 410 431 c 2
 527 431 l 2
 539 431 568 431 568 403 c 0
 568 370 541 370 526 370 c 2
 492 370 l 1
 318 27 l 2
 302 -4 282 -4 262 -4 c 0
 239 -4 220 -4 214 31 c 2
 156 370 l 1
 130 370 l 2
 116 370 90 370 90 399 c 0
EndSplineSet
EndChar

StartChar: w
Encoding: 119 119 168
Width: 525
Flags: HW
TeX: 430 0
ItalicCorrection: 115
HStem: -4 21<152.5 180.5 333.5 360.5> 370 61<123 128 185 185 185 241 416 462 519 535 535 536>
VStem: 132 55<71 76 71 103.5>
AnchorPoint: "affricate-below" 488 -222 basechar 0
AnchorPoint: "affricate-above" 627 611 basechar 0
AnchorPoint: "below" 264 0 basechar 0
AnchorPoint: "above" 335 440 basechar 0
LayerCount: 2
Fore
SplineSet
82 399 m 0
 82 431 108 431 123 431 c 2
 242 431 l 2
 255 431 283 431 283 403 c 0
 283 370 256 370 241 370 c 2
 185 370 l 1
 187 334 187 277 187 240 c 2
 188 105 l 2
 188 94 187 81 187 71 c 1
 188 71 l 1
 238 184 l 1
 269 249 273 259 307 259 c 0
 342 259 343 250 352 178 c 0
 361 105 361 92 361 72 c 1
 362 72 l 1
 462 370 l 1
 415 370 l 2
 401 370 375 370 375 399 c 0
 375 431 402 431 416 431 c 2
 535 431 l 2
 548 431 576 431 576 403 c 0
 576 370 553 370 519 370 c 1
 402 30 l 2
 390 -4 368 -4 353 -4 c 0
 314 -4 313 6 306 59 c 0
 296 139 296 159 296 169 c 2
 296 186 l 1
 295 186 l 1
 286 151 228 22 218 12 c 0
 204 -4 188 -4 173 -4 c 0
 132 -4 132 3 132 72 c 0
 132 135 132 203 130 266 c 0
 129 289 130 347 128 370 c 1
 107 370 82 370 82 399 c 0
EndSplineSet
EndChar

StartChar: x
Encoding: 120 120 169
Width: 525
Flags: HW
TeX: 430 0
ItalicCorrection: 115
HStem: 0 61<66.5 118 73 118 184 189 341.5 343 343 359 425 460> 370 61<133 258 141 176 245 258 258 260 392 395 463 507 463 463>
AnchorPoint: "affricate-below" 488 -222 basechar 0
AnchorPoint: "affricate-above" 627 611 basechar 0
AnchorPoint: "below" 261 0 basechar 0
AnchorPoint: "above" 335 440 basechar 0
LayerCount: 2
Fore
SplineSet
32 28 m 0
 32 61 58 61 73 61 c 2
 118 61 l 1
 269 222 l 1
 176 370 l 1
 140 370 l 2
 126 370 100 370 100 399 c 0
 100 431 126 431 141 431 c 2
 258 431 l 2
 272 431 298 431 298 402 c 0
 298 370 275 370 245 370 c 1
 304 269 l 1
 395 370 l 1
 376 370 350 370 350 399 c 0
 350 431 377 431 392 431 c 2
 508 431 l 2
 521 431 549 431 549 403 c 0
 549 370 523 370 507 370 c 2
 463 370 l 1
 324 222 l 1
 425 61 l 1
 461 61 l 2
 474 61 501 61 501 33 c 0
 501 0 476 0 460 0 c 2
 343 0 l 2
 329 0 303 0 303 29 c 0
 303 61 324 61 359 61 c 1
 290 184 l 1
 184 61 l 1
 204 61 231 61 231 33 c 0
 231 0 204 0 189 0 c 2
 73 0 l 2
 60 0 32 0 32 28 c 0
EndSplineSet
EndChar

StartChar: y
Encoding: 121 121 170
Width: 525
Flags: HW
TeX: 430 222
ItalicCorrection: 115
HStem: -228 126<67.5 83.5 60.5 128.5> 370 61<126 250 133 159 220 220 220 249 410 432 492 526 492 492>
VStem: 18 89<-141.5 -136>
AnchorPoint: "affricate-below" 488 -222 basechar 0
AnchorPoint: "affricate-above" 627 611 basechar 0
AnchorPoint: "below" 226 -222 basechar 0
AnchorPoint: "above" 340 440 basechar 0
LayerCount: 2
Fore
SplineSet
18 -159 m 0
 18 -113 52 -102 69 -102 c 0
 98 -102 107 -122 107 -137 c 0
 107 -146 102 -160 97 -167 c 1
 114 -166 151 -164 192 -101 c 0
 201 -87 244 -3 244 1 c 0
 244 2 244 4 241 15 c 2
 159 370 l 1
 133 370 l 2
 119 370 92 370 92 399 c 0
 92 431 119 431 133 431 c 2
 250 431 l 2
 263 431 291 431 291 403 c 0
 291 370 264 370 249 370 c 2
 220 370 l 1
 274 123 l 2
 280 95 280 93 283 69 c 1
 313 131 l 1
 432 370 l 1
 410 370 l 2
 396 370 369 370 369 399 c 0
 369 431 396 431 410 431 c 2
 527 431 l 2
 540 431 568 431 568 403 c 0
 568 370 541 370 526 370 c 2
 492 370 l 1
 259 -87 l 2
 231 -142 169 -228 88 -228 c 0
 47 -228 18 -200 18 -159 c 0
EndSplineSet
EndChar

StartChar: z
Encoding: 122 122 171
Width: 525
Flags: HW
TeX: 430 0
ItalicCorrection: 115
HStem: 0 61<146 416 146 439> 370 61<180 429 180 180>
AnchorPoint: "affricate-below" 488 -222 basechar 0
AnchorPoint: "affricate-above" 627 611 basechar 0
AnchorPoint: "below" 254 0 basechar 0
AnchorPoint: "above" 327 440 basechar 0
LayerCount: 2
Fore
SplineSet
37 24 m 0
 37 43 45 56 57 66 c 2
 429 370 l 1
 180 370 l 1
 171 311 169 303 139 303 c 0
 133 303 104 303 104 332 c 0
 104 337 113 387 114 396 c 0
 120 427 128 431 157 431 c 2
 502 431 l 2
 518 431 538 431 538 407 c 0
 538 382 528 374 516 364 c 2
 146 61 l 1
 416 61 l 1
 423 104 423 106 425 114 c 0
 430 140 449 140 459 140 c 0
 491 140 494 121 494 112 c 0
 494 108 486 64 482 41 c 0
 477 9 475 0 439 0 c 2
 74 0 l 2
 59 0 37 0 37 24 c 0
EndSplineSet
EndChar

StartChar: braceleft
Encoding: 123 123 172
Width: 525
Flags: HW
TeX: 694 83
ItalicCorrection: 115
HStem: -83 61<317.303 457.704> 277 59<108.426 244.156> 633 61<429.045 576.722>
VStem: 263 71<88.898 256.419>
LayerCount: 2
Fore
SplineSet
107 304 m 0
 107 334 133 336 143 336 c 2
 147 336 l 1
 207 337 273 351 290 390 c 0
 298 409 319 569 329 599 c 0
 354 670 440 693 544 694 c 0
 573 694 578 676 578 665 c 0
 578 646 567 635 555 633 c 0
 545 631 424 637 398 585 c 0
 393 575 393 568 365 401 c 1
 358 352 337 327 290 303 c 1
 330 278 334 243 334 226 c 0
 334 218 330 194 304 38 c 0
 303 30 301 22 304 14 c 0
 315 -14 375 -22 423 -22 c 0
 455 -22 459 -42 459 -51 c 0
 459 -65 453 -83 424 -83 c 0
 337 -82 232 -67 232 21 c 0
 232 53 263 192 263 229 c 0
 263 233 263 234 262 236 c 0
 245 279 140 272 126 277 c 0
 111 283 107 296 107 304 c 0
EndSplineSet
EndChar

StartChar: bar
Encoding: 124 124 173
Width: 525
Flags: HW
TeX: 694 83
ItalicCorrection: 115
DStem2: 212.864 -83 282.697 -83 0.164359 0.986401<35.8101 763.422>
LayerCount: 2
Fore
SplineSet
219 -48 m 0
 219 -42 220 -36 221 -30 c 2
 335 650 l 2
 337 660 339 694 371 694 c 0
 389 694 406 680 406 659 c 0
 406 654 405 650 404 645 c 2
 289 -45 l 2
 288 -53 284 -83 254 -83 c 0
 236 -83 219 -69 219 -48 c 0
EndSplineSet
EndChar

StartChar: braceright
Encoding: 125 125 174
Width: 525
Flags: HW
TeX: 694 83
ItalicCorrection: 115
HStem: -83 60<48.3753 196.625> 274 62<379.575 516.36> 632 62<168.296 308.569>
VStem: 292 72<354.82 523.013>
LayerCount: 2
Fore
SplineSet
47 -54 m 0
 47 -39 57 -26 71 -23 c 0
 80 -21 203 -26 229 26 c 0
 234 37 235 42 262 210 c 0
 272 274 312 295 336 308 c 1
 312 323 292 348 292 384 c 0
 292 393 294 404 322 573 c 0
 323 581 325 589 322 597 c 0
 316 611 295 632 203 632 c 0
 171 632 167 652 167 662 c 0
 167 674 172 694 203 694 c 0
 297 694 394 673 394 589 c 0
 394 557 364 419 364 382 c 0
 364 378 363 377 364 375 c 0
 376 345 436 337 484 336 c 0
 498 336 518 332 518 307 c 0
 518 277 492 274 483 274 c 2
 480 274 l 1
 329 272 332 206 330 193 c 0
 302 24 301 22 297 10 c 0
 265 -81 133 -83 82 -83 c 1
 52 -82 47 -65 47 -54 c 0
EndSplineSet
EndChar

StartChar: asciitilde
Encoding: 126 126 175
Width: 525
Flags: HW
TeX: 610 0
ItalicCorrection: 115
HStem: 491 67<369.817 469.429> 544 67<237.527 335.019>
LayerCount: 2
Fore
SplineSet
159 522 m 0
 159 536 169 544 176 552 c 0
 201 576 240 611 288 611 c 0x40
 353 611 377 558 420 558 c 0x80
 465 558 492 611 517 611 c 0x40
 530 611 548 596 548 579 c 0
 548 566 540 558 533 551 c 0
 512 530 468 491 418 491 c 0x80
 357 491 324 544 285 544 c 0x40
 243 544 215 491 190 491 c 0x80
 176 491 159 504 159 522 c 0
EndSplineSet
EndChar

StartChar: uni00AD
Encoding: 173 173 176
Width: 525
Flags: HW
TeX: 430 0
ItalicCorrection: 115
HStem: 185 61<211.654 383.828>
VStem: 210 175<186.846 244.154>
LayerCount: 2
Fore
SplineSet
210 213 m 0
 210 227 217 246 246 246 c 2
 349 246 l 2
 381 246 385 227 385 217 c 0
 385 201 378 185 348 185 c 2
 246 185 l 2
 215 185 210 203 210 213 c 0
EndSplineSet
EndChar

StartChar: Abreve
Encoding: 258 258 177
Width: 525
Flags: HW
TeX: 819 0
ItalicCorrection: 115
HStem: 0 62<34.4609 97 169 218.838 315.499 376 446.534 500.653> 164 61<234 366> 603 20<341 394> 652 64<289.675 452.24>
VStem: 206 62<737.939 817.534> 498 62<756.271 817.53>
DStem2: 97 62 169 62 0.370175 0.928962<26.6526 136.214 202.135 476.226> 444 117 366 225 0.0651206 -0.997877<-374.208 -112.85 -51.7843 50.4551>
AnchorPoint: "below" 262 0 basechar 0
AnchorPoint: "above" 394 798 basechar 0
LayerCount: 2
Fore
SplineSet
206 775 m 0
 206 798 213 819 238 819 c 0
 257 819 266 807 268 797 c 0
 269 791 268 784 268 777 c 0
 269 740 311 716 368 716 c 0
 421 716 484 740 498 790 c 0
 500 797 504 819 530 819 c 0
 547 819 560 807 560 790 c 0
 560 741 493 652 367 652 c 0
 270 652 206 705 206 775 c 0
EndSplineSet
Refer: 114 65 S 1 0 0 1 0 0 3
AlternateSubs2: "Stilistic set 01 subtable" Abreve.vn
AlternateSubs2: "Latin alternatives subtable" Abreve.vn
Substitution2: "Latin Vietnamese substitutions subtable" Abreve.vn
EndChar

StartChar: Aogonek
Encoding: 260 260 178
Width: 525
Flags: HW
TeX: 610 222
ItalicCorrection: 115
HStem: -233 63<344.971 429.223> -0 62<34.4609 97 169 218.838 315.426 352 446.626 500.615> 164 61<234 366> 603 20G<341 393.5>
VStem: 275 64<-163.702 -78.1128>
DStem2: 97 62 169 62 0.370175 0.928962<26.6526 136.214 202.135 476.226> 444 117 366 225 0.0649964 -0.997886<-374.199 -112.841 -51.7753 50.464>
AnchorPoint: "above" 365 622 basechar 0
LayerCount: 2
Fore
SplineSet
33 29 m 0
 33 60 59 62 68 62 c 2
 97 62 l 1
 307 589 l 2
 315 608 328 623 354 623 c 2
 377 623 l 2
 410 623 413 604 414 584 c 2
 444 117 l 2
 445 99 447 80 448 62 c 1
 467 62 l 2
 499 62 502 42 502 32 c 0
 502 -2 470 0 465 -1 c 0
 441 -6 339 -70 339 -128 c 0
 339 -153 359 -170 383 -170 c 0
 429 -170 438 -124 466 -124 c 0
 479 -124 496 -134 497 -153 c 1
 497 -179 444 -233 381 -233 c 0
 325 -233 275 -192 275 -131 c 0
 275 -71 320 -27 352 -0 c 1
 332 0 314 6 314 30 c 0
 314 59 340 62 350 62 c 2
 376 62 l 1
 369 164 l 1
 209 164 l 1
 169 62 l 1
 185 62 l 2
 216 62 220 42 220 32 c 0
 220 16 213 0 184 -0 c 2
 68 -0 l 2
 37 0 33 18 33 29 c 0
234 225 m 1
 366 225 l 1
 352 486 l 1
 352 541 l 1
 332 481 l 1
 234 225 l 1
EndSplineSet
Ligature2: "Latin ligatures subtable" A uni0328
EndChar

StartChar: Cacute
Encoding: 262 262 179
Width: 525
Flags: HW
TeX: 778 0
ItalicCorrection: 115
HStem: -11 62<225.828 364.102> 560 62<309.784 444.445> 736 71<446.187 543.375>
VStem: 85 70<134.333 359.169> 441 70<124.326 200.35> 487 70<402.081 512.884>
AnchorPoint: "below" 287 0 basechar 0
AnchorPoint: "above" 407 787 basechar 0
LayerCount: 2
Fore
SplineSet
322 726 m 0
 322 754 335 751 493 802 c 0
 500 804 507 807 514 807 c 0
 534 807 547 789 547 773 c 0
 547 747 522 739 513 736 c 0
 370 690 360 686 353 686 c 0xf0
 333 686 322 705 322 726 c 0
EndSplineSet
Refer: 116 67 S 1 0 0 1 -0 -0 3
EndChar

StartChar: Ccaron
Encoding: 268 268 180
Width: 525
Flags: HW
TeX: 819 0
ItalicCorrection: 115
HStem: -11 62<225.828 364.102> 560 62<309.784 444.445> 636 75<381.985 427.274>
VStem: 85 70<134.333 359.169> 441 70<124.326 200.35> 487 70<402.081 512.884>
AnchorPoint: "below" 287 0 basechar 0
AnchorPoint: "above" 407 784 basechar 0
LayerCount: 2
Fore
SplineSet
269 775 m 0
 269 790 283 804 299 804 c 0
 315 804 317 799 400 711 c 1
 401 711 l 1
 411 720 422 728 507 794 c 0
 512 798 520 804 530 804 c 0xf0
 545 804 559 791 559 775 c 0
 559 758 558 760 422 648 c 0
 413 641 406 636 395 636 c 0
 379 636 382 636 281 750 c 0
 277 755 269 764 269 775 c 0
EndSplineSet
Refer: 116 67 S 1 0 0 1 0 -0 3
EndChar

StartChar: Dcaron
Encoding: 270 270 181
Width: 525
Flags: HW
TeX: 819 0
ItalicCorrection: 115
HStem: -0 62<25.4609 91 162 331.783> 549 62<116.698 173 243 406.175> 636 75<332.184 377.274>
VStem: 471 71<241.859 471.276>
DStem2: 80.6693 -0 151.669 -0 0.164359 0.986401<74.5243 556.709>
AnchorPoint: "below" 217 0 basechar 0
AnchorPoint: "above" 349 795 basechar 0
LayerCount: 2
Fore
SplineSet
219 775 m 0
 219 790 233 804 249 804 c 0
 265 804 268 799 350 711 c 1
 351 711 l 1
 361 720 372 728 457 794 c 0
 462 798 470 804 480 804 c 0
 495 804 509 791 509 775 c 0
 509 761 498 752 492 747 c 0
 367 644 361 636 345 636 c 0
 329 636 333 636 232 750 c 0
 228 755 219 764 219 775 c 0
EndSplineSet
Refer: 117 68 S 1 0 0 1 0 -0 3
EndChar

StartChar: Ecaron
Encoding: 282 282 182
Width: 525
Flags: HW
TeX: 819 0
ItalicCorrection: 115
HStem: -0 62<32.4387 106 177 445.831> 286 61<225 344> 454 157<502.25 558.759> 549 62<123.486 188 258 502> 636 75<346.985 392.274>
VStem: 492 85<474.297 547.14>
DStem2: 95.6693 -0 166.669 -0 0.164359 0.986401<74.5243 301.559 363.538 556.709>
AnchorPoint: "below" 264 0 basechar 0
AnchorPoint: "above" 397 795 basechar 0
LayerCount: 2
Fore
SplineSet
235 775 m 0
 235 790 248 804 264 804 c 0
 280 804 282 799 365 711 c 1
 366 711 l 1
 376 720 387 728 472 794 c 0
 477 798 485 804 495 804 c 0xcc
 510 804 524 791 524 775 c 0
 524 761 513 752 507 747 c 0
 382 644 376 636 360 636 c 0
 344 636 348 636 247 750 c 0
 243 755 235 764 235 775 c 0
EndSplineSet
Refer: 118 69 S 1 0 0 1 0 -0 3
EndChar

StartChar: Eogonek
Encoding: 280 280 183
Width: 525
Flags: HW
TeX: 610 222
ItalicCorrection: 115
HStem: -233 62<315.487 399.708> 0 62<32.4387 106 177 323 395.796 445.814> 286 62<225 344> 454 157<502.25 558.759> 549 62<123.486 188 258 502>
VStem: 246 64<-164.319 -78.0036> 492 85<474.297 547.14>
DStem2: 56.8456 -233 127.846 -233 0.164359 0.986401<310.737 537.772 600.736 792.922>
AnchorPoint: "above" 352 622 basechar 0
LayerCount: 2
Fore
SplineSet
31 29 m 0
 31 59 56 62 66 62 c 0
 79 62 93 62 106 62 c 1
 188 549 l 1
 158 549 l 2
 149 549 122 550 122 578 c 0
 122 594 130 611 159 611 c 2xee
 547 611 l 1
 565 610 577 599 577 582 c 0
 577 571 561 479 559 474 c 0
 554 461 540 454 526 454 c 0xf6
 508 454 492 465 492 481 c 0
 492 490 495 509 502 549 c 1
 258 549 l 1
 225 348 l 1
 355 348 l 1
 362 391 362 404 396 404 c 0
 422 404 429 388 429 375 c 0
 429 360 423 332 411 261 c 0
 409 250 404 229 377 229 c 2
 376 229 l 2
 345 229 341 248 341 256 c 0
 341 261 342 270 344 286 c 1
 214 286 l 1
 177 62 l 1
 443 62 l 1
 456 147 455 172 490 172 c 2
 491 172 l 2
 515 172 526 161 526 142 c 1
 526 142 511 21 500 10 c 0
 492 2 486 0 471 0 c 2xee
 447 0 l 2
 416 0 310 -69 310 -128 c 0
 310 -154 331 -171 355 -171 c 0
 400 -171 410 -124 437 -124 c 0
 453 -124 468 -137 468 -154 c 0
 468 -180 414 -233 352 -233 c 0
 293 -233 246 -189 246 -130 c 0
 246 -76 283 -34 323 0 c 1
 65 0 l 2
 35 0 31 20 31 29 c 0
EndSplineSet
EndChar

StartChar: Gbreve
Encoding: 286 286 184
Width: 525
Flags: HW
TeX: 819 0
ItalicCorrection: 115
HStem: -11 62<210.626 328.706> 0 21G<407.5 424> 208 61<336.483 412 482.098 534.491> 492 130<481.606 534.523> 560 62<299.992 455.355> 652 64<298.358 459.312>
VStem: 82 70<125.254 360.505> 215 62<737.939 817.807> 385 66<1.43507 35.6311> 412 73<152.384 208> 507 62<756.271 817.53>
LayerCount: 2
Fore
SplineSet
82 234 m 0
 82 428 210 622 363 622 c 0xafa0
 408 622 449 617 481 602 c 1
 494 613 503 622 518 622 c 0
 534 622 548 611 548 594 c 0
 548 583 544 563 538 528 c 0
 534 508 531 492 502 492 c 0x37a0
 437 492 507 560 372 560 c 0
 259 560 152 400 152 233 c 0
 152 132 198 51 268 51 c 0
 325 51 382 105 412 208 c 1xaf60
 375 208 l 2
 374 208 373 207 371 207 c 0
 360 207 335 210 335 237 c 0
 335 247 339 269 371 269 c 2
 499 269 l 2
 518 269 536 264 536 240 c 0
 536 230 532 208 500 208 c 2
 485 208 l 1xaf60
 453 18 455 23 451 16 c 0
 443 1 429 0 419 0 c 2
 418 0 l 2x67a0
 397 0 385 12 385 30 c 2
 385 37 l 1
 359 15 318 -11 264 -11 c 0
 155 -11 82 96 82 234 c 0
215 775 m 0
 215 798 221 819 246 819 c 0
 265 819 274 807 276 797 c 0
 277 791 277 784 277 777 c 0
 278 740 319 716 376 716 c 0
 429 716 493 740 507 790 c 0
 509 797 513 819 539 819 c 0
 556 819 569 807 569 790 c 0x2720
 569 741 502 652 376 652 c 2
 375 652 l 2
 278 652 215 705 215 775 c 0
EndSplineSet
EndChar

StartChar: Lacute
Encoding: 313 313 185
Width: 525
Flags: HW
TeX: 778 0
ItalicCorrection: 115
HStem: -0 62<36.4707 118 188 431.049> 549 62<128.566 199 269 369.341> 736 71<286.221 383.375>
DStem2: 107.669 -0 177.669 -0 0.164359 0.986401<74.3599 556.545>
LayerCount: 2
Fore
SplineSet
163 726 m 0
 163 754 175 751 333 802 c 0
 340 804 347 807 354 807 c 0
 374 807 387 789 387 773 c 0
 387 747 362 739 353 736 c 0
 210 690 200 686 193 686 c 0
 173 686 163 705 163 726 c 0
EndSplineSet
Refer: 125 76 S 1 0 0 1 -0 -0 3
EndChar

StartChar: Lcaron
Encoding: 317 317 186
Width: 525
Flags: HW
TeX: 819 0
ItalicCorrection: 115
HStem: 0 62<36.4707 118 188 431.049> 549 62<128.566 199 269 369.341>
VStem: 372 138<594.603 688.925>
DStem2: 107.669 0 177.669 0 0.164359 0.986401<74.3599 556.545>
LayerCount: 2
Fore
SplineSet
361 522 m 0
 361 552 393 544 426 583 c 1
 396 585 372 605 372 639 c 0
 372 675 401 708 441 708 c 0
 482 708 510 675 510 635 c 0
 510 562 431 491 392 491 c 0
 379 491 361 503 361 522 c 0
EndSplineSet
Refer: 125 76 S 1 0 0 1 0 0 3
EndChar

StartChar: Lslash
Encoding: 321 321 187
Width: 525
Flags: HW
TeX: 610 0
ItalicCorrection: 115
HStem: -0 62<36.4707 117 188 431.049> 549 62<128.566 199 269 369.341>
DStem2: 106.669 -0 177.669 -0 0.164359 0.986401<74.5243 252.571 316.175 336.724 403.158 556.709>
LayerCount: 2
Fore
SplineSet
35 29 m 0
 35 60 61 62 72 62 c 2
 117 62 l 1
 149 249 l 1
 131 237 121 231 112 231 c 0
 100 231 82 244 82 263 c 0
 82 294 152 316 162 336 c 0
 167 346 176 425 199 549 c 1
 165 549 l 2
 150 549 127 550 127 578 c 0
 127 593 134 611 163 611 c 2
 334 611 l 2
 347 611 371 609 371 582 c 0
 371 572 367 550 336 549 c 1
 269 549 l 1
 243 386 l 1
 341 452 348 460 360 460 c 0
 378 460 391 441 391 428 c 0
 391 408 390 411 243 313 c 0
 223 299 228 298 224 276 c 0
 195 105 191 83 188 62 c 1
 428 62 l 1
 442 157 442 172 478 172 c 2
 480 172 l 2
 498 172 512 161 512 142 c 0
 512 132 509 121 495 37 c 0
 490 5 480 0 457 -0 c 2
 72 -0 l 2
 40 0 35 19 35 29 c 0
EndSplineSet
EndChar

StartChar: Nacute
Encoding: 323 323 188
Width: 525
Flags: HW
TeX: 778 0
ItalicCorrection: 115
HStem: 0 62<33.4609 102 160 217.828> 549 62<125.483 184 407.452 466 519.773 591.539> 736 71<416.187 513.375>
DStem2: 91.6693 -0 149.669 -0 0.164359 0.986401<72.3876 556.709> 288 570 240 540 0.192378 -0.981321<20.2055 508.532> 374.17 -0 432.001 -0 0.164359 0.986401<71.9789 556.627>
LayerCount: 2
Fore
SplineSet
292 726 m 0
 292 754 305 751 463 802 c 0
 470 804 477 807 484 807 c 0
 504 807 517 789 517 773 c 0
 517 747 492 739 483 736 c 0
 340 690 329 686 322 686 c 0
 302 686 292 705 292 726 c 0
EndSplineSet
Refer: 127 78 S 1 0 0 1 -0 -0 3
EndChar

StartChar: Ncaron
Encoding: 327 327 189
Width: 525
Flags: HW
TeX: 819 0
ItalicCorrection: 115
HStem: 0 62<33.4609 102 160 217.828> 549 62<125.483 184 407.452 466 519.773 591.539> 636 75<358.985 404.274>
DStem2: 91.6693 -0 149.669 -0 0.164359 0.986401<72.3876 556.709> 288 570 240 540 0.192378 -0.981321<20.2055 508.532> 374.17 -0 432.001 -0 0.164359 0.986401<71.9789 556.627>
LayerCount: 2
Fore
SplineSet
246 775 m 0
 246 790 260 804 276 804 c 0
 292 804 294 799 377 711 c 1
 378 711 l 1
 388 720 399 728 484 794 c 0
 489 798 497 804 507 804 c 0
 522 804 536 791 536 775 c 0
 536 761 525 752 519 747 c 0
 394 644 388 636 372 636 c 0
 356 636 359 636 258 750 c 0
 254 755 246 764 246 775 c 0
EndSplineSet
Refer: 127 78 S 1 0 0 1 0 -0 3
EndChar

StartChar: Eng
Encoding: 330 330 190
Width: 525
Flags: HW
TeX: 610 0
ItalicCorrection: 101
HStem: -11 62<329.58 407.94> 0 62<22.5874 87 158 232.875> 549 62<114.422 168> 559 70<304.159 443.125>
VStem: 254 90<70.7045 137.707> 487 70<291.13 513.92>
DStem2: 74.8364 -11 145.836 -11 0.164359 0.986401<85.6759 521.252>
LayerCount: 2
Fore
SplineSet
21 29 m 0
 21 59 47 62 56 62 c 2
 87 62 l 1
 168 549 l 1x6c
 149 549 l 2
 129 549 113 555 113 578 c 0
 113 593 119 611 150 611 c 2
 210 611 l 2x6c
 236 611 245 594 244 578 c 1
 299 622 353 629 381 629 c 0
 491 629 557 541 557 442 c 0
 557 413 557 421 512 151 c 0
 508 129 505 107 497 88 c 0
 478 41 431 -11 364 -11 c 0
 306 -11 254 29 254 89 c 0
 254 133 283 146 302 146 c 0
 324 146 344 130 344 105 c 0
 344 102 344 85 329 70 c 1
 337 60 347 51 365 51 c 0
 393 51 423 80 434 115 c 0
 440 133 487 419 487 440 c 0
 487 509 444 559 379 559 c 0x9c
 304 559 241 495 220 428 c 0
 212 401 158 62 158 62 c 1
 198 62 l 2
 209 62 234 60 234 32 c 0
 234 5 214 0 196 0 c 2
 59 0 l 2
 40 0 21 5 21 29 c 0
EndSplineSet
EndChar

StartChar: Ohungarumlaut
Encoding: 336 336 191
Width: 525
Flags: HW
TeX: 778 0
ItalicCorrection: 115
HStem: -11 61<152.151 395.113> 560 62<229.356 472.815> 686 121<249 274 421.496 452.614> 736 71<355.001 419 542.004 639.516>
VStem: 72 76<22.5 225.984> 478 75<384.88 586>
AnchorPoint: "below" 262 0 basechar 0
AnchorPoint: "above" 392 787 basechar 0
LayerCount: 2
Fore
SplineSet
72 41 m 0
 72 132 140 520 164 580 c 0
 177 613 207 622 354 622 c 2
 384 622 l 2
 554 622 553 604 553 568 c 0
 553 478 494 165 485 120 c 0
 473 66 465 25 450 12 c 0
 427 -8 363 -11 270 -11 c 2
 246 -11 l 2
 77 -11 72 4 72 41 c 0
148 91 m 0
 148 61 154 50 269 50 c 0
 363 50 377 56 396 69 c 1
 424 110 478 479 478 523 c 0
 478 551 472 560 352 560 c 0
 225 560 227 548 215 508 c 1
 196 436 148 143 148 91 c 0
231 726 m 0
 231 754 246 752 401 802 c 0
 408 804 415 807 422 807 c 0xec
 439 807 456 793 456 773 c 0
 456 768 455 764 453 759 c 1
 599 806 603 807 610 807 c 0xdc
 630 807 643 789 643 773 c 0
 643 748 622 740 609 736 c 0xdc
 466 690 455 686 448 686 c 0
 427 686 419 705 419 727 c 2
 419 735 l 1
 358 717 274 686 261 686 c 0
 249 686 231 694 231 726 c 0
EndSplineSet
EndChar

StartChar: Racute
Encoding: 340 340 192
Width: 525
Flags: HW
TeX: 778 0
ItalicCorrection: 115
HStem: -11 62<423.014 458.854> -0 62<26.4519 95 166 224.577> 275 61<212 350.577> 549 62<118.725 177 247 399.079> 736 71<416.187 513.269>
VStem: 353 69<52.3053 207.598> 369 71<85.8862 256.223> 438 71<397.023 513.176> 466 71<55.0531 124.352>
DStem2: 82.8364 -11 153.836 -11 0.164359 0.986401<85.6759 301.696 363.51 567.861>
AnchorPoint: "below" 218 0 basechar 0
AnchorPoint: "above" 350 798 basechar 0
LayerCount: 2
Fore
SplineSet
292 726 m 0
 292 754 305 751 463 802 c 0
 470 804 476 807 483 807 c 0
 503 807 517 789 517 773 c 0
 517 747 491 739 482 736 c 0
 339 690 329 686 322 686 c 0x38
 302 686 292 705 292 726 c 0
EndSplineSet
Refer: 131 82 S 1 0 0 1 -0 -0 3
EndChar

StartChar: Rcaron
Encoding: 344 344 193
Width: 525
Flags: HW
TeX: 819 0
ItalicCorrection: 115
HStem: -11 62<423.014 458.854> -0 62<26.4519 95 166 224.577> 275 61<212 350.577> 549 62<118.725 177 247 399.079> 636 75<317.985 363.274>
VStem: 353 69<52.3053 207.598> 369 71<85.8862 256.223> 438 71<397.023 513.176> 466 71<55.0531 124.352>
DStem2: 82.8364 -11 153.836 -11 0.164359 0.986401<85.6759 301.696 363.51 567.861>
AnchorPoint: "below" 218 0 basechar 0
AnchorPoint: "above" 350 795 basechar 0
LayerCount: 2
Fore
SplineSet
206 775 m 0
 206 790 219 804 235 804 c 0
 251 804 253 799 336 711 c 1
 337 711 l 1
 347 720 358 728 443 794 c 0
 448 798 456 804 466 804 c 0x3880
 481 804 495 791 495 775 c 0
 495 758 494 760 358 648 c 0
 349 641 342 636 331 636 c 0
 315 636 319 636 218 750 c 0
 214 755 206 764 206 775 c 0
EndSplineSet
Refer: 131 82 S 1 0 0 1 0 -0 3
EndChar

StartChar: Sacute
Encoding: 346 346 194
Width: 525
Flags: HW
TeX: 778 0
ItalicCorrection: 115
HStem: -11 61<191.438 364.332> 560 62<257.839 410.55> 736 71<385.187 482.408>
VStem: 55 73<-2.53212 35.6034> 55 94<9 160.858> 80 71<146.699 201.549> 127 67<392.579 501.874> 434 67<116.937 239.028> 471 73<575.49 613.775>
AnchorPoint: "below" 289 0 basechar 0
AnchorPoint: "above" 364 787 basechar 0
LayerCount: 2
Fore
SplineSet
261 726 m 0
 261 754 274 751 432 802 c 0
 439 804 445 807 452 807 c 0
 472 807 486 789 486 773 c 0
 486 747 461 739 452 736 c 0
 309 690 298 686 291 686 c 0xe0
 271 686 261 705 261 726 c 0
EndSplineSet
Refer: 132 83 S 1 0 0 1 -0 -0 3
EndChar

StartChar: Scaron
Encoding: 352 352 195
Width: 525
Flags: HW
TeX: 819 0
ItalicCorrection: 115
HStem: -11 61<191.438 364.332> 560 62<257.839 410.55> 636 75<359.184 404.274>
VStem: 55 73<-2.53212 35.6034> 55 94<9 160.858> 80 71<146.699 201.549> 127 67<392.579 501.874> 434 67<116.937 239.028> 471 73<575.49 613.775>
AnchorPoint: "below" 289 0 basechar 0
AnchorPoint: "above" 364 784 basechar 0
LayerCount: 2
Fore
SplineSet
246 775 m 0
 246 790 260 804 276 804 c 0
 292 804 295 799 377 711 c 1
 378 711 l 1
 388 720 399 728 484 794 c 0
 489 798 497 804 507 804 c 0xe0
 522 804 536 791 536 775 c 0
 536 761 525 752 519 747 c 0
 387 639 386 636 372 636 c 2
 371 636 l 2
 356 636 359 637 259 750 c 0
 255 755 246 764 246 775 c 0
EndSplineSet
Refer: 132 83 S 1 0 0 1 0 -0 3
EndChar

StartChar: Scedilla
Encoding: 350 350 196
Width: 525
Flags: HW
TeX: 610 194
ItalicCorrection: 115
HStem: -208 61<137.5 308.078> -11 21G<78 96> 560 62<257.839 410.615>
VStem: 55 94<9 160.858> 55 73<-2.53212 35.1735> 127 67<392.635 502.096> 323 70<-129.569 -71.9774> 434 67<117.6 240.042> 448 71<408.839 522.061> 471 73<575.49 613.775>
LayerCount: 2
Fore
SplineSet
55 18 m 0
 55 25 54 18 80 172 c 0
 85 201 102 203 117 203 c 0
 148 203 151 183 151 176 c 0
 151 170 149 161 149 146 c 0
 149 69 229 50 288 50 c 0
 379 50 434 125 434 182 c 0xf3
 434 258 360 270 354 272 c 0
 258 295 226 302 206 312 c 0
 163 334 127 377 127 437 c 0
 127 533 220 622 336 622 c 0
 417 622 456 588 471 575 c 1
 486 609 493 622 514 622 c 0
 529 622 544 611 544 593 c 0xe640
 544 586 545 592 519 439 c 0
 517 426 512 407 486 407 c 2
 484 407 l 2
 450 407 448 429 448 441 c 2
 448 446 l 2xe280
 448 537 392 560 335 560 c 0
 258 560 194 503 194 444 c 0
 194 358 307 363 396 334 c 0
 454 315 501 263 501 189 c 0xe7
 501 127 461 18 316 -10 c 1
 372 -24 393 -62 393 -97 c 0
 393 -136 370 -177 310 -195 c 0
 269 -207 228 -208 180 -208 c 2
 169 -208 l 2
 143 -208 136 -191 136 -179 c 0
 136 -168 141 -147 172 -147 c 2
 185 -147 l 2
 207 -147 323 -151 323 -98 c 0
 323 -77 296 -68 282 -67 c 0
 275 -66 247 -66 247 -37 c 0
 247 -26 250 -17 255 -10 c 1
 177 -5 138 28 128 36 c 1xeb
 114 5 107 -11 85 -11 c 0
 71 -11 55 0 55 18 c 0
EndSplineSet
EndChar

StartChar: Tcaron
Encoding: 356 356 197
Width: 525
Flags: HW
TeX: 819 0
ItalicCorrection: 115
HStem: -0 62<141.266 237 308 392.779> 455 156<125.291 173.895 519.125 574.763> 549 62<183.957 318 389 519> 636 75<358.002 404.125>
VStem: 509 85<472.533 547.826>
DStem2: 226.669 -0 297.669 -0 0.164359 0.986401<74.5243 556.545>
AnchorPoint: "below" 262 0 basechar 0
AnchorPoint: "above" 395 795 basechar 0
LayerCount: 2
Fore
SplineSet
246 775 m 0
 246 790 260 804 276 804 c 0
 292 804 293 799 376 711 c 1
 378 711 l 1
 388 720 399 728 484 794 c 0
 489 798 497 804 507 804 c 0x98
 522 804 536 791 536 775 c 0
 536 761 524 752 518 747 c 0
 393 644 388 636 372 636 c 0
 356 636 359 636 258 750 c 0
 254 755 246 764 246 775 c 0
EndSplineSet
Refer: 133 84 S 1 0 0 1 0 -0 3
EndChar

StartChar: Tcommaaccent
Encoding: 354 354 198
Width: 525
Flags: HW
TeX: 610 194
ItalicCorrection: 115
HStem: -208 61<111.255 281.224> -0 62<141.559 226 308 392.441> 455 156<125.291 173.895 519.125 574.763> 549 62<183.957 318 389 519>
VStem: 297 70<-128.282 -72.6263> 509 85<472.533 547.826>
DStem2: 192.011 -208 263.011 -208 0.164359 0.986401<210.426 210.758 285.392 767.413>
LayerCount: 2
Fore
SplineSet
107 484 m 0
 107 493 109 502 121 574 c 0
 125 596 129 611 158 611 c 2
 560 611 l 2
 591 611 594 590 594 581 c 0
 594 580 579 482 575 472 c 0
 570 462 561 455 546 455 c 2
 543 455 l 2xec
 516 455 509 471 509 482 c 0
 509 496 514 524 519 549 c 1
 389 549 l 1
 308 62 l 1
 358 62 l 2
 371 62 394 59 394 32 c 0
 394 15 383 6 378 3 c 0
 369 -2 358 0 349 -0 c 2
 297 -0 l 1
 296 -12 l 1
 347 -27 367 -63 367 -97 c 0
 367 -136 344 -176 287 -194 c 0
 246 -207 205 -208 156 -208 c 2
 142 -208 l 2
 120 -208 110 -194 110 -179 c 0
 110 -165 116 -147 147 -147 c 2
 163 -147 l 2
 231 -147 297 -137 297 -98 c 0
 297 -81 279 -71 259 -68 c 0
 251 -67 221 -68 221 -38 c 0
 221 -32 222 -22 226 -0 c 1xdc
 176 -0 l 2
 163 0 140 2 140 29 c 0
 140 39 143 61 174 62 c 1
 237 62 l 1
 318 549 l 1
 187 549 l 1xdc
 177 477 175 455 144 455 c 2
 142 455 l 2
 111 455 107 474 107 484 c 0
EndSplineSet
EndChar

StartChar: Uhungarumlaut
Encoding: 368 368 199
Width: 525
Flags: HW
TeX: 778 0
ItalicCorrection: 115
HStem: -11 62<211.657 328.983> 549 62<102.436 166 232.617 310.548 407.477 471 542 615.548> 736 71<335.221 432.534 553.481 650.375>
VStem: 105 70<89.8319 310.305>
DStem2: 72.6765 -11 143.342 -11 0.164359 0.986401<192.104 567.723> 376.842 -11 448.343 -11 0.164359 0.986401<127.104 567.86>
AnchorPoint: "below" 267 0 basechar 0
AnchorPoint: "above" 394 798 basechar 0
LayerCount: 2
Fore
SplineSet
212 726 m 0
 212 754 224 751 382 802 c 0
 389 804 396 807 403 807 c 0
 423 807 436 789 436 773 c 0
 436 747 412 739 402 736 c 0
 259 690 249 686 242 686 c 0
 222 686 212 705 212 726 c 0
430 725 m 0
 430 753 443 752 600 802 c 0
 607 804 614 807 621 807 c 0
 641 807 654 789 654 773 c 0
 654 747 629 739 620 736 c 0
 477 690 467 686 460 686 c 0
 436 686 430 712 430 725 c 0
EndSplineSet
Refer: 134 85 S 1 0 0 1 -0 -0 3
EndChar

StartChar: Uring
Encoding: 366 366 200
Width: 525
Flags: HW
TeX: 819 0
ItalicCorrection: 115
HStem: -11 62<211.657 328.983> 549 62<102.436 166 232.617 310.548 430.637 471 542 615.539> 590 62<329.751 413.118> 766 61<340.571 431.573>
VStem: 105 70<89.8319 310.305> 262 60<660.656 746.089> 439 59<671.838 758.056>
DStem2: 72.6765 -11 143.342 -11 0.164359 0.986401<192.104 567.723> 376.842 -11 448.343 -11 0.164359 0.986401<127.104 567.86>
LayerCount: 2
Fore
SplineSet
101 578 m 0
 101 609 127 611 136 611 c 2
 276 611 l 2
 307 611 312 594 312 582 c 0
 312 552 286 549 276 549 c 2
 236 549 l 1
 234 534 231 519 229 504 c 2
 180 209 l 2
 178 195 175 181 175 166 c 0
 175 101 212 51 266 51 c 0
 323 51 389 108 410 188 c 0
 419 223 451 441 471 549 c 1xde
 445 549 l 2xde
 433 549 406 550 406 578 c 0
 406 586 409 594 414 602 c 1
 399 596 381 590 362 590 c 0xbe
 301 590 262 633 262 689 c 0
 262 764 331 827 400 827 c 0
 454 827 498 788 498 729 c 0
 498 679 469 636 430 610 c 1
 437 610 445 611 452 611 c 2
 582 611 l 2
 613 611 617 592 617 582 c 0
 617 552 592 549 582 549 c 2
 542 549 l 1
 487 221 l 2
 478 169 468 123 426 72 c 0
 389 27 330 -11 266 -11 c 0
 170 -11 105 68 105 167 c 0
 105 188 109 205 112 225 c 2
 159 512 l 2
 161 524 164 537 166 549 c 1
 138 549 l 2
 118 549 101 555 101 578 c 0
322 700 m 0
 322 670 345 652 372 652 c 0
 408 652 439 685 439 718 c 0
 439 745 419 766 390 766 c 0xbe
 359 766 322 740 322 700 c 0
EndSplineSet
EndChar

StartChar: Ydieresis
Encoding: 376 376 201
Width: 525
Flags: HW
TeX: 819 0
ItalicCorrection: 115
HStem: 0 62<168.452 238 308 366.577> 549 62<116.686 172 250 299.517 418.62 458 535 600.577> 719 100<249.852 327.971 454.08 531.148>
VStem: 238 101<730.544 807.049> 442 101<730.951 807.228>
DStem2: 250 549 172 549 0.298275 -0.95448<0 229.731> 227.669 0 297.669 0 0.164359 0.986401<74.3599 248.133>
AnchorPoint: "below" 262 0 basechar 0
AnchorPoint: "above" 397 810 basechar 0
LayerCount: 2
Fore
SplineSet
238 765 m 0
 238 796 266 819 292 819 c 0
 320 819 339 796 339 772 c 0
 339 741 311 719 285 719 c 0
 260 719 238 737 238 765 c 0
442 765 m 0
 442 794 468 819 496 819 c 0
 521 819 543 801 543 773 c 0
 543 742 515 719 489 719 c 0
 466 719 442 737 442 765 c 0
EndSplineSet
Refer: 138 89 S 1 0 0 1 0 0 3
EndChar

StartChar: Zacute
Encoding: 377 377 202
Width: 525
Flags: HW
TeX: 778 0
ItalicCorrection: 115
HStem: -0 62<148 424.014> 549 62<218.086 477> 736 71<417.187 514.269>
DStem2: 68 65 148 62 0.645447 0.763805<49.3443 633.669>
AnchorPoint: "below" 265 0 basechar 0
AnchorPoint: "above" 397 798 basechar 0
LayerCount: 2
Fore
SplineSet
293 726 m 0
 293 754 306 751 464 802 c 0
 471 804 477 807 484 807 c 0
 504 807 518 789 518 773 c 0
 518 747 492 739 483 736 c 0
 340 690 330 686 323 686 c 0
 303 686 293 705 293 726 c 0
EndSplineSet
Refer: 139 90 S 1 0 0 1 -0 -0 3
EndChar

StartChar: Zcaron
Encoding: 381 381 203
Width: 525
Flags: HW
TeX: 819 0
ItalicCorrection: 115
HStem: -0 62<148 424.014> 549 62<218.086 477> 636 75<364.002 409.75>
DStem2: 68 65 148 62 0.645447 0.763805<49.3443 633.669>
AnchorPoint: "below" 265 0 basechar 0
AnchorPoint: "above" 397 795 basechar 0
LayerCount: 2
Fore
SplineSet
252 775 m 0
 252 790 266 804 282 804 c 0
 298 804 299 799 382 711 c 1
 384 711 l 1
 394 720 404 728 489 794 c 0
 494 798 503 804 513 804 c 0
 528 804 542 791 542 775 c 0
 542 761 530 752 524 747 c 0
 399 644 394 636 378 636 c 0
 362 636 365 636 264 750 c 0
 260 755 252 764 252 775 c 0
EndSplineSet
Refer: 139 90 S 1 0 0 1 0 -0 3
EndChar

StartChar: Zdotaccent
Encoding: 379 379 204
Width: 525
Flags: HW
TeX: 778 0
ItalicCorrection: 115
HStem: 0 62<148 424.014> 549 62<218.086 477> 699 99<371.494 449.537>
VStem: 360 101<710.197 786.803>
DStem2: 68 65 148 62 0.645447 0.763805<49.3443 633.669>
AnchorPoint: "below" 265 0 basechar 0
AnchorPoint: "above" 396 789 basechar 0
LayerCount: 2
Fore
SplineSet
360 745 m 0
 360 772 384 798 414 798 c 0
 438 798 461 780 461 752 c 0
 461 725 437 699 407 699 c 0
 379 699 360 721 360 745 c 0
EndSplineSet
Refer: 139 90 S 1 0 0 1 -0 0 3
EndChar

StartChar: IJ
Encoding: 306 306 205
Width: 525
Flags: HW
TeX: 610 0
ItalicCorrection: 115
HStem: -11 62<308.144 377.392> 0 62<16.2573 80 150 202.653> 549 62<108.347 161 231 294.501 408.752 475 542.781 591.341>
VStem: 232 75<54.1877 104.208>
DStem2: 67.8364 -11 137.836 -11 0.164359 0.986401<85.5116 567.697> 381.507 -11 452.673 -11 0.164359 0.986401<76.5627 567.751>
LayerCount: 2
Fore
SplineSet
15 30 m 0
 15 56 33 62 53 62 c 2
 80 62 l 1x70
 161 549 l 1
 143 549 l 2
 112 549 107 567 107 579 c 0
 107 594 114 611 143 611 c 2
 260 611 l 2
 291 611 296 592 296 582 c 0
 296 566 288 549 258 549 c 2
 231 549 l 1
 150 62 l 1
 168 62 l 2
 200 62 204 42 204 32 c 0
 204 17 197 0 168 0 c 2
 50 0 l 2
 20 0 15 18 15 30 c 0
232 88 m 0
 232 138 266 146 281 146 c 0
 307 146 323 127 323 105 c 0
 323 88 315 77 307 69 c 1
 307 68 l 1
 314 59 323 51 338 51 c 0
 351 51 393 61 408 148 c 2
 469 509 l 1
 475 549 l 1
 445 549 l 2
 433 549 407 549 407 578 c 0
 407 588 411 611 443 611 c 2
 557 611 l 2xb0
 569 611 593 610 593 582 c 0
 593 571 589 550 558 549 c 1
 546 549 l 1
 540 508 533 466 477 135 c 0
 456 9 370 -11 337 -11 c 0
 281 -11 232 28 232 88 c 0
EndSplineSet
Ligature2: "Latin Dutch ligatures subtable" I J
EndChar

StartChar: Idotaccent
Encoding: 304 304 206
Width: 525
Flags: HW
TeX: 778 0
ItalicCorrection: 115
HStem: 0 62<84.4406 237 308 448.88> 549 62<176.736 318 388 540.804> 699 99<347.494 425.537>
VStem: 336 101<710.197 786.803>
DStem2: 226.669 0 297.669 0 0.164359 0.986401<74.5243 556.545>
LayerCount: 2
Fore
SplineSet
336 745 m 0
 336 772 360 798 390 798 c 0
 414 798 437 780 437 752 c 0
 437 725 413 699 383 699 c 0
 355 699 336 721 336 745 c 0
EndSplineSet
Refer: 122 73 S 1 0 0 1 -0 0 3
EndChar

StartChar: dcroat
Encoding: 273 273 207
Width: 525
Flags: HW
TeX: 610 0
ItalicCorrection: 115
HStem: -5 61<171.456 325.663 438 514.483> 304 62<219.161 391.123> 427 61<207.426 428 509 587.724> 549 62<370.81 449>
VStem: 63 70<93.8636 223.402> 369 155<551.852 608.948>
DStem2: 356.681 -5 427.185 -5 0.164359 0.986401<99.2188 273.475 348.743 437.847 511.33 560.549>
LayerCount: 2
Fore
SplineSet
63 155 m 0
 63 263 165 366 297 366 c 0
 345 366 383 355 414 339 c 1
 428 427 l 1
 241 427 l 2
 212 427 206 443 206 455 c 0
 206 487 232 488 242 488 c 2
 439 488 l 1
 449 549 l 1
 406 549 l 2
 396 549 369 550 369 578 c 0
 369 593 377 611 406 611 c 2
 488 611 l 2
 518 611 524 593 524 581 c 0
 524 572 511 497 509 488 c 1
 552 488 l 2
 564 488 589 487 589 459 c 0
 589 429 566 427 552 427 c 2
 499 427 l 1
 499 426 l 1
 438 62 l 1
 482 62 l 2
 490 62 518 61 518 32 c 0
 518 19 511 0 480 -0 c 2
 398 -0 l 2
 387 0 364 0 362 30 c 1
 327 10 286 -5 234 -5 c 0
 120 -5 63 77 63 155 c 0
133 156 m 0
 133 96 179 56 241 56 c 0
 320 56 367 105 377 127 c 0
 382 139 401 264 401 265 c 0
 401 289 350 304 303 304 c 0
 207 304 133 229 133 156 c 0
EndSplineSet
AlternateSubs2: "Stilistic set 01 subtable" dcroat.vn
AlternateSubs2: "Latin alternatives subtable" dcroat.vn
Substitution2: "Latin Vietnamese substitutions subtable" dcroat.vn
EndChar

StartChar: section
Encoding: 167 167 208
Width: 525
Flags: HW
TeX: 610 222
ItalicCorrection: 115
HStem: -227 61<165.774 311.105> 554 62<276.401 422.633>
VStem: 80 70<-149.143 -67.3861> 113 57<142.957 239.347> 157 57<401.848 499.073> 374 57<-110.792 -13.4705> 418 57<149.365 246.542> 438 70<456.308 538.143>
LayerCount: 2
Fore
SplineSet
80 -113 m 0
 80 -70 105 -64 117 -64 c 0
 136 -64 151 -79 151 -97 c 0
 151 -99 150 -104 150 -110 c 0xe4
 150 -144 183 -166 229 -166 c 0
 302 -166 374 -116 374 -57 c 0
 374 6 272 21 218 47 c 0
 187 61 113 101 113 182 c 0xd4
 113 230 143 297 218 332 c 1
 206 341 157 377 157 443 c 0
 157 542 258 616 360 616 c 0
 443 616 508 571 508 502 c 0
 508 462 486 453 471 453 c 0
 451 453 437 468 437 486 c 0
 437 488 438 492 438 498 c 0xc9
 438 541 391 554 358 554 c 0
 276 554 214 498 214 445 c 0
 214 410 245 384 326 358 c 0
 465 313 475 237 475 207 c 0xca
 475 162 450 94 370 56 c 1
 370 55 l 1
 409 27 431 -10 431 -54 c 0
 431 -143 342 -227 228 -227 c 0
 145 -227 80 -182 80 -113 c 0
170 185 m 0xd2
 170 126 280 96 291 96 c 0
 330 96 418 137 418 204 c 0
 418 268 297 292 297 292 c 1
 258 292 170 253 170 185 c 0xd2
EndSplineSet
EndChar

StartChar: aogonek
Encoding: 261 261 210
Width: 525
Flags: HW
TeX: 430 222
ItalicCorrection: 115
HStem: -233 62<345.288 428.987> -5 61<163.157 331.14> -0 67<439.681 526.429> 217 60<241.966 390> 320 113<167.444 223.322> 377 62<231 374.761>
VStem: 75 70<74.4767 159.158> 142 89<327.907 374.265> 275 64<-163.842 -76.442> 403 71<277.342 351.209>
AnchorPoint: "above" 296 440 basechar 0
LayerCount: 2
Fore
SplineSet
75 115 m 0
 75 230 234 272 372 277 c 1
 400 277 l 1
 402 286 403 296 403 305 c 0
 403 345 365 371 325 376 c 0
 321 377 309 377 293 377 c 0xd6c0
 274 377 251 376 231 372 c 1
 231 331 200 320 184 320 c 0
 158 320 142 341 142 364 c 0
 142 391 164 422 217 433 c 0x99c0
 241 438 265 439 289 439 c 2x95c0
 302 439 l 2
 431 439 474 358 474 305 c 0
 474 294 472 281 436 67 c 1
 474 56 529 74 529 32 c 0
 529 22 525 1 495 -0 c 1
 476 -0 l 2xb5c0
 464 0 463 0 448 -8 c 0
 357 -58 339 -104 339 -128 c 0
 339 -154 360 -171 384 -171 c 0
 428 -171 440 -123 466 -123 c 0
 479 -123 498 -135 498 -153 c 0
 498 -178 444 -233 381 -233 c 0
 326 -233 275 -193 275 -130 c 0
 275 -58 341 -7 382 22 c 1
 373 32 l 1
 372 32 l 1
 334 7 275 -5 223 -5 c 0
 138 -5 75 43 75 115 c 0
145 116 m 0xd2c0
 145 83 176 56 232 56 c 0
 290 56 355 75 372 117 c 0
 375 126 384 177 390 217 c 1
 249 212 145 177 145 116 c 0xd2c0
EndSplineSet
EndChar

StartChar: dcaron
Encoding: 271 271 213
Width: 525
Flags: HW
TeX: 610 0
ItalicCorrection: 115
HStem: -5 61<157.555 257.908 373 434.766> 374 62<215.567 318.63> 549 62<320.436 384> 625 20G<523 564.5>
VStem: 58 70<88.4683 268.294> 319 140<555.906 609.228> 474 138<531.975 626.337>
DStem2: 291.85 -5 362.357 -5 0.164359 0.986401<113.587 301.245 408.556 561.612>
LayerCount: 2
Fore
SplineSet
58 171 m 0
 58 318 165 436 269 436 c 0
 312 436 336 418 359 398 c 1
 384 549 l 1
 356 549 l 2
 336 549 319 555 319 578 c 0
 319 594 326 611 355 611 c 2
 425 611 l 2
 452 611 459 598 459 581 c 0
 459 575 458 569 457 563 c 2
 381 109 l 2
 378 93 375 78 373 62 c 1
 402 62 l 2
 419 62 438 56 438 33 c 0
 438 20 433 0 404 -0 c 2
 331 -0 l 1
 314 1 298 7 298 33 c 1
 270 11 238 -5 198 -5 c 0
 114 -5 58 72 58 171 c 0
128 171 m 0
 128 105 158 56 202 56 c 0
 273 56 314 149 321 174 c 0
 324 186 340 281 340 293 c 0
 340 322 323 374 272 374 c 0
 206 374 128 284 128 171 c 0
466 459 m 0
 466 487 492 480 528 520 c 1
 498 522 474 542 474 576 c 0
 474 612 503 645 543 645 c 0
 586 645 612 610 612 572 c 0
 612 500 534 428 496 428 c 0
 481 428 466 443 466 459 c 0
EndSplineSet
EndChar

StartChar: eogonek
Encoding: 281 281 215
Width: 525
Flags: HW
TeX: 430 222
ItalicCorrection: 115
HStem: -233 62<249.533 333.615> 191 61<171 434> 377 62<262.37 402.019>
VStem: 88 70<116.315 190.635> 180 64<-164.367 -76.5533> 435 70<254.274 344.472>
AnchorPoint: "above" 337 440 basechar 0
LayerCount: 2
Fore
SplineSet
88 184 m 0
 88 326 213 439 337 439 c 2
 338 439 l 2
 411 439 505 403 505 271 c 0
 505 194 489 191 463 191 c 2
 158 191 l 1
 157 100 228 56 296 56 c 0
 349 56 390 82 411 116 c 0
 422 134 430 137 448 137 c 0
 475 137 481 121 481 110 c 0
 481 102 477 90 461 69 c 0
 427 26 351 -9 347 -11 c 0
 262 -59 244 -105 244 -128 c 0
 244 -154 264 -171 288 -171 c 0
 333 -171 344 -124 370 -124 c 0
 385 -124 402 -138 402 -155 c 0
 402 -178 350 -233 285 -233 c 0
 229 -233 180 -193 180 -131 c 0
 180 -76 218 -32 253 -3 c 1
 139 16 88 104 88 184 c 0
171 252 m 1
 434 252 l 1
 434 259 435 265 435 272 c 0
 435 356 384 377 337 377 c 0
 270 377 204 330 171 252 c 1
EndSplineSet
EndChar

StartChar: gbreve
Encoding: 287 287 216
Width: 525
Flags: HW
TeX: 638 222
ItalicCorrection: 115
HStem: -228 61<121.082 347.321> 4 58<156.836 397.532> 116 61<203.218 319.907> 346 96<497.618 562.284> 375 61<236.434 353.326> 498 65<256.016 455.547>
VStem: 14 59<-129.349 -41.4469> 96 59<65.7719 140.995> 111 70<198.82 320.194> 186 62<576.93 637.531> 376 70<232.354 353.174> 424 58<-110.411 -21.1963>
LayerCount: 2
Fore
SplineSet
186 599 m 0
 186 633 205 639 218 639 c 0
 247 639 248 614 248 603 c 0
 248 565 322 563 351 563 c 0xe640
 518 563 454 639 509 639 c 0
 527 639 539 626 539 610 c 0
 539 568 490 498 349 498 c 0
 216 498 186 559 186 599 c 0
EndSplineSet
Refer: 152 103 S 1 0 0 1 -0 0 3
EndChar

StartChar: lacute
Encoding: 314 314 217
Width: 525
Flags: HW
TeX: 778 0
ItalicCorrection: 115
HStem: 0 62<63.3265 237 308 470.346> 549 62<155.485 318> 736 71<398.187 495.375>
DStem2: 226.669 0 297.669 0 0.164359 0.986401<74.5243 556.545>
LayerCount: 2
Fore
SplineSet
274 726 m 0
 274 754 287 751 445 802 c 0
 452 804 459 807 466 807 c 0
 486 807 499 789 499 773 c 0
 499 747 474 739 465 736 c 0
 322 690 312 686 305 686 c 0
 285 686 274 705 274 726 c 0
EndSplineSet
Refer: 157 108 S 1 0 0 1 -0 -0 3
EndChar

StartChar: lcaron
Encoding: 318 318 218
Width: 525
Flags: HW
TeX: 610 0
ItalicCorrection: 115
HStem: 0 62<63.3265 237 308 470.346> 428 60<432.452 509.952> 549 62<155.485 318> 625 20G<518 558.5>
VStem: 470 138<531.232 625.453>
DStem2: 226.669 0 297.669 0 0.164359 0.986401<74.5243 556.545>
LayerCount: 2
Fore
SplineSet
431 459 m 0
 431 485 457 487 463 488 c 0
 489 492 507 505 522 520 c 1
 491 523 470 545 470 576 c 0
 470 610 496 645 540 645 c 0
 577 645 608 614 608 572 c 0
 608 498 528 428 463 428 c 0
 443 428 431 444 431 459 c 0
EndSplineSet
Refer: 157 108 S 1 0 0 1 -0 0 3
EndChar

StartChar: lslash
Encoding: 322 322 219
Width: 525
Flags: HW
TeX: 610 0
ItalicCorrection: 115
HStem: -0 62<63.3265 237 308 470.653> 549 62<155.423 318>
DStem2: 226.669 -0 297.669 -0 0.164359 0.986401<74.5243 280.848 349.167 368.064 432.421 554.12> 287 361 273 277 0.829001 0.559247<-187.49 -58.5828 96.5194 224.601>
AnchorPoint: "above" 305 611 basechar 0
LayerCount: 2
Fore
SplineSet
62 29 m 0
 62 60 86 62 99 62 c 2
 237 62 l 1
 273 277 l 1
 184 217 177 210 162 210 c 0
 144 210 132 228 132 242 c 0
 132 261 135 259 287 361 c 1
 318 549 l 1
 197 549 l 2
 188 549 178 548 170 552 c 0
 161 557 154 566 154 579 c 0
 154 609 180 611 189 611 c 2
 357 611 l 2
 388 611 394 594 394 583 c 0
 394 576 391 558 367 415 c 1
 459 476 462 482 477 482 c 0
 495 482 507 464 507 450 c 0
 507 431 499 429 399 362 c 0
 383 352 368 341 352 331 c 1
 308 62 l 1
 432 62 l 2
 445 62 472 62 472 32 c 0
 472 17 465 0 436 -0 c 2
 97 -0 l 2
 66 0 62 20 62 29 c 0
EndSplineSet
EndChar

StartChar: eng
Encoding: 331 331 222
Width: 525
Flags: HW
TeX: 430 222
ItalicCorrection: 115
HStem: -227 120<267.239 331.624> -0 62<17.4355 105 176 253.628> 369 61<78.1777 157 277.744 405.626>
VStem: 409 70<238.571 367.032>
DStem2: 56.8454 -227 127.845 -227 0.164359 0.986401<304.654 562.394> 318.844 -227 390.51 -227 0.164359 0.986401<111.009 560.78>
AnchorPoint: "affricate-below" 488 -222 basechar 0
AnchorPoint: "affricate-above" 627 611 basechar 0
AnchorPoint: "below" 224 -222 basechar 0
AnchorPoint: "above" 334 440 basechar 0
LayerCount: 2
Fore
SplineSet
16 29 m 0
 16 60 40 62 55 62 c 2
 105 62 l 1
 157 369 l 1
 112 369 l 2
 104 369 77 369 77 398 c 0
 77 429 104 430 113 430 c 2
 200 430 l 2
 222 430 231 419 231 399 c 0
 231 395 231 391 230 387 c 1
 259 410 305 436 365 436 c 0
 436 436 479 399 479 328 c 0
 479 308 476 289 473 269 c 2
 431 16 l 2
 407 -126 384 -227 314 -227 c 0
 276 -227 251 -196 251 -160 c 0
 251 -124 276 -107 299 -107 c 0
 314 -107 324 -113 332 -120 c 1
 343 -78 346 -65 360 20 c 2
 403 275 l 2
 409 312 409 316 409 327 c 0
 409 360 395 374 358 374 c 0
 288 374 230 317 212 263 c 0
 206 244 179 82 176 62 c 1
 219 62 l 2
 231 62 255 60 255 32 c 0
 255 2 230 0 220 -0 c 2
 53 -0 l 2
 33 0 16 5 16 29 c 0
EndSplineSet
EndChar

StartChar: ohungarumlaut
Encoding: 337 337 223
Width: 525
Flags: HW
TeX: 610 0
ItalicCorrection: 115
HStem: -5 61<210.357 339.078> 377 62<254.641 389.523> 506 133 619 20G<585.5 600>
VStem: 89 72<107.903 275.766> 192 222<546 605> 437 70<163.192 327.395>
AnchorPoint: "below" 262 0 basechar 0
AnchorPoint: "above" 365 619 basechar 0
LayerCount: 2
Fore
SplineSet
401 544 m 0
 401 572 407 568 567 633 c 0
 574 636 581 639 590 639 c 0xde
 610 639 624 623 624 605 c 0
 624 576 612 576 454 512 c 0
 447 509 440 506 432 506 c 0xee
 414 506 401 526 401 544 c 0
EndSplineSet
Refer: 51 180 S 1 0 0 1 -102 0 2
Refer: 160 111 S 1 0 0 1 0 0 3
EndChar

StartChar: sacute
Encoding: 347 347 226
Width: 525
Flags: HW
TeX: 610 0
ItalicCorrection: 115
HStem: -6 62<196.887 379.485> 377 62<216.454 405.214> 506 133
VStem: 124 62<284.607 349.838> 260 222<546 605> 412 85<308.293 367.005> 418 62<89.27 171.439 289.825 363.157>
AnchorPoint: "below" 274 0 basechar 0
AnchorPoint: "above" 360 619 basechar 0
LayerCount: 2
Fore
SplineSet
76 24 m 0
 76 30 94 145 97 153 c 0
 102 166 116 173 130 173 c 0
 143 173 155 167 161 157 c 0
 172 137 159 56 273 56 c 0
 338 56 393 67 413 113 c 0
 417 122 418 130 418 137 c 0xf2
 418 187 324 195 268 204 c 0
 233 210 124 225 124 310 c 0
 124 344 145 397 210 421 c 0
 254 438 306 439 330 439 c 0
 368 439 398 436 435 417 c 1
 439 423 448 439 467 439 c 0
 482 439 497 428 497 409 c 0xf4
 497 399 482 313 480 308 c 0xf2
 475 295 460 288 446 288 c 0
 434 288 412 294 412 319 c 2
 412 331 l 2xf4
 412 351 406 377 328 377 c 0
 215 377 186 339 186 313 c 0
 186 261 331 266 397 240 c 0
 428 228 480 199 480 138 c 0xf2
 480 97 457 -6 274 -6 c 0
 229 -6 184 2 146 33 c 1
 136 15 127 -5 105 -5 c 0
 90 -5 76 7 76 24 c 0
EndSplineSet
Refer: 51 180 S 1 0 0 1 -34 0 2
EndChar

StartChar: scaron
Encoding: 353 353 227
Width: 525
Flags: HW
TeX: 638 0
ItalicCorrection: 115
HStem: -6 62<196.887 381.765> 377 62<216.454 405.214> 484 155
VStem: 124 62<285.452 349.838> 207 289<599 624> 412 85<308.293 367.005> 418 62<90.0782 171.33 289.825 363.157>
AnchorPoint: "below" 274 0 basechar 0
AnchorPoint: "above" 360 619 basechar 0
LayerCount: 2
Fore
SplineSet
76 24 m 0
 76 30 94 145 97 153 c 0
 102 166 116 173 130 173 c 0
 143 173 155 167 161 157 c 0
 172 137 159 56 273 56 c 0
 338 56 393 67 413 113 c 0
 416 120 418 129 418 137 c 0xf2
 418 199 279 195 210 217 c 0
 173 228 124 255 124 310 c 0
 124 344 145 397 210 421 c 0
 254 438 306 439 330 439 c 0
 368 439 398 436 435 417 c 1
 442 427 450 439 467 439 c 0
 483 439 497 427 497 409 c 0xf4
 497 399 482 313 480 308 c 0xf2
 475 295 460 288 446 288 c 0
 434 288 412 294 412 319 c 2
 412 331 l 2xf4
 412 351 406 377 328 377 c 0
 215 377 186 339 186 313 c 0
 186 261 331 266 397 240 c 0
 433 226 480 195 480 138 c 0xf2
 480 94 455 -6 274 -6 c 0
 229 -6 184 2 146 33 c 1
 136 15 127 -5 105 -5 c 0
 90 -5 76 7 76 24 c 0
EndSplineSet
Refer: 57 711 S 1 0 0 1 -12 0 2
EndChar

StartChar: scedilla
Encoding: 351 351 228
Width: 525
Flags: HW
TeX: 430 194
ItalicCorrection: 115
HStem: -208 61<103.411 294.335> -5 21G<97.5 116> 377 62<216.796 405.214>
VStem: 124 62<284.558 349.895> 311 70<-127.791 -75.1512> 412 85<308.293 367.005> 418 62<89.4777 171.181 289.825 363.157>
LayerCount: 2
Fore
SplineSet
76 24 m 0
 76 30 94 145 97 153 c 0
 102 166 116 173 130 173 c 0
 143 173 155 167 161 157 c 0
 172 137 161 57 270 57 c 2
 280 57 l 2
 396 57 418 108 418 137 c 0xfa
 418 187 324 194 267 204 c 0
 232 210 124 225 124 310 c 0
 124 344 145 397 210 421 c 0
 254 438 306 439 330 439 c 0
 368 439 398 436 435 417 c 1
 442 427 450 439 467 439 c 0
 483 439 497 427 497 409 c 0xfc
 497 399 482 313 480 308 c 0xfa
 475 295 460 288 446 288 c 0
 434 288 412 294 412 319 c 2
 412 331 l 2xfc
 412 351 406 377 328 377 c 0
 206 377 186 333 186 313 c 0
 186 239 428 292 474 171 c 0
 478 160 480 149 480 138 c 0
 480 106 463 16 331 -2 c 1
 299 -5 l 1
 299 -10 l 1
 300 -11 381 -26 381 -97 c 0
 381 -202 239 -208 149 -208 c 2
 134 -208 l 2
 116 -208 102 -198 102 -179 c 0
 102 -168 106 -148 135 -147 c 1xfa
 157 -147 l 2
 196 -147 311 -146 311 -99 c 0
 311 -82 288 -71 265 -68 c 0
 252 -67 224 -68 224 -36 c 0
 224 -26 227 -15 229 -2 c 1
 177 7 153 28 146 33 c 1
 136 15 127 -5 105 -5 c 0
 90 -5 76 7 76 24 c 0
EndSplineSet
EndChar

StartChar: tcaron
Encoding: 357 357 229
Width: 525
Flags: HW
TeX: 610 0
ItalicCorrection: 115
HStem: -5 61<247.644 367.169> 369 61<92.4857 213 294 491.357> 433 21G<430.5 463.5> 630 20G<481.5 523.5>
VStem: 171 70<62.9505 239.085> 239 70<432.969 551.554> 400 72<87.1523 163.183> 433 138<538.826 630.575>
DStem2: 150.682 -5 221.682 -5 0.164359 0.986401<154.235 379.156 452.64 549.328>
LayerCount: 2
Fore
SplineSet
91 398 m 0
 91 413 99 430 128 430 c 2
 223 430 l 1
 224 431 l 1
 225 440 227 449 239 522 c 0xf4
 242 543 252 553 272 553 c 2
 275 553 l 2
 303 553 309 537 309 526 c 0xf4
 309 516 306 494 294 430 c 1
 451 430 l 2
 469 430 493 430 493 401 c 0
 493 387 485 369 459 369 c 2
 284 369 l 1
 277 317 241 121 241 100 c 0
 241 74 254 56 303 56 c 0
 352 56 391 88 400 126 c 0
 403 138 403 165 434 165 c 2
 436 165 l 2
 466 165 472 147 472 135 c 0
 472 73 406 -5 297 -5 c 0
 190 -5 171 57 171 99 c 0xfa
 171 128 213 369 213 369 c 1
 126 369 l 2
 95 369 91 388 91 398 c 0
409 465 m 0
 409 500 441 481 486 525 c 1
 456 528 433 550 433 582 c 0
 433 616 461 650 502 650 c 0
 545 650 571 616 571 577 c 0xf1
 571 501 487 433 440 433 c 0
 421 433 409 451 409 465 c 0
EndSplineSet
EndChar

StartChar: tcommaaccent
Encoding: 355 355 230
Width: 525
Flags: HW
TeX: 554 194
ItalicCorrection: 115
HStem: -208 61<125.347 334.289> -3 60<245.556 265 336 364.77> 369 61<92.4857 214 294 491.295>
VStem: 171 70<64.0787 237.791> 399 73<87.4199 162.79>
DStem2: 214 369 284 369 0.172096 0.98508<-220.112 0>
LayerCount: 2
Fore
SplineSet
91 398 m 0
 91 413 99 430 128 430 c 2
 224 430 l 1
 224 431 l 1
 238 539 243 553 273 553 c 2
 276 553 l 2
 299 553 309 542 309 523 c 0
 309 515 298 452 294 430 c 1
 451 430 l 2
 468 430 493 429 493 401 c 0
 493 392 489 369 459 369 c 2
 284 369 l 1
 277 317 241 121 241 101 c 0
 241 75 253 58 295 57 c 1
 305 57 l 2
 353 57 390 89 399 124 c 0
 404 144 402 165 437 165 c 0
 466 165 472 148 472 136 c 0
 472 105 446 18 336 -2 c 1
 335 -9 l 1
 426 -26 431 -79 431 -97 c 0
 431 -212 245 -208 174 -208 c 2
 156 -208 l 2
 137 -208 124 -197 124 -179 c 0
 124 -164 131 -147 160 -147 c 2
 177 -147 l 1
 213 -146 338 -148 358 -107 c 0
 362 -100 361 -90 355 -85 c 0
 325 -55 260 -82 260 -38 c 0
 260 -32 262 -23 265 -3 c 1
 236 2 171 17 171 99 c 0
 171 122 214 368 214 369 c 1
 126 369 l 2
 95 369 91 388 91 398 c 0
EndSplineSet
EndChar

StartChar: uhungarumlaut
Encoding: 369 369 231
Width: 525
Flags: HW
TeX: 610 0
ItalicCorrection: 115
HStem: 0 62<184.619 337.38 439 516.318> 369 61<78.4767 157 340.826 419> 506 133 619 20G<585.5 600>
VStem: 77 155<373.203 427.984> 113 70<62.436 227.461> 192 222<546 605> 339 155<371.353 428.055>
DStem2: 377 133 439 62 0.161854 0.986815<-44.4754 239.686>
AnchorPoint: "below" 262 0 basechar 0
AnchorPoint: "above" 366 628 basechar 0
LayerCount: 2
Fore
SplineSet
401 544 m 0
 401 572 407 568 567 633 c 0
 574 636 581 639 590 639 c 0xd0
 610 639 623 623 623 605 c 0
 623 576 612 576 454 512 c 0
 447 509 440 506 432 506 c 0xe0
 414 506 401 526 401 544 c 0
EndSplineSet
Refer: 51 180 S 1 0 0 1 -102 0 2
Refer: 166 117 S 1 0 0 1 0 0 3
EndChar

StartChar: uring
Encoding: 367 367 232
Width: 525
Flags: HW
TeX: 638 0
ItalicCorrection: 115
HStem: 0 62<184.619 337.38 439 516.318> 369 61<78.4767 157 340.826 419> 473 36<312.555 386.91> 612 35<324.855 396.512>
VStem: 77 155<373.203 427.984> 113 70<62.436 227.461> 247 58<514.335 596.516> 339 155<371.353 428.055> 405 59<524.328 607.044>
DStem2: 377 133 439 62 0.161854 0.986815<-44.4754 239.686>
LayerCount: 2
Fore
SplineSet
247 549 m 0
 247 600 304 647 370 647 c 0
 423 647 464 616 464 571 c 0
 464 523 411 473 341 473 c 0
 288 473 247 504 247 549 c 0
305 552 m 0
 305 527 323 509 346 509 c 0xf280
 379 509 405 539 405 569 c 0
 405 592 389 612 363 612 c 0
 331 612 305 580 305 552 c 0
EndSplineSet
Refer: 166 117 S 1 0 0 1 -0 0 3
EndChar

StartChar: ydieresis
Encoding: 255 255 233
Width: 525
Flags: HW
TeX: 610 222
ItalicCorrection: 115
HStem: -227 125<34.9214 94.0317> 369 61<93.295 163.656 220 289.574 370.327 432 492 565.574> 511 100<215.08 292.971 418.951 496.506>
VStem: 17 88<-164.544 -111.836> 203 101<522.544 599.228> 407 101<522.354 599.148>
DStem2: 220 369 159 369 0.223649 -0.97467<0 305.74> 217 -53 280 -47 0.454054 0.890974<-118.507 60.8278 140.011 473.613>
AnchorPoint: "below" 226 -222 basechar 0
AnchorPoint: "above" 367 600 basechar 0
LayerCount: 2
Fore
SplineSet
203 557 m 0
 203 586 229 611 257 611 c 0
 280 611 304 592 304 564 c 0
 304 533 276 511 250 511 c 0
 225 511 203 529 203 557 c 0
407 557 m 0
 407 583 430 611 461 611 c 0
 489 611 508 588 508 564 c 0
 508 537 484 511 454 511 c 0
 427 511 407 532 407 557 c 0
EndSplineSet
Refer: 170 121 S 1 0 0 1 0 0 3
EndChar

StartChar: zcaron
Encoding: 382 382 235
Width: 525
Flags: HW
TeX: 638 0
ItalicCorrection: 115
HStem: 0 62<148 418.08> 369 61<177.944 428> 619 20G<239 254 473 485.5>
DStem2: 60 68 148 62 0.775921 0.63083<64.4961 475.419>
AnchorPoint: "below" 254 0 basechar 0
AnchorPoint: "above" 358 628 basechar 0
LayerCount: 2
Fore
SplineSet
218 609 m 0
 218 624 231 639 247 639 c 0
 261 639 264 634 350 559 c 1
 467 640 468 639 478 639 c 0
 493 639 507 625 507 609 c 0
 507 598 501 591 488 581 c 0
 356 484 359 484 346 484 c 0
 331 484 326 492 231 584 c 0
 223 592 218 599 218 609 c 0
EndSplineSet
Refer: 171 122 S 1 0 0 1 -0 0 3
EndChar

StartChar: ij
Encoding: 307 307 237
Width: 525
Flags: HW
TeX: 610 222
ItalicCorrection: 115
HStem: -227 120<282.084 346.369> -0 62<43.6724 153 224 312.438> 369 61<110.137 204 374.347 457> 511 100<217.029 295.148 469.691 547.509>
VStem: 206 101<522.951 599.24> 262 89<-161.893 -114.782> 373 159<372.688 428.239> 459 100<522.494 600.538>
DStem2: 356.005 -227 428.676 -227 0.164359 0.986401<95.6795 604.494>
LayerCount: 2
Fore
SplineSet
42 29 m 0
 42 38 45 62 77 62 c 2
 153 62 l 1
 204 369 l 1
 142 369 l 2
 116 369 109 386 109 398 c 0
 109 429 135 430 145 430 c 2
 256 430 l 1
 270 428 279 415 279 405 c 0
 279 376 247 210 224 62 c 1
 277 62 l 2
 291 62 314 59 314 32 c 0
 314 21 309 0 278 -0 c 2
 78 -0 l 2
 47 0 42 17 42 29 c 0
206 557 m 0
 206 589 234 611 260 611 c 0
 283 611 307 593 307 565 c 0xf8
 307 534 279 511 253 511 c 0
 230 511 206 529 206 557 c 0
262 -158 m 0
 262 -124 286 -107 309 -107 c 0
 332 -107 351 -123 351 -148 c 0xf6
 351 -154 350 -158 349 -163 c 1
 359 -152 l 1
 368 -132 l 1
 377 -101 l 1
 457 369 l 1
 410 369 l 2
 396 369 373 370 373 398 c 0
 373 413 380 430 409 430 c 2
 497 430 l 2
 524 430 532 419 532 401 c 0
 532 396 531 391 530 385 c 2
 465 -9 l 2
 452 -85 439 -227 338 -227 c 0
 297 -227 262 -200 262 -158 c 0
459 558 m 0
 459 590 486 611 512 611 c 0
 535 611 559 593 559 565 c 0
 559 534 532 511 506 511 c 0xf1
 483 511 459 530 459 558 c 0
EndSplineSet
Ligature2: "Latin Dutch ligatures subtable" i j
EndChar

StartChar: exclamdown
Encoding: 161 161 238
Width: 525
Flags: HW
TeX: 388 222
ItalicCorrection: 115
HStem: 264 125<273.25 360.327>
VStem: 170 127<-212.883 -110.615> 237 101<121.148 185.053> 253 126<283.591 368.943>
LayerCount: 2
Fore
SplineSet
170 -178 m 0xc0
 170 -165 174 -151 176 -140 c 2
 237 155 l 2xa0
 240 170 245 187 272 187 c 2
 303 187 l 2
 334 187 338 168 338 156 c 0xa0
 338 150 337 144 336 138 c 2
 297 -165 l 2
 289 -225 244 -233 228 -233 c 0
 199 -233 170 -212 170 -178 c 0xc0
253 321 m 0
 253 356 284 389 322 389 c 0
 356 389 379 363 379 331 c 0
 379 297 349 264 311 264 c 0x90
 276 264 253 291 253 321 c 0
EndSplineSet
EndChar

StartChar: questiondown
Encoding: 191 191 239
Width: 525
Flags: HW
TeX: 388 222
ItalicCorrection: 115
HStem: -227 61<126.109 333.313> 289 99<263.937 342.063>
VStem: 43 70<-150.273 -72.2301> 253 100<300.041 376.959> 356 89<-126.717 -66.4525>
LayerCount: 2
Fore
SplineSet
43 -116 m 0
 43 -84 58 -53 81 -31 c 0
 107 -5 150 6 193 63 c 0
 257 148 209 206 276 206 c 0
 295 206 316 203 316 175 c 0
 316 166 314 158 313 154 c 0
 307 117 296 32 166 -50 c 0
 158 -55 113 -76 113 -116 c 0
 113 -146 144 -166 215 -166 c 0
 313 -166 344 -141 361 -127 c 1
 358 -121 356 -113 356 -106 c 0
 356 -82 375 -59 403 -59 c 0
 425 -59 445 -75 445 -100 c 0
 445 -151 398 -227 214 -227 c 2
 212 -227 l 2
 71 -227 43 -161 43 -116 c 0
253 335 m 0
 253 366 280 388 306 388 c 0
 329 388 353 370 353 342 c 0
 353 311 326 289 300 289 c 0
 277 289 253 307 253 335 c 0
EndSplineSet
EndChar

StartChar: sterling
Encoding: 163 163 240
Width: 525
Flags: HW
TeX: 610 0
ItalicCorrection: 115
HStem: -5 127<77.34 178.026> -5 65<274.391 384.058> 275 61<146.332 215 296 384.724> 557 62<358.097 430.975>
VStem: 405 65<81.5096 148.617> 439 70<456.116 552.183>
DStem2: 168.345 -5 239.345 -5 0.164359 0.986401<150.862 283.86 357.344 552.621>
LayerCount: 2
Fore
SplineSet
49 48 m 0
 49 87 89 122 143 122 c 0
 156 122 170 120 183 117 c 1
 192 144 l 1
 215 275 l 1
 184 275 l 2
 169 275 145 276 145 304 c 0
 145 335 171 336 183 336 c 2
 225 336 l 1
 229 366 248 472 252 486 c 0
 277 574 349 619 405 619 c 0xb8
 476 619 509 556 509 491 c 0
 509 461 506 414 459 414 c 0
 436 414 417 430 417 455 c 0
 417 479 432 490 439 495 c 1
 438 523 432 557 404 557 c 0
 370 557 332 518 319 468 c 0
 316 455 300 362 296 336 c 1xb4
 349 336 l 2
 363 336 386 334 386 307 c 0
 386 293 380 276 352 275 c 1
 286 275 l 1
 261 124 262 128 247 94 c 1
 266 86 318 60 350 60 c 0
 392 60 398 125 405 136 c 0
 411 145 424 150 437 150 c 0
 454 150 470 142 470 121 c 0
 470 92 434 -5 347 -5 c 0x78
 293 -5 235 27 207 39 c 1
 185 17 148 -5 108 -5 c 0
 74 -5 49 16 49 48 c 0
EndSplineSet
EndChar

StartChar: Aacute
Encoding: 193 193 242
Width: 525
Flags: HW
TeX: 778 0
ItalicCorrection: 115
HStem: -0 62<34.4609 97 169 218.838 315.499 376 446.534 500.653> 164 61<234 366> 603 20<341 394> 736 71<447.187 544.408>
DStem2: 97 62 169 62 0.370175 0.928962<26.6526 136.214 202.135 476.226> 444 117 366 225 0.0651206 -0.997877<-374.208 -112.85 -51.7843 50.4551>
AnchorPoint: "below" 262 0 basechar 0
AnchorPoint: "above" 392 786 basechar 0
LayerCount: 2
Fore
SplineSet
323 726 m 0
 323 754 336 751 494 802 c 0
 501 804 507 807 514 807 c 0
 534 807 548 789 548 773 c 0
 548 747 523 739 514 736 c 0
 371 690 360 686 353 686 c 0
 333 686 323 705 323 726 c 0
EndSplineSet
Refer: 114 65 S 1 0 0 1 -0 -0 3
AlternateSubs2: "Stilistic set 01 subtable" Aacute.vn
AlternateSubs2: "Latin alternatives subtable" Aacute.vn
Substitution2: "Latin Vietnamese substitutions subtable" Aacute.vn
EndChar

StartChar: Acircumflex
Encoding: 194 194 243
Width: 525
Flags: HW
TeX: 819 0
ItalicCorrection: 115
HStem: 0 62<34.4609 97 169 218.838 315.499 376 446.534 500.653> 164 61<234 366> 603 20<341 394>
DStem2: 97 62 169 62 0.370175 0.928962<26.6526 136.214 202.135 476.226> 444 117 366 225 0.0651206 -0.997877<-374.208 -112.85 -51.7843 50.4551>
AnchorPoint: "below" 262 0 basechar 0
AnchorPoint: "above" 395 803 basechar 0
LayerCount: 2
Fore
SplineSet
206 698 m 0
 206 714 219 722 227 727 c 0
 364 817 372 824 385 824 c 2
 388 824 l 2
 399 824 399 822 513 727 c 0
 519 722 532 713 532 698 c 0
 532 681 511 659 494 659 c 0
 480 659 480 660 382 751 c 1
 381 751 l 1
 272 674 l 2
 263 668 253 659 240 659 c 0
 219 659 206 684 206 698 c 0
EndSplineSet
Refer: 114 65 S 1 0 0 1 -0 0 3
AlternateSubs2: "Stilistic set 01 subtable" Acircumflex.vn
AlternateSubs2: "Latin alternatives subtable" Acircumflex.vn
Substitution2: "Latin Vietnamese substitutions subtable" Acircumflex.vn
EndChar

StartChar: Atilde
Encoding: 195 195 244
Width: 525
Flags: HW
TeX: 819 0
ItalicCorrection: 115
HStem: 0 62<34.4609 97 169 218.838 315.499 376 446.534 500.653> 164 61<234 366> 603 20<341 394> 690 67<411.992 506.64> 753 66<268.802 364.071>
DStem2: 97 62 169 62 0.370175 0.928962<26.6526 136.214 202.135 476.226> 444 117 366 225 0.0651206 -0.997877<-374.208 -112.85 -51.7843 50.4551>
AnchorPoint: "below" 262 0 basechar 0
AnchorPoint: "above" 394 798 basechar 0
LayerCount: 2
Fore
SplineSet
179 721 m 0
 179 734 189 743 199 753 c 0
 229 782 272 819 321 819 c 0xe8
 387 819 417 757 458 757 c 0xf0
 502 757 542 819 566 819 c 0xe8
 578 819 597 807 597 788 c 0
 597 776 591 769 579 757 c 0
 551 729 504 690 455 690 c 0xf0
 390 690 358 753 318 753 c 0xe8
 273 753 235 691 210 691 c 0
 193 691 179 706 179 721 c 0
EndSplineSet
Refer: 114 65 S 1 0 0 1 -0 0 3
AlternateSubs2: "Stilistic set 01 subtable" Atilde.vn
AlternateSubs2: "Latin alternatives subtable" Atilde.vn
Substitution2: "Latin Vietnamese substitutions subtable" Atilde.vn
EndChar

StartChar: Adieresis
Encoding: 196 196 245
Width: 525
Flags: HW
TeX: 819 0
ItalicCorrection: 115
HStem: -0 62<34.4609 97 169 218.838 315.499 376 446.534 500.653> 164 61<234 366> 603 20<341 394> 719 100<249.852 327.971 453.042 531.148>
VStem: 238 101<730.544 807.049> 442 101<730.951 807.456>
DStem2: 97 62 169 62 0.370175 0.928962<26.6526 136.214 202.135 476.226> 444 117 366 225 0.0651206 -0.997877<-374.208 -112.85 -51.7843 50.4551>
AnchorPoint: "below" 262 0 basechar 0
AnchorPoint: "above" 394 798 basechar 0
LayerCount: 2
Fore
SplineSet
238 765 m 0
 238 796 266 819 292 819 c 0
 320 819 339 796 339 772 c 0
 339 741 311 719 285 719 c 0
 260 719 238 737 238 765 c 0
442 766 m 0
 442 797 470 819 496 819 c 0
 521 819 543 801 543 773 c 0
 543 742 515 719 489 719 c 0
 464 719 442 738 442 766 c 0
EndSplineSet
Refer: 114 65 S 1 0 0 1 0 -0 3
EndChar

StartChar: Aring
Encoding: 197 197 246
Width: 525
Flags: HW
TeX: 778 0
ItalicCorrection: 115
HStem: -0 62<34.4609 97 169 218.838 315.499 376 448 500.653> 164 61<234 366> 766 61<335.526 418.326>
VStem: 250 59<632.543 738.057> 428 59<651.034 757.151>
DStem2: 97 62 169 62 0.370764 0.928727<26.695 136.256 202.177 476.266> 446 95 366 225 0.0649964 -0.997886<-396.283 -134.925 -73.8588 28.3805>
LayerCount: 2
Fore
SplineSet
33 29 m 0
 33 60 59 62 68 62 c 2
 97 62 l 1
 301 573 l 1
 253 601 250 654 250 671 c 0
 250 755 320 827 390 827 c 0
 448 827 487 780 487 720 c 0
 487 658 450 608 414 584 c 1
 446 95 l 1
 448 62 l 1
 466 62 l 2
 497 62 502 44 502 32 c 0
 502 17 495 0 466 -0 c 2
 349 -0 l 2
 318 0 314 18 314 29 c 0
 314 45 322 62 352 62 c 2
 376 62 l 1
 369 164 l 1
 209 164 l 1
 169 62 l 1
 185 62 l 2
 216 62 220 42 220 32 c 0
 220 16 213 0 184 -0 c 2
 68 -0 l 2
 37 0 33 18 33 29 c 0
234 225 m 1
 366 225 l 1
 352 486 l 1
 352 541 l 1
 332 481 l 1
 234 225 l 1
309 680 m 0
 309 643 332 624 357 624 c 0
 396 624 428 667 428 709 c 0
 428 741 409 766 380 766 c 0
 349 766 309 729 309 680 c 0
EndSplineSet
EndChar

StartChar: AE
Encoding: 198 198 247
Width: 525
Flags: HW
TeX: 610 0
ItalicCorrection: 115
HStem: -0 62<28.7031 81 139 177.676 229.712 273 331 456.092> 182 62<206 293> 286 61<378 526.469> 549 62<227.296 260 318 354 412 526>
VStem: 27 152<1.85047 59.8906> 516 72<467.061 547.322>
DStem2: 81 62 139 62 0.344991 0.938606<20.0095 147.822 213.95 518.854> 262.669 -0 320.669 -0 0.164359 0.986401<72.3876 184.51 247.475 299.423 361.237 556.545>
AnchorPoint: "below" 261 0 basechar 0
AnchorPoint: "above" 395 622 basechar 0
LayerCount: 2
Fore
SplineSet
27 29 m 0
 27 44 35 62 64 62 c 2
 81 62 l 1
 260 549 l 1
 259 549 l 2
 234 549 226 567 226 579 c 0
 226 590 230 611 262 611 c 2
 552 611 l 2
 583 611 588 591 588 582 c 0
 588 572 574 492 572 482 c 0
 569 464 557 455 544 455 c 0
 529 455 516 468 516 481 c 0
 516 490 519 513 526 549 c 1
 412 549 l 1
 378 347 l 1
 488 347 l 2
 489 347 490 348 491 348 c 0
 514 348 528 338 528 319 c 0
 528 304 521 286 493 286 c 2
 368 286 l 1
 331 62 l 1
 453 62 l 1
 465 139 465 171 494 171 c 0
 509 171 522 160 522 144 c 0
 522 129 517 100 506 36 c 0
 502 11 496 0 469 -0 c 2
 263 -0 l 2
 238 0 228 14 228 29 c 0
 228 39 232 62 265 62 c 2
 273 62 l 1
 293 182 l 1
 183 182 l 1
 139 62 l 1
 143 62 l 2
 155 62 179 60 179 32 c 0
 179 23 176 0 145 -0 c 2
 63 -0 l 2
 32 0 27 19 27 29 c 0
206 244 m 1
 304 244 l 1
 354 549 l 1
 318 549 l 1
 206 244 l 1
EndSplineSet
EndChar

StartChar: Ccedilla
Encoding: 199 199 248
Width: 525
Flags: HW
TeX: 610 194
ItalicCorrection: 115
HStem: -208 61<129.547 298.159> 560 62<312.108 444.447>
VStem: 85 70<132.579 360.822> 315 70<-128.641 -71.8637> 441 71<124.406 200.088> 487 70<401.957 512.884>
AnchorPoint: "above" 379 622 basechar 0
LayerCount: 2
Fore
SplineSet
85 240 m 0
 85 441 229 622 379 622 c 0
 441 622 477 596 503 573 c 1
 522 603 530 622 552 622 c 0
 569 622 582 609 582 593 c 0
 582 585 583 592 557 437 c 0
 555 424 552 400 522 400 c 2
 520 400 l 2
 510 400 494 400 487 419 c 0xf4
 483 429 488 447 482 474 c 0
 473 517 441 560 383 560 c 2
 382 560 l 2
 277 560 155 413 155 240 c 0
 155 133 208 51 289 51 c 0
 358 51 426 104 441 172 c 0
 444 182 448 202 475 202 c 2
 478 202 l 2
 505 202 512 186 512 173 c 0
 512 138 466 13 309 -10 c 1
 365 -25 385 -62 385 -97 c 0
 385 -137 362 -178 302 -196 c 0
 261 -208 221 -208 173 -208 c 2
 161 -208 l 2
 135 -208 128 -191 128 -179 c 0
 128 -166 135 -147 164 -147 c 0xf8
 172 -147 180 -147 188 -147 c 0
 221 -147 315 -144 315 -98 c 0
 315 -83 301 -70 275 -67 c 0
 269 -66 239 -67 239 -37 c 0
 239 -25 242 -18 249 -8 c 1
 138 14 85 127 85 240 c 0
EndSplineSet
EndChar

StartChar: Eacute
Encoding: 201 201 250
Width: 525
Flags: HW
TeX: 778 0
ItalicCorrection: 115
HStem: -0 62<32.4387 106 177 445.831> 286 61<225 344> 454 157<502.25 558.759> 549 62<123.486 188 258 502> 736 71<444.221 541.375>
VStem: 492 85<474.297 547.14>
DStem2: 95.6693 -0 166.669 -0 0.164359 0.986401<74.5243 301.559 363.538 556.709>
AnchorPoint: "below" 264 0 basechar 0
AnchorPoint: "above" 397 798 basechar 0
LayerCount: 2
Fore
SplineSet
321 726 m 0
 321 754 333 751 491 802 c 0
 498 804 505 807 512 807 c 0
 532 807 545 789 545 773 c 0
 545 747 520 739 511 736 c 0
 368 690 358 686 351 686 c 0xcc
 331 686 321 705 321 726 c 0
EndSplineSet
Refer: 118 69 S 1 0 0 1 -0 -0 3
AlternateSubs2: "Stilistic set 01 subtable" Eacute.vn
AlternateSubs2: "Latin alternatives subtable" Eacute.vn
Substitution2: "Latin Vietnamese substitutions subtable" Eacute.vn
EndChar

StartChar: Ecircumflex
Encoding: 202 202 251
Width: 525
Flags: HW
TeX: 819 0
ItalicCorrection: 115
HStem: 0 62<32.4387 106 177 445.831> 286 61<225 344> 454 157<502.25 558.759> 549 62<123.486 188 258 502>
VStem: 492 85<474.297 547.14>
DStem2: 95.6693 0 166.669 0 0.164359 0.986401<74.5243 301.559 363.538 556.709>
AnchorPoint: "below" 264 0 basechar 0
AnchorPoint: "above" 400 815 basechar 0
LayerCount: 2
Fore
SplineSet
216 698 m 0
 216 714 229 722 237 727 c 0
 374 817 382 824 395 824 c 2
 398 824 l 2
 409 824 409 822 523 727 c 0
 529 722 542 713 542 698 c 0
 542 681 521 659 504 659 c 0
 490 659 490 660 392 751 c 1
 391 751 l 1
 282 674 l 2
 273 668 263 659 250 659 c 0xc8
 229 659 216 684 216 698 c 0
EndSplineSet
Refer: 118 69 S 1 0 0 1 -0 0 3
AlternateSubs2: "Stilistic set 01 subtable" Ecircumflex.vn
AlternateSubs2: "Latin alternatives subtable" Ecircumflex.vn
Substitution2: "Latin Vietnamese substitutions subtable" Ecircumflex.vn
EndChar

StartChar: Iacute
Encoding: 205 205 254
Width: 525
Flags: HW
TeX: 778 0
ItalicCorrection: 115
HStem: 0 62<84.4406 237 308 448.88> 549 62<176.736 318 388 540.804> 736 71<411.187 508.408>
DStem2: 226.669 0 297.669 0 0.164359 0.986401<74.5243 556.545>
AnchorPoint: "below" 262 0 basechar 0
AnchorPoint: "above" 395 798 basechar 0
LayerCount: 2
Fore
SplineSet
287 726 m 0
 287 754 300 751 458 802 c 0
 465 804 471 807 478 807 c 0
 498 807 512 789 512 773 c 0
 512 747 487 739 478 736 c 0
 335 690 324 686 317 686 c 0
 297 686 287 705 287 726 c 0
EndSplineSet
Refer: 122 73 S 1 0 0 1 -0 -0 3
AlternateSubs2: "Stilistic set 01 subtable" Iacute.vn
AlternateSubs2: "Latin alternatives subtable" Iacute.vn
Substitution2: "Latin Vietnamese substitutions subtable" Iacute.vn
EndChar

StartChar: Icircumflex
Encoding: 206 206 255
Width: 525
Flags: HW
TeX: 819 0
ItalicCorrection: 115
HStem: 0 62<84.4406 237 308 448.88> 549 62<176.736 318 388 540.804> 751 73<360.509 412.444>
DStem2: 226.669 0 297.669 0 0.164359 0.986401<74.5243 556.545>
AnchorPoint: "below" 262 0 basechar 0
AnchorPoint: "above" 398 815 basechar 0
LayerCount: 2
Fore
SplineSet
215 698 m 0
 215 714 229 722 237 727 c 0
 374 817 382 824 395 824 c 2
 397 824 l 2
 408 824 409 822 523 727 c 0
 529 722 541 713 541 698 c 0
 541 681 520 659 503 659 c 0
 490 659 490 660 391 751 c 1
 390 751 l 1
 378 742 366 734 270 667 c 0
 266 664 258 659 249 659 c 0
 228 659 215 684 215 698 c 0
EndSplineSet
Refer: 122 73 S 1 0 0 1 0 0 3
EndChar

StartChar: Eth
Encoding: 208 208 257
Width: 525
Flags: HW
TeX: 610 0
ItalicCorrection: 115
HStem: -0 62<25.4609 91 162 331.783> 269 62<69.4519 126 207 348.096> 549 62<116.698 173 243 406.175>
VStem: 471 71<241.859 471.276>
DStem2: 80.6693 -0 151.669 -0 0.164359 0.986401<74.5243 272.792 347.262 556.709>
LayerCount: 2
Fore
SplineSet
24 29 m 0
 24 59 49 62 59 62 c 2
 91 62 l 1
 126 269 l 1
 104 269 l 2
 73 269 68 286 68 298 c 0
 68 329 94 331 104 331 c 2
 136 331 l 1
 173 549 l 1
 150 549 l 2
 119 549 115 567 115 578 c 0
 115 589 120 611 153 611 c 2
 363 611 l 2
 506 611 542 468 542 375 c 0
 542 184 415 0 266 -0 c 2
 59 -0 l 2
 28 0 24 19 24 29 c 0
162 62 m 1
 258 62 l 2
 377 62 471 213 471 363 c 0
 471 451 435 549 342 549 c 2
 243 549 l 1
 207 331 l 1
 311 331 l 2
 327 331 350 329 350 302 c 0
 350 293 346 269 314 269 c 2
 196 269 l 1
 162 62 l 1
EndSplineSet
EndChar

StartChar: Ntilde
Encoding: 209 209 258
Width: 525
Flags: HW
TeX: 819 0
ItalicCorrection: 115
HStem: 0 62<33.4609 102 160 217.828> 549 62<125.483 184 407.452 466 519.773 591.539> 690 67<411.914 507.542> 753 66<268.313 362.537>
DStem2: 91.6693 0 149.669 0 0.164359 0.986401<72.3876 556.709> 288 570 240 540 0.192378 -0.981321<20.2055 508.532> 374.17 0 432.001 0 0.164359 0.986401<71.9789 556.627>
LayerCount: 2
Fore
SplineSet
179 721 m 0
 179 734 188 743 198 753 c 0
 228 782 272 819 321 819 c 0xd0
 387 819 417 757 458 757 c 0xe0
 502 757 542 819 566 819 c 0xd0
 578 819 597 807 597 788 c 0
 597 776 590 769 578 757 c 0
 550 729 504 690 455 690 c 0xe0
 390 690 357 753 317 753 c 0xd0
 272 753 235 691 210 691 c 0
 193 691 179 706 179 721 c 0
EndSplineSet
Refer: 127 78 S 1 0 0 1 -0 0 3
EndChar

StartChar: Ograve
Encoding: 210 210 259
Width: 525
Flags: HW
TeX: 778 0
ItalicCorrection: 115
HStem: -11 61<152.151 395.113> 560 62<229.356 472.815> 787 20<286 300>
VStem: 72 76<22.5 225.984> 259 210<739.922 754.474> 478 75<384.88 586>
AnchorPoint: "below" 262 0 basechar 0
AnchorPoint: "above" 392 787 basechar 0
LayerCount: 2
Fore
SplineSet
72 41 m 0
 72 132 140 520 164 580 c 0
 177 613 207 622 354 622 c 2
 384 622 l 2
 554 622 553 604 553 568 c 0
 553 478 494 165 485 120 c 0
 473 66 465 25 450 12 c 0
 427 -8 363 -11 270 -11 c 2
 246 -11 l 2
 77 -11 72 4 72 41 c 0
148 91 m 0
 148 61 154 50 269 50 c 0
 363 50 377 56 396 69 c 1
 424 110 478 479 478 523 c 0
 478 551 472 560 352 560 c 0
 225 560 227 548 215 508 c 1
 196 436 148 143 148 91 c 0
EndSplineSet
Refer: 305 -1 S 1 0 0 1 42 180 2
AlternateSubs2: "Stilistic set 01 subtable" Ograve.vn
AlternateSubs2: "Latin alternatives subtable" Ograve.vn
Substitution2: "Latin Vietnamese substitutions subtable" Ograve.vn
EndChar

StartChar: Oacute
Encoding: 211 211 260
Width: 525
Flags: HW
TeX: 778 0
ItalicCorrection: 115
HStem: -11 61<152.151 395.113> 560 62<229.356 472.815> 736 71<420.221 517.375>
VStem: 72 76<22.5 225.984> 478 75<384.88 586>
AnchorPoint: "below" 262 0 basechar 0
AnchorPoint: "above" 392 787 basechar 0
LayerCount: 2
Fore
SplineSet
72 41 m 0
 72 132 140 520 164 580 c 0
 177 613 207 622 354 622 c 2
 384 622 l 2
 554 622 553 604 553 568 c 0
 553 478 494 165 485 120 c 0
 473 66 464 25 449 12 c 0
 426 -8 363 -11 270 -11 c 2
 246 -11 l 2
 77 -11 72 4 72 41 c 0
148 91 m 0
 148 61 154 50 269 50 c 0
 363 50 377 56 396 69 c 1
 424 110 478 479 478 523 c 0
 478 551 472 560 352 560 c 0
 225 560 227 548 215 508 c 1
 196 436 148 143 148 91 c 0
297 726 m 0
 297 754 309 751 467 802 c 0
 474 804 481 807 488 807 c 0
 508 807 521 789 521 773 c 0
 521 747 496 739 487 736 c 0
 344 690 334 686 327 686 c 0
 307 686 297 705 297 726 c 0
EndSplineSet
AlternateSubs2: "Stilistic set 01 subtable" Oacute.vn
AlternateSubs2: "Latin alternatives subtable" Oacute.vn
Substitution2: "Latin Vietnamese substitutions subtable" Oacute.vn
EndChar

StartChar: Ocircumflex
Encoding: 212 212 261
Width: 525
Flags: HW
TeX: 819 0
ItalicCorrection: 115
HStem: -11 61<178.239 369.787> 560 62<253.183 451.749> 751 73<360.922 413.245>
VStem: 84 74<70.6412 303.052> 470 72<311.759 541.837>
AnchorPoint: "below" 262 0 basechar 0
AnchorPoint: "above" 395 804 basechar 0
LayerCount: 2
Fore
SplineSet
216 698 m 0
 216 714 229 722 237 727 c 0
 374 817 382 824 395 824 c 2
 397 824 l 2
 408 824 409 822 523 727 c 0
 529 722 542 713 542 698 c 0
 542 681 521 659 504 659 c 0
 491 659 490 660 392 751 c 1
 391 751 l 1
 379 742 367 734 271 667 c 0
 267 664 259 659 250 659 c 0
 229 659 216 684 216 698 c 0
EndSplineSet
Refer: 128 79 S 1 0 0 1 -0 0 3
AlternateSubs2: "Stilistic set 01 subtable" Ocircumflex.vn
AlternateSubs2: "Latin alternatives subtable" Ocircumflex.vn
Substitution2: "Latin Vietnamese substitutions subtable" Ocircumflex.vn
EndChar

StartChar: Otilde
Encoding: 213 213 262
Width: 525
Flags: HW
TeX: 819 0
ItalicCorrection: 115
HStem: -11 61<178.239 369.787> 560 62<253.183 451.749> 690 67<411.992 506.64> 753 66<268.802 364.071>
VStem: 84 74<70.6412 303.052> 470 72<311.759 541.837>
AnchorPoint: "below" 262 0 basechar 0
AnchorPoint: "above" 394 799 basechar 0
LayerCount: 2
Fore
SplineSet
179 721 m 0
 179 734 189 743 199 753 c 0
 229 782 272 819 321 819 c 0xdc
 387 819 417 757 458 757 c 0xec
 502 757 542 819 566 819 c 0xdc
 578 819 597 807 597 788 c 0
 597 776 591 769 579 757 c 0
 551 729 504 690 455 690 c 0xec
 390 690 358 753 318 753 c 0xdc
 273 753 235 691 210 691 c 0
 193 691 179 706 179 721 c 0
EndSplineSet
Refer: 128 79 S 1 0 0 1 -0 0 3
AlternateSubs2: "Stilistic set 01 subtable" Otilde.vn
AlternateSubs2: "Latin alternatives subtable" Otilde.vn
Substitution2: "Latin Vietnamese substitutions subtable" Otilde.vn
EndChar

StartChar: OE
Encoding: 338 338 264
Width: 525
Flags: HW
TeX: 610 0
ItalicCorrection: 115
HStem: -11 61<131.876 258.678> -0 62<329 457.863> 286 61<377 531.653> 549 62<410 529> 561 61<207.961 337.051>
VStem: 55 60<68.8633 290.131> 519 72<472.53 547.004>
DStem2: 259.509 -11 316.836 -11 0.164359 0.986401<85.2331 310.464 372.442 564.067>
AnchorPoint: "above" 393 622 basechar 0
LayerCount: 2
Fore
SplineSet
55 100 m 0
 55 174 95 446 134 539 c 0
 156 591 185 622 300 622 c 0xae
 346 622 351 611 402 611 c 2
 555 611 l 2
 565 611 591 610 591 582 c 0
 591 576 576 482 572 472 c 0
 567 461 556 455 546 455 c 0
 533 455 519 465 519 482 c 0
 519 490 521 506 529 549 c 1
 410 549 l 1
 377 347 l 1
 492 347 l 2
 493 347 495 348 497 348 c 0
 529 348 533 328 533 318 c 0
 533 304 526 286 497 286 c 2
 366 286 l 1
 329 62 l 1
 455 62 l 1x76
 466 137 467 171 498 171 c 0
 512 171 525 160 525 142 c 0
 525 141 509 28 504 17 c 0
 496 1 480 0 469 -0 c 2
 302 -0 l 2x76
 251 0 239 -11 194 -11 c 0
 72 -11 55 23 55 100 c 0
115 134 m 0
 115 91 119 50 208 50 c 0
 271 50 277 98 297 214 c 0
 340 469 342 480 342 510 c 0xae
 342 537 338 561 288 561 c 0
 260 561 220 554 200 533 c 0
 149 481 115 166 115 134 c 0
EndSplineSet
EndChar

StartChar: Oslash
Encoding: 216 216 265
Width: 525
Flags: HW
TeX: 666 55
ItalicCorrection: 115
HStem: -11 61<223.234 383.006> 560 62<243.164 403>
VStem: 84 60<74.0491 301.466> 482 60<310.753 538.429>
DStem2: 132 5 194 -9 0.439603 0.898192<-64.3731 0 82.2189 616.731 698.95 763.323>
LayerCount: 2
Fore
SplineSet
84 111 m 0
 84 180 107 316 122 392 c 0
 163 598 203 622 359 622 c 2
 382 622 l 2
 400 622 411 621 433 620 c 1
 464 689 470 695 487 695 c 0
 502 695 519 684 519 666 c 0
 519 654 511 641 494 606 c 1
 529 589 542 563 542 500 c 0
 542 438 507 176 464 78 c 0
 434 11 393 -11 267 -11 c 2
 249 -11 l 2
 231 -11 212 -11 194 -9 c 1
 165 -68 162 -84 139 -84 c 0
 123 -84 107 -71 107 -55 c 0
 107 -43 115 -30 132 5 c 1
 97 22 84 48 84 111 c 0
144 143 m 0
 144 93 156 82 165 73 c 1
 403 559 l 1
 394 559 386 560 377 560 c 2
 354 560 l 2
 217 560 199 536 157 264 c 0
 148 204 144 167 144 143 c 0
223 52 m 1
 245 51 248 50 254 50 c 0
 263 50 272 50 281 50 c 0
 405 50 425 79 462 302 c 0
 478 400 482 435 482 468 c 0
 482 511 475 524 462 539 c 1
 223 52 l 1
EndSplineSet
EndChar

StartChar: Uacute
Encoding: 218 218 267
Width: 525
Flags: HW
TeX: 778 0
ItalicCorrection: 115
HStem: -11 62<211.657 328.983> 549 62<102.436 166 232.617 310.548 407.477 471 542 615.548> 736 71<444.221 541.375>
VStem: 105 70<89.8319 310.305>
DStem2: 72.6765 -11 143.342 -11 0.164359 0.986401<192.104 567.723> 376.842 -11 448.343 -11 0.164359 0.986401<127.104 567.86>
AnchorPoint: "below" 267 0 basechar 0
AnchorPoint: "above" 394 798 basechar 0
LayerCount: 2
Fore
SplineSet
321 726 m 0
 321 754 333 751 491 802 c 0
 498 804 505 807 512 807 c 0
 532 807 545 789 545 773 c 0
 545 747 520 739 511 736 c 0
 368 690 358 686 351 686 c 0
 331 686 321 705 321 726 c 0
EndSplineSet
Refer: 134 85 S 1 0 0 1 -0 -0 3
AlternateSubs2: "Stilistic set 01 subtable" Uacute.vn
AlternateSubs2: "Latin alternatives subtable" Uacute.vn
Substitution2: "Latin Vietnamese substitutions subtable" Uacute.vn
EndChar

StartChar: Ucircumflex
Encoding: 219 219 268
Width: 525
Flags: HW
TeX: 819 0
ItalicCorrection: 115
HStem: -11 62<211.657 328.983> 549 62<102.436 166 232.617 310.548 407.477 471 542 615.548> 751 73<363.57 414.938>
VStem: 105 70<89.8319 310.305>
DStem2: 72.6765 -11 143.342 -11 0.164359 0.986401<192.104 567.723> 376.842 -11 448.343 -11 0.164359 0.986401<127.104 567.86>
AnchorPoint: "below" 267 0 basechar 0
AnchorPoint: "above" 397 815 basechar 0
LayerCount: 2
Fore
SplineSet
216 698 m 0
 216 715 231 723 239 728 c 0
 375 817 382 824 395 824 c 0
 408 824 420 812 429 805 c 0
 538 714 542 716 542 697 c 0
 542 682 522 659 504 659 c 0
 491 659 481 669 476 674 c 0
 408 736 400 743 392 751 c 1
 391 751 l 1
 264 662 263 659 250 659 c 0
 229 659 216 684 216 698 c 0
EndSplineSet
Refer: 134 85 S 1 0 0 1 0 0 3
EndChar

StartChar: Udieresis
Encoding: 220 220 269
Width: 525
Flags: HW
TeX: 819 0
ItalicCorrection: 115
HStem: -11 62<211.657 328.983> 549 62<102.436 166 232.617 310.548 407.477 471 542 615.548> 719 100<249.494 327.506 453.264 531.148>
VStem: 105 70<89.8319 310.305> 238 101<730.197 807.442> 442 101<730.951 807.537>
DStem2: 72.6765 -11 143.342 -11 0.164359 0.986401<192.104 567.723> 376.842 -11 448.343 -11 0.164359 0.986401<127.104 567.86>
AnchorPoint: "below" 267 0 basechar 0
AnchorPoint: "above" 396 810 basechar 0
LayerCount: 2
Fore
SplineSet
238 765 m 0
 238 792 262 819 292 819 c 0
 320 819 339 796 339 772 c 0
 339 745 315 719 285 719 c 0
 257 719 238 741 238 765 c 0
442 765 m 0
 442 795 468 819 496 819 c 0
 524 819 543 796 543 773 c 0
 543 742 515 719 489 719 c 0
 464 719 442 738 442 765 c 0
EndSplineSet
Refer: 134 85 S 1 0 0 1 0 0 3
EndChar

StartChar: Yacute
Encoding: 221 221 270
Width: 525
Flags: HW
TeX: 778 0
ItalicCorrection: 115
HStem: -0 62<168.452 238 308 366.577> 549 62<116.686 172 250 299.517 418.62 458 535 600.577> 736 71<447.187 544.66>
DStem2: 250 549 172 549 0.298275 -0.95448<0 229.731> 227.669 -0 297.669 -0 0.164359 0.986401<74.3599 248.133>
AnchorPoint: "below" 262 0 basechar 0
AnchorPoint: "above" 395 798 basechar 0
LayerCount: 2
Fore
SplineSet
323 726 m 0
 323 754 336 751 494 802 c 0
 501 804 508 807 515 807 c 0
 535 807 548 789 548 773 c 0
 548 747 525 740 514 736 c 0
 371 690 360 686 353 686 c 0
 333 686 323 705 323 726 c 0
EndSplineSet
Refer: 138 89 S 1 0 0 1 -0 -0 3
AlternateSubs2: "Stilistic set 01 subtable" Yacute.vn
AlternateSubs2: "Latin alternatives subtable" Yacute.vn
Substitution2: "Latin Vietnamese substitutions subtable" Yacute.vn
EndChar

StartChar: Thorn
Encoding: 222 222 271
Width: 525
Flags: HW
TeX: 610 0
ItalicCorrection: 115
HStem: -0 62<36.4312 118 188 258.577> 159 61<215 389.302> 445 62<262 425.01> 549 62<128.682 199 269 349.611>
VStem: 463 71<286.64 409.948>
DStem2: 107.669 -0 177.669 -0 0.164359 0.986401<74.3599 172.671 234.649 462.67 525.471 556.545>
LayerCount: 2
Fore
SplineSet
35 29 m 0
 35 60 61 62 73 62 c 2
 118 62 l 1
 199 549 l 1
 163 549 l 2
 152 549 127 550 127 578 c 0
 127 608 153 611 162 611 c 2
 315 611 l 2
 332 611 351 607 351 582 c 0
 351 550 326 549 310 549 c 2
 269 549 l 1
 262 507 l 1
 377 507 l 2
 490 507 534 429 534 361 c 0
 534 280 465 159 312 159 c 2
 204 159 l 1
 188 62 l 1
 200 62 212 62 224 62 c 0
 235 62 260 60 260 32 c 0
 260 2 234 0 225 -0 c 2
 73 -0 l 2
 60 0 35 1 35 29 c 0
215 220 m 1
 298 220 l 2
 312 220 326 220 340 223 c 0
 396 233 463 280 463 350 c 0
 463 407 419 445 359 445 c 2
 252 445 l 1
 215 220 l 1
EndSplineSet
EndChar

StartChar: Germandbls
Encoding: 61699 61699 272
Width: 525
Flags: HW
TeX: 610 0
ItalicCorrection: 115
HStem: -11 63<125.246 161.681 387.473 423.72> 602 20G<166.5 221 273 286.5 429.5 484 535.5 548>
VStem: 37 87<9 121.634> 100 65<354.455 497.815> 203 64<133.418 279.055> 213 95<462.037 559.719> 300 86<10.5 121.634> 362 66<354.26 499.677> 465 65<133.418 279.055> 482 88<447.908 602>
LayerCount: 2
Fore
SplineSet
37 18 m 0
 37 25 37 19 62 172 c 0
 64 184 68 203 97 203 c 0
 121 203 133 194 133 174 c 0
 133 157 124 132 124 90 c 0
 124 72 127 54 144 52 c 1
 173 53 203 234 203 253 c 0xe8
 203 274 193 275 177 282 c 0
 149 293 100 301 100 377 c 0
 100 403 120 622 213 622 c 0
 229 622 239 618 254 611 c 1
 261 618 268 622 278 622 c 0
 295 622 308 609 308 593 c 0
 308 584 282 432 279 425 c 0
 274 414 264 407 249 407 c 2
 247 407 l 2
 220 407 213 419 213 439 c 0
 213 459 219 488 219 523 c 0
 219 549 216 554 213 560 c 1
 172 495 165 382 165 379 c 0xd4
 165 358 173 360 210 346 c 0
 246 333 267 308 267 257 c 1
 267 257 260 127 214 40 c 0
 194 3 175 -11 149 -11 c 0
 127 -11 113 -6 94 5 c 1
 91 0 83 -11 67 -11 c 0
 52 -11 37 0 37 18 c 0
300 16 m 0
 300 24 304 48 325 172 c 0
 327 184 331 203 360 203 c 0
 384 203 395 194 395 174 c 0
 395 157 386 132 386 90 c 0
 386 66 392 54 406 52 c 1
 435 53 465 234 465 253 c 0xc280
 465 274 455 275 439 282 c 0
 410 293 362 301 362 377 c 0
 362 403 383 622 476 622 c 0
 492 622 501 618 516 611 c 1
 523 618 531 622 540 622 c 0
 556 622 570 611 570 593 c 0
 570 584 545 432 542 425 c 0
 537 414 526 407 511 407 c 2
 509 407 l 2
 482 407 475 419 475 439 c 0
 475 459 482 488 482 523 c 0
 482 549 478 554 475 560 c 1
 434 495 428 382 428 379 c 0xc140
 428 358 435 360 472 346 c 0
 508 333 530 308 530 257 c 1
 530 257 523 127 477 40 c 0
 457 3 437 -11 411 -11 c 0
 389 -11 376 -6 357 5 c 1
 354 0 346 -11 330 -11 c 0
 309 -11 300 5 300 16 c 0
EndSplineSet
EndChar

StartChar: agrave
Encoding: 224 224 273
Width: 525
Flags: HW
TeX: 610 0
ItalicCorrection: 115
HStem: -5 61<163.48 331.14 437.479 525.909> 217 60<241.966 390> 320 113<166.722 223.322> 377 62<231 374.284> 506 71<412.316 474.987> 568 71<280.125 348.641>
VStem: 75 70<74.2835 159.158> 142 89<327.907 374.266> 403 71<277.342 351.209>
AnchorPoint: "below" 222 0 basechar 0
AnchorPoint: "above" 325 619 basechar 0
LayerCount: 2
Fore
SplineSet
277 603 m 0
 277 623 295 639 313 639 c 2
 315 639 l 2xc480
 324 639 326 637 455 577 c 0
 465 572 481 564 481 546 c 0xc880
 481 535 467 506 446 506 c 2
 445 506 l 2xc880
 436 506 435 507 306 568 c 0
 296 573 277 582 277 603 c 0
EndSplineSet
Refer: 146 97 S 1 0 0 1 0 0 3
AlternateSubs2: "Stilistic set 01 subtable" agrave.vn
AlternateSubs2: "Latin alternatives subtable" agrave.vn
Substitution2: "Latin Vietnamese substitutions subtable" agrave.vn
EndChar

StartChar: acircumflex
Encoding: 226 226 275
Width: 525
Flags: HW
TeX: 638 0
ItalicCorrection: 115
HStem: -5 61<163.48 331.14 437.479 525.909> 217 60<241.966 390> 320 113<166.722 223.322> 377 62<231 374.284> 624 20G<336 349>
VStem: 75 70<74.2835 159.158> 142 89<327.907 374.266> 403 71<277.342 351.209>
AnchorPoint: "below" 222 0 basechar 0
AnchorPoint: "above" 326 624 basechar 0
LayerCount: 2
Fore
SplineSet
165 527 m 0
 165 542 176 549 189 557 c 0
 325 638 330 644 342 644 c 2
 344 644 l 2
 354 644 355 641 470 556 c 0
 477 551 490 543 490 527 c 0
 490 511 472 488 453 488 c 0
 438 488 433 495 367 549 c 0
 358 557 348 564 339 572 c 1
 209 490 212 488 198 488 c 0xc9
 177 488 165 512 165 527 c 0
EndSplineSet
Refer: 146 97 S 1 0 0 1 0 0 3
AlternateSubs2: "Stilistic set 01 subtable" acircumflex.vn
AlternateSubs2: "Latin alternatives subtable" acircumflex.vn
Substitution2: "Latin Vietnamese substitutions subtable" acircumflex.vn
EndChar

StartChar: adieresis
Encoding: 228 228 277
Width: 525
Flags: HW
TeX: 610 0
ItalicCorrection: 115
HStem: -5 61<163.48 331.14 437.479 525.909> 217 60<241.966 390> 320 113<166.722 223.322> 377 62<231 374.284> 511 100<222.697 299.958 426.544 503.635>
VStem: 75 70<74.2835 159.158> 142 89<327.907 374.266> 211 100<522.544 599.506> 403 71<277.342 351.209> 415 100<522.544 599.971>
AnchorPoint: "below" 222 0 basechar 0
AnchorPoint: "above" 320 591 basechar 0
LayerCount: 2
Fore
SplineSet
211 557 m 0
 211 586 236 611 264 611 c 0
 289 611 311 592 311 564 c 0xc9
 311 533 283 511 257 511 c 0
 232 511 211 529 211 557 c 0
415 557 m 0xc840
 415 583 437 611 468 611 c 0
 492 611 515 592 515 564 c 0
 515 533 487 511 461 511 c 0
 435 511 415 531 415 557 c 0xc840
EndSplineSet
Refer: 146 97 S 1 0 0 1 -0 -0 3
EndChar

StartChar: aring
Encoding: 229 229 278
Width: 525
Flags: HW
TeX: 638 0
ItalicCorrection: 115
HStem: -5 61<163.48 331.14 437.479 525.909> 217 60<241.966 390> 320 113<166.722 223.322> 377 62<231 374.284> 473 35<283.196 370.424> 612 35<295.022 383.049>
VStem: 75 70<74.2835 159.158> 142 89<327.907 374.266> 213 59<516.383 593.98> 394 58<526.685 603.436> 403 71<277.342 351.209>
LayerCount: 2
Fore
SplineSet
213 550 m 0
 213 594 267 647 347 647 c 0
 404 647 452 616 452 570 c 0
 452 524 397 473 318 473 c 0
 260 473 213 504 213 550 c 0
272 552 m 0xccc0
 272 525 297 508 324 508 c 0
 361 508 394 537 394 567 c 0
 394 594 370 612 341 612 c 0
 303 612 272 581 272 552 c 0xccc0
EndSplineSet
Refer: 146 97 S 1 0 0 1 0 0 3
EndChar

StartChar: ae
Encoding: 230 230 279
Width: 525
Flags: HW
TeX: 430 0
ItalicCorrection: 115
HStem: -5 61<114.5 220.492 353.941 439.956> 191 61<163.062 264 335 489.933> 377 62<188.544 269.25 399.009 478.266>
VStem: 50 57<63.4908 148.017> 100 89<327.246 375.798> 264 58<101.035 189> 275 60<252 301.364> 464 57<79.8895 136.09> 491 57<253.23 367.484>
AnchorPoint: "below" 268 0 basechar 0
AnchorPoint: "above" 324 440 basechar 0
LayerCount: 2
Fore
SplineSet
50 103 m 0xf5
 50 162 93 244 275 250 c 1
 282 293 283 299 283 311 c 0
 283 338 271 377 222 377 c 0
 213 377 203 376 189 375 c 1
 189 370 l 2
 189 335 163 320 142 320 c 0
 119 320 100 337 100 362 c 0
 100 393 126 439 225 439 c 0
 288 439 318 398 330 368 c 1
 354 397 393 439 447 439 c 0
 487 439 548 412 548 295 c 0xea80
 548 192 528 191 504 191 c 2
 323 191 l 1
 323 185 322 179 322 174 c 0
 322 87 368 57 398 57 c 0
 424 57 450 81 464 112 c 0xe5
 466 116 472 137 493 137 c 0
 509 137 521 124 521 111 c 0
 521 79 469 -5 393 -5 c 0
 340 -5 306 31 289 63 c 1
 261 23 206 -5 151 -5 c 0
 91 -5 50 39 50 103 c 0xf5
107 105 m 0xf4
 107 86 117 56 157 56 c 0
 195 56 239 80 251 118 c 0
 253 125 253 132 264 189 c 1
 139 182 107 138 107 105 c 0xf4
335 252 m 1
 488 252 l 1
 489 266 491 280 491 294 c 0xe280
 491 323 485 377 446 377 c 0
 419 377 365 345 335 252 c 1
EndSplineSet
EndChar

StartChar: ccedilla
Encoding: 231 231 280
Width: 525
Flags: HW
TeX: 430 194
ItalicCorrection: 115
HStem: -208 61<140.489 310.159> 377 62<285.232 426.052>
VStem: 106 70<110.638 266.087> 326 71<-129.759 -73.0604> 426 89<328.49 374.093>
AnchorPoint: "above" 364 440 basechar 0
LayerCount: 2
Fore
SplineSet
106 183 m 0
 106 309 216 439 364 439 c 0
 425 439 515 438 515 371 c 0
 515 342 493 320 468 320 c 0
 445 320 426 337 426 362 c 0
 426 366 426 370 427 374 c 1
 407 377 388 377 367 377 c 2
 363 377 l 2
 253 377 176 271 176 184 c 0
 176 115 224 57 304 57 c 0
 367 57 397 91 409 108 c 0
 420 124 422 137 449 137 c 2
 451 137 l 2
 480 137 484 115 484 110 c 0
 484 90 445 11 326 -4 c 1
 325 -12 l 1
 360 -22 397 -48 397 -97 c 0
 397 -136 374 -177 314 -195 c 0
 273 -207 233 -208 185 -208 c 2
 171 -208 l 2
 149 -208 139 -194 139 -179 c 0
 139 -168 144 -147 177 -147 c 2
 192 -147 l 2
 264 -147 326 -137 326 -98 c 0
 326 -68 277 -67 272 -66 c 0
 262 -64 250 -53 250 -38 c 0
 250 -32 252 -23 256 -2 c 1
 165 16 106 91 106 183 c 0
EndSplineSet
EndChar

StartChar: egrave
Encoding: 232 232 281
Width: 525
Flags: HW
TeX: 610 0
ItalicCorrection: 115
HStem: -5 61<218.107 372.04> 191 61<171 434> 377 62<260.895 402.825> 506 71<426.316 488.987> 568 71<295.125 363.598>
VStem: 88 70<116.517 191> 435 70<254.872 343.234>
AnchorPoint: "below" 290 0 basechar 0
AnchorPoint: "above" 368 619 basechar 0
LayerCount: 2
Fore
SplineSet
292 603 m 0
 292 623 310 639 328 639 c 2
 329 639 l 2xee
 338 639 340 637 469 577 c 0
 479 572 495 564 495 546 c 0xf6
 495 535 481 506 460 506 c 2
 459 506 l 2xf6
 450 506 450 507 321 568 c 0
 311 573 292 582 292 603 c 0
EndSplineSet
Refer: 150 101 S 1 0 0 1 0 0 3
AlternateSubs2: "Stilistic set 01 subtable" egrave.vn
AlternateSubs2: "Latin alternatives subtable" egrave.vn
Substitution2: "Latin Vietnamese substitutions subtable" egrave.vn
EndChar

